<?xml version="1.0" encoding="UTF-8"?>
<svg id="Livello_1" data-name="Livello 1" xmlns="http://www.w3.org/2000/svg" xmlns:xlink="http://www.w3.org/1999/xlink" viewBox="0 0 328.02 63.97">
  <defs>
    <style>
      .cls-1 {
        fill: none;
      }

      .cls-2 {
        fill: #fff;
      }

      .cls-3 {
        clip-path: url(#clippath);
      }
    </style>
    <clipPath id="clippath">
      <rect class="cls-1" y="0" width="328.02" height="63.97"/>
    </clipPath>
  </defs>
  <rect class="cls-2" x="149.55" y="0" width=".33" height="56.69"/>
  <rect class="cls-2" x="56.43" y="0" width=".33" height="56.69"/>
  <g class="cls-3">
    <path class="cls-2" d="M63.49,8.17c.34,0,.86.06,1.32.06s.78-.06,1.14-.06c.15,0,.3.04.3.11,0,.11-.19.11-.3.15-.71.15-.71.56-.73,1.23-.02,1.15-.02,1.86-.02,2.7v.91c0,1.31.28,1.99.75,2.5.54.58,1.42.82,2.11.82,1.86,0,2.8-1.04,2.8-3.93v-1.21c0-2.54-.08-2.8-.49-2.93-.13-.04-.26-.06-.39-.09-.13-.02-.26-.09-.26-.15,0-.08.11-.11.28-.11.3,0,.58.06,1.03.06.3,0,.69-.04,1.04-.04.19,0,.33.02.33.09s-.09.13-.32.17c-.58.15-.71.39-.75.97-.06.9-.07,1.83-.07,2.76-.02,2-.22,3.19-1.08,4.01-.74.75-1.68.97-2.44.97-.95,0-1.73-.19-2.33-.62-.9-.67-1.25-1.57-1.25-3.54-.02-1.21,0-2.5-.04-3.65-.02-.63-.13-.76-.65-.9-.07-.02-.37-.09-.37-.17,0-.13.24-.11.39-.11"/>
    <path class="cls-2" d="M73.56,8.15c.35,0,.93.08,1.62.08.07,0,.21.15.34.32.89,1.16,4.38,5.15,5.67,6.58.06.06.09,0,.09-.06,0-.5,0-4.38-.02-5.56-.02-.8-.24-.93-.95-1.06-.17-.02-.3-.09-.3-.17,0-.09.17-.11.32-.11.26,0,.78.06,1.12.06.39,0,.71-.06,1.04-.06.21,0,.3.04.3.11s-.15.15-.32.19c-.56.15-.69.47-.73.82-.06.6-.09,3.52-.09,4.81s-.04,1.86,0,2.57c.02.28-.02.43-.13.43-.07,0-.24-.17-.48-.47-.24-.3-4.12-4.98-6.06-7.2-.04-.04-.13-.06-.13,0v5.67c0,1.18.13,1.42.91,1.57.21.04.34.11.34.17,0,.08-.04.11-.34.11-.24,0-.75-.07-1.19-.07s-.88.07-1.01.07-.35,0-.35-.13c0-.08.19-.13.33-.15.63-.11.76-.37.84-1.27.04-.63.13-4.85.13-5.7,0-.75-.07-.9-.22-1.03-.2-.17-.43-.2-.71-.26-.22-.04-.32-.09-.32-.15,0-.08.11-.11.3-.11"/>
    <path class="cls-2" d="M84.34,8.17c.41,0,.76.06,1.23.06.37,0,1.06-.06,1.32-.06.11,0,.28.04.28.11s-.11.13-.32.17c-.5.09-.63.26-.65.73-.04.71-.06,2.26-.06,3.19,0,2.01-.02,3.15.02,3.54.04.47.15.63.78.74.17.06.26.09.26.17,0,.09-.17.11-.33.11-.22,0-.91-.06-1.34-.06-.37,0-.86.08-1.21.08-.15,0-.3-.04-.3-.11s.11-.13.32-.17c.54-.08.73-.32.75-1.08.02-.8.02-2.01.02-3.21,0-1.46-.02-3.24-.04-3.39-.06-.39-.35-.48-.75-.56-.13-.02-.26-.09-.26-.15,0-.09.17-.11.28-.11"/>
    <path class="cls-2" d="M88.2,8.17c.24,0,.93.06,1.25.06.49,0,.82-.06,1.1-.06.19,0,.34.04.34.11,0,.06-.13.13-.3.15-.45.07-.47.22-.43.45.02.13.13.37.24.65.3.76,1.96,4.96,2.35,5.84.06.07.09.07.11.04.24-.49,2.07-4.74,2.31-5.39.21-.52.37-.88.37-1.17,0-.26-.24-.32-.71-.41-.15-.04-.26-.09-.26-.15,0-.08.11-.11.34-.11.21,0,.71.06,1.16.06.48,0,.65-.04.93-.04.2,0,.28.04.28.09s-.06.13-.28.17c-.48.09-.82.34-1.29,1.27-.28.58-1.18,2.67-2.56,5.83-.28.67-.48,1.14-.56,1.38-.04.13-.11.28-.19.28s-.11-.08-.17-.24c-.5-1.43-2.72-6.95-3.15-7.81-.2-.45-.5-.63-.86-.71-.19-.04-.35-.09-.35-.19s.21-.09.32-.09"/>
    <path class="cls-2" d="M99.46,8.22c.8,0,2.54-.04,3.13-.04.54,0,1.01-.02,1.14-.02.07,0,.13.13.15.22.02.15.07.8.11,1.06.02.15-.02.26-.09.26-.05,0-.11-.09-.17-.22-.28-.63-.52-.86-.75-.9-.24-.04-.3-.06-2.76-.06-.09,0-.15.04-.15.2,0,.76-.02,2.89,0,3.3,0,.08.04.15.11.15h1.6c.75,0,1.06-.07,1.21-.15.09-.06.21-.17.36-.54.04-.11.09-.22.17-.22.06,0,.07.07.07.26,0,.07-.07.63-.09.84-.02.22-.02.73,0,.84.02.13-.02.28-.07.28-.07,0-.11-.09-.21-.32-.09-.22-.19-.52-.41-.56-.22-.06-.65-.09-2.67-.09-.04,0-.11.06-.11.19-.02.45.04,2.72.06,3,.04.52.06.76.37.8.19.02.73.06,1.51.06,1.36,0,1.49-.08,1.72-.24.15-.13.35-.39.63-.88.08-.15.15-.24.21-.24.07,0,.09.13,0,.39-.06.15-.28.93-.32,1.12-.02.09-.15.21-.26.21-1.58,0-3.08-.06-4.42-.06-.49,0-1.12.06-1.29.06s-.37,0-.37-.11c0-.08.15-.13.3-.15.5-.09.73-.24.76-.8.06-.9.06-2.53.06-3.93v-2.48c0-.75-.22-.9-.73-1.01-.17-.04-.26-.09-.26-.15,0-.08.11-.13.22-.13.37,0,.88.06,1.23.06"/>
    <path class="cls-2" d="M107.96,14.71c0,.99.06,1.31.07,1.42.02.3.24.45.65.52.13.02.3.07.3.15s-.17.13-.34.13c-.32,0-.88-.06-1.4-.06s-.8.06-1.08.06c-.22,0-.32-.06-.32-.11,0-.07.11-.13.32-.17.52-.09.67-.24.71-.75.06-.78.06-1.75.06-3.75s0-2.65-.02-3.02c-.02-.41-.15-.61-.73-.71-.15-.02-.28-.09-.28-.15,0-.07.17-.11.28-.11.21,0,.56.06,1.06.06.65,0,1.29-.07,1.94-.07.97,0,1.55.19,2.03.52.61.39.89,1.01.89,1.6,0,1.12-.76,1.79-1.7,2.09-.11.04-.11.09-.04.24.34.61,1.06,1.66,1.64,2.42.45.6.76.9,1.04,1.17.39.37.84.52,1.16.52.17,0,.13.11,0,.19-.13.07-.35.11-.71.11-.97,0-1.43-.43-2.05-1.08-.73-.78-1.77-2.44-2.09-2.87-.15-.17-.43-.28-.61-.32-.13-.02-.45-.04-.67-.04-.07,0-.13.13-.13.26v1.73ZM108.13,8.56s-.09.11-.11.37c-.02.22-.06,2.98-.06,3.21,0,.07.04.28.13.28.22.02.52.02.82.02.56-.02,1.01-.17,1.32-.35.41-.26.82-.76.82-1.53,0-.56-.19-1.03-.5-1.4-.39-.43-.97-.71-1.7-.71-.15,0-.58.04-.73.11"/>
    <path class="cls-2" d="M115.4,15.25c.15.5.37.9.71,1.16.45.35,1.04.47,1.4.47,1.16,0,1.83-.75,1.83-1.72s-.56-1.51-1.81-2.26c-1.06-.63-2.03-1.4-2.03-2.63,0-.67.32-1.36.89-1.77.52-.39,1.25-.56,1.88-.56.73,0,1.34.22,1.53.3.11.04.17.11.19.19,0,.39.07.84.11,1.04.04.2.02.34-.06.34s-.13-.09-.19-.28c-.15-.41-.34-.71-.61-.91-.34-.28-.78-.41-1.21-.41-.69,0-1.6.39-1.6,1.64,0,.73.47,1.25.93,1.59.54.35,1.03.67,1.57.99.56.37,1.47,1.02,1.47,2.18,0,1.58-1.46,2.56-2.95,2.56-.67,0-1.49-.17-1.98-.41-.19-.06-.22-.3-.28-.52-.02-.24-.07-.54-.11-1.01-.02-.17,0-.32.08-.32s.17.13.24.35"/>
    <path class="cls-2" d="M122.26,8.17c.41,0,.76.06,1.23.06.37,0,1.06-.06,1.32-.06.11,0,.28.04.28.11s-.11.13-.32.17c-.5.09-.63.26-.65.73-.04.71-.06,2.26-.06,3.19,0,2.01-.02,3.15.02,3.54.04.47.15.63.78.74.17.06.26.09.26.17,0,.09-.17.11-.33.11-.22,0-.91-.06-1.34-.06-.37,0-.86.08-1.21.08-.15,0-.3-.04-.3-.11s.11-.13.32-.17c.54-.08.73-.32.75-1.08.02-.8.02-2.01.02-3.21,0-1.46-.02-3.24-.04-3.39-.06-.39-.35-.48-.75-.56-.13-.02-.26-.09-.26-.15,0-.09.17-.11.28-.11"/>
    <path class="cls-2" d="M126.49,7.98c.06-.04.09,0,.17.08.06.06.26.09.47.11.2.02,1.72.06,3.24.06h2.52c.67,0,.93-.04,1.18-.13.09-.06.19-.11.22-.08.04.04.04.09.02.17-.06.11-.11.73-.09,1.36,0,.2-.04.35-.11.35-.06,0-.11-.13-.13-.22-.04-.19-.19-.71-.28-.84-.11-.15-.15-.22-.62-.22h-2.18c-.07,0-.11.17-.11.24l-.04,4.9c0,.82,0,1.81.06,2.24.06.41.26.56.75.65.21.04.32.11.32.19s-.22.11-.35.11c-.45,0-.76-.07-1.32-.07-.76,0-1.1.07-1.32.07-.26,0-.35-.06-.35-.11,0-.08.13-.13.32-.17.69-.09.78-.26.8-.97.06-1.4.09-6.69.09-6.84,0-.07-.02-.22-.09-.24h-1.17c-.61,0-1.06.02-1.25.04-.28.04-.5.22-.65.97-.04.17-.09.26-.15.26-.07,0-.11-.11-.11-.28,0-.3.15-.93.15-1.42,0-.09.02-.17.06-.21"/>
    <path class="cls-2" d="M138.8,8.02c.02.06.21.69.39,1.17.9,2.35,1.57,3.9,2.65,6.51.28.65.54.9,1.1.99.17.04.28.11.28.17,0,.07-.11.11-.3.11-.41,0-.71-.08-1.47-.09-.54,0-.91.08-1.19.08-.17,0-.32-.04-.32-.11,0-.09.17-.15.34-.17.49-.09.71-.24.54-.63-.15-.34-.52-1.33-1.03-2.56-.04-.09-.17-.17-.22-.17-.34-.02-2.52-.02-2.78,0-.06,0-.13.06-.19.17-.22.5-.6,1.4-.82,1.96-.19.5-.19.8-.06.97.09.17.3.21.6.28.15.04.24.09.24.15,0,.08-.11.11-.3.11-.3,0-.82-.08-1.29-.08-.39,0-.63.06-1.01.06-.15,0-.26-.04-.26-.11s.17-.13.32-.17c.75-.15.9-.5,1.32-1.38.41-.8,1.71-3.88,2.59-5.98.08-.17.08-.26.08-.41,0-.08.02-.13.06-.17.11-.09.37-.41.47-.65.04-.11.09-.17.15-.17.07,0,.09.06.11.13M137.57,5.39c.17.13.93,1.55,1.14,1.88.06.09.06.17.02.17s-.11-.04-.21-.11c-.58-.54-1.21-1.21-1.68-1.73-.11-.11-.13-.17-.13-.22s.07-.09.22-.09c.2,0,.52.04.63.11M139.52,12.75c-.63-1.64-1.06-2.65-1.25-3.11-.04-.11-.08-.15-.13-.02-.45.99-1.02,2.52-1.25,3.17-.02.08,0,.09.06.09.26.02.67.02,1.23.02.3,0,1.12,0,1.27-.02.07,0,.09-.07.07-.13"/>
    <path class="cls-2" d="M63.54,30.72c-.16,0-.32-.04-.32-.11,0-.09.12-.12.3-.16.55-.07.64-.18.69-.64.04-.3.04-.8.04-3.12s0-3.01-.02-3.24c-.02-.48-.12-.71-.69-.76-.19-.04-.28-.09-.28-.16s.14-.12.25-.12c.07,0,.69.04,1.05.04.69,0,1.35-.14,2.04-.14,1.17,0,2.16.14,3.12.67,1.15.66,2.09,1.83,2.09,3.55,0,2.61-1.92,3.79-3.69,4.2-.46.11-1.03.11-1.31.11-.34,0-.62-.03-.99-.05-.44-.02-.83-.07-1.26-.07-.39,0-.89.02-1.01.02M65.48,22.68c-.09.03-.18.18-.18.34-.04.57-.07.9-.07,3.26,0,1.35.02,2.07.07,2.77.05.87.14.99.41,1.15.28.18.99.34,1.36.34.67,0,1.19-.12,1.61-.3.89-.44,2-1.44,2-3.55,0-1.12-.27-2.29-1.22-3.09-.78-.66-1.76-1.03-3.01-1.03-.39,0-.83.05-.97.11"/>
    <path class="cls-2" d="M74.79,22.44c.76,0,2.41-.04,2.98-.04.51,0,.96-.02,1.08-.02.07,0,.12.12.14.21.02.14.07.76.11,1.01.02.14-.02.25-.09.25-.05,0-.11-.09-.16-.21-.27-.6-.5-.82-.71-.85-.23-.04-.28-.05-2.62-.05-.09,0-.14.04-.14.19,0,.73-.02,2.75,0,3.14,0,.07.04.14.11.14h1.53c.71,0,1.01-.07,1.15-.14.09-.05.19-.16.34-.51.04-.11.09-.21.16-.21.05,0,.07.07.07.25,0,.07-.07.6-.09.8-.02.21-.02.69,0,.8.02.12-.02.27-.07.27-.07,0-.11-.09-.19-.3-.09-.21-.18-.5-.39-.53-.21-.05-.62-.09-2.54-.09-.03,0-.11.05-.11.18-.02.43.03,2.59.05,2.86.04.5.05.73.36.76.18.02.69.05,1.44.05,1.29,0,1.42-.07,1.63-.23.14-.12.34-.37.6-.83.07-.14.14-.23.19-.23.07,0,.09.12,0,.37-.05.14-.27.89-.3,1.06-.02.09-.14.19-.25.19-1.51,0-2.93-.05-4.2-.05-.46,0-1.06.05-1.22.05s-.35,0-.35-.11c0-.07.14-.12.28-.14.48-.09.69-.23.73-.76.05-.85.05-2.41.05-3.74v-2.36c0-.71-.21-.85-.69-.96-.16-.04-.25-.09-.25-.14,0-.07.11-.12.21-.12.35,0,.83.05,1.17.05"/>
    <path class="cls-2" d="M82.54,29.79c-.94-.8-1.45-1.93-1.45-3.16,0-1.36.57-2.59,1.86-3.55.64-.46,1.6-.92,3.21-.92.6,0,1.15.09,1.74.25.32.11.78.27.92.34.12.05.18.14.18.32,0,.07.11.75.14.92.05.25.02.41-.05.41-.11,0-.16-.11-.23-.28-.16-.39-.41-.73-.73-1.01-.5-.43-1.21-.69-2.11-.69-1.06,0-1.97.46-2.55,1.05-.69.66-1.22,1.77-1.22,3.05,0,1.76.87,2.85,1.6,3.39.62.48,1.49.76,2.13.76.67,0,1.45-.14,1.85-.5.12-.11.19-.48.19-.71,0-.3.04-1.1,0-1.51-.04-.46-.25-.58-.85-.67-.18-.02-.27-.09-.27-.14,0-.07.12-.12.41-.12.37,0,.76.03,1.12.03.26,0,.74-.05,1.03-.05.19,0,.35,0,.35.11,0,.07-.21.12-.3.16-.41.16-.5.25-.5.89,0,.58.09,1.52.09,1.68,0,.18.02.32-.11.37-.12.03-.41.18-.76.28-.6.21-1.42.44-2.18.44-1.44,0-2.64-.41-3.49-1.13"/>
    <path class="cls-2" d="M91.38,22.38c.43,0,.83.05,1.15.05.46,0,.82-.05,1.15-.05.21,0,.32.03.32.11,0,.04-.14.12-.32.16-.51.11-.57.14-.57,1.47-.02.59-.04,4.45-.04,4.91,0,.53.02.89.14,1.08.16.23.39.28,1.6.28.73,0,1.08-.02,1.35-.07s.51-.25.96-.96c.09-.14.14-.19.18-.19.07,0,.11.14-.02.44-.03.12-.39.94-.44,1.01-.09.11-.18.12-.25.12-.62,0-1.21-.04-1.93-.05-.57-.02-1.86-.04-2.36-.04-.42,0-.81.05-1.01.05-.16,0-.28-.02-.28-.09,0-.09.11-.11.21-.14.69-.12.75-.32.8-.73.05-.51.05-1.29.05-3.1s.02-2.68,0-3.1c0-.62-.14-.83-.73-.92-.18-.03-.27-.07-.27-.14,0-.05.16-.11.3-.11"/>
    <path class="cls-2" d="M98.74,22.38c.39,0,.73.05,1.17.05.36,0,1.01-.05,1.26-.05.11,0,.27.03.27.11s-.11.12-.3.16c-.48.09-.6.25-.62.69-.04.67-.05,2.15-.05,3.03,0,1.91-.02,3,.02,3.37.04.44.14.6.75.71.16.05.25.09.25.16,0,.09-.16.11-.32.11-.21,0-.87-.05-1.28-.05-.36,0-.82.07-1.15.07-.14,0-.28-.03-.28-.11s.11-.12.3-.16c.51-.07.69-.3.71-1.03.02-.76.02-1.91.02-3.05,0-1.38-.02-3.09-.03-3.23-.05-.37-.34-.46-.71-.53-.12-.02-.25-.09-.25-.14,0-.09.16-.11.27-.11"/>
    <path class="cls-2" d="M105.69,29.12c.14.48.36.85.67,1.1.42.34.99.44,1.33.44,1.1,0,1.74-.71,1.74-1.63s-.53-1.44-1.72-2.15c-1.01-.6-1.93-1.33-1.93-2.5,0-.64.3-1.29.85-1.68.5-.37,1.19-.53,1.79-.53.69,0,1.28.21,1.45.28.11.03.16.11.18.18,0,.37.07.8.11.99.03.2.02.32-.05.32s-.12-.09-.18-.27c-.14-.39-.32-.67-.58-.87-.32-.27-.75-.39-1.15-.39-.66,0-1.53.37-1.53,1.56,0,.69.44,1.19.89,1.51.51.34.97.64,1.49.94.53.35,1.4.97,1.4,2.07,0,1.51-1.38,2.43-2.8,2.43-.64,0-1.42-.16-1.88-.39-.18-.05-.21-.28-.27-.5-.02-.23-.07-.51-.11-.96-.02-.16,0-.3.07-.3s.16.12.23.34"/>
    <path class="cls-2" d="M111.74,22.21c.05-.04.09,0,.16.07.05.05.25.09.44.11.19.02,1.63.05,3.09.05h2.39c.64,0,.89-.04,1.12-.12.09-.05.18-.11.21-.07.04.04.04.09.02.16-.05.11-.11.69-.09,1.3,0,.19-.04.34-.11.34-.05,0-.11-.12-.12-.21-.04-.18-.18-.67-.27-.8-.11-.14-.14-.21-.58-.21h-2.08c-.07,0-.11.16-.11.23l-.04,4.66c0,.78,0,1.72.05,2.13.05.39.25.53.71.62.2.03.3.11.3.18s-.21.11-.34.11c-.43,0-.73-.07-1.26-.07-.73,0-1.05.07-1.26.07-.25,0-.34-.05-.34-.11,0-.07.12-.12.3-.16.66-.09.74-.25.76-.92.05-1.33.09-6.37.09-6.51,0-.07-.02-.21-.09-.23h-1.12c-.58,0-1.01.02-1.19.03-.27.04-.48.21-.62.92-.04.16-.09.25-.14.25-.07,0-.11-.11-.11-.27,0-.28.14-.89.14-1.35,0-.09.02-.16.05-.19"/>
    <path class="cls-2" d="M120.66,22.38c.32,0,.82.05,1.26.05s.74-.05,1.08-.05c.14,0,.28.03.28.11,0,.11-.18.11-.28.14-.67.14-.67.53-.69,1.17-.02,1.1-.02,1.77-.02,2.57v.87c0,1.24.27,1.9.71,2.38.51.55,1.35.78,2,.78,1.77,0,2.66-.99,2.66-3.74v-1.15c0-2.41-.07-2.66-.46-2.78-.12-.04-.25-.05-.37-.09-.12-.02-.25-.09-.25-.14,0-.07.11-.11.27-.11.28,0,.55.05.97.05.28,0,.66-.03.99-.03.18,0,.32.02.32.09s-.09.12-.3.16c-.55.14-.67.37-.71.92-.05.85-.07,1.74-.07,2.62-.02,1.9-.21,3.03-1.03,3.81-.71.71-1.6.92-2.32.92-.9,0-1.65-.18-2.22-.58-.85-.64-1.19-1.49-1.19-3.37-.02-1.15,0-2.38-.04-3.48-.02-.6-.12-.73-.62-.85-.07-.02-.35-.09-.35-.16,0-.12.23-.11.37-.11"/>
    <path class="cls-2" d="M130.41,30.72c-.16,0-.32-.04-.32-.11,0-.09.12-.12.3-.16.55-.07.64-.18.69-.64.04-.3.04-.8.04-3.12s0-3.01-.02-3.24c-.02-.48-.12-.71-.69-.76-.2-.04-.28-.09-.28-.16s.14-.12.25-.12c.07,0,.69.04,1.05.04.69,0,1.35-.14,2.04-.14,1.17,0,2.16.14,3.12.67,1.15.66,2.09,1.83,2.09,3.55,0,2.61-1.92,3.79-3.69,4.2-.46.11-1.03.11-1.31.11-.34,0-.62-.03-.99-.05-.44-.02-.83-.07-1.26-.07-.39,0-.89.02-1.01.02M132.34,22.68c-.09.03-.18.18-.18.34-.04.57-.07.9-.07,3.26,0,1.35.02,2.07.07,2.77.05.87.14.99.41,1.15.28.18.99.34,1.36.34.67,0,1.19-.12,1.61-.3.89-.44,2-1.44,2-3.55,0-1.12-.27-2.29-1.22-3.09-.78-.66-1.76-1.03-3.01-1.03-.39,0-.83.05-.98.11"/>
    <path class="cls-2" d="M140.48,22.38c.39,0,.73.05,1.17.05.35,0,1.01-.05,1.26-.05.11,0,.27.03.27.11s-.11.12-.3.16c-.48.09-.6.25-.62.69-.03.67-.05,2.15-.05,3.03,0,1.91-.02,3,.02,3.37.03.44.14.6.74.71.16.05.25.09.25.16,0,.09-.16.11-.32.11-.21,0-.87-.05-1.28-.05-.35,0-.82.07-1.15.07-.14,0-.28-.03-.28-.11s.11-.12.3-.16c.51-.07.69-.3.71-1.03.02-.76.02-1.91.02-3.05,0-1.38-.02-3.09-.04-3.23-.05-.37-.34-.46-.71-.53-.12-.02-.25-.09-.25-.14,0-.09.16-.11.27-.11"/>
    <path class="cls-2" d="M71.73,37.89c.06.14.18.45.3.45.09,0,.08-.17.06-.4-.06-.38-.16-1.51-.16-1.76-.02-.16-.18-.17-.54-.17h-.11c-.34,0-.93,0-1.62.02-1.07.02-2.41.03-3.61.03-.41,0-.81-.02-1.2-.04-.39-.02-.79-.04-1.2-.04-.17,0-.27.04-.27.11,0,.1.1.14.29.19.74.16,1.09.32,1.12,1.1.04.86.04,1.78.03,3.05,0,.47,0,.99,0,1.57,0,2.18,0,4.24-.08,5.13-.08.88-.36,1.01-1.04,1.12-.4.1-.42.13-.42.19s.2.11.41.11c.03,0,.14,0,.29-.02.38-.02,1.03-.06,1.49-.06.33,0,.68.04,1.02.07.33.03.64.06.92.06.27,0,.4-.07.41-.14,0-.05-.05-.07-.29-.14h-.04c-.77-.16-1.16-.24-1.21-1.21-.05-.88-.06-3.42-.06-4.18,0-.09.09-.35.24-.35,2.98,0,3.43,0,3.79.11.3.09.55.44.65.93.11.32.18.34.19.34.03,0,.11,0,.11-.3,0-.13-.01-.32-.03-.53-.01-.23-.03-.46-.03-.63s.03-.41.05-.66c.03-.26.06-.54.06-.74,0-.17-.03-.27-.08-.27-.06,0-.08.06-.2.32-.24.61-.48.86-.9.92-.38.06-1.38.06-3.57.06-.18,0-.24-.16-.24-.27-.08-.85,0-4.74.03-5,.01-.08.1-.45.27-.45.57,0,2.9.03,3.64.05.83.03,1.12.47,1.53,1.41"/>
    <path class="cls-2" d="M74.38,48.59c.25,0,.54-.03.85-.05.31-.03.63-.05.9-.05.36,0,.86.03,1.26.05.29.02.55.03.68.03.39,0,.43-.05.43-.11,0-.07-.11-.11-.34-.19-.93-.16-1.11-.42-1.17-1.12-.04-.41-.04-1.37-.03-2.96,0-.63,0-1.35,0-2.17,0-1.28.02-3.55.08-4.62.03-.72.25-.96.99-1.1.39-.07.42-.14.42-.19,0-.05-.17-.11-.35-.11-.17,0-.47.02-.8.03-.39.02-.82.05-1.12.05-.35,0-.65-.02-.95-.04-.28-.02-.54-.04-.83-.04-.21,0-.35.05-.35.11,0,.06.14.14.33.17.56.11,1.04.24,1.12.85.03.21.06,2.74.06,4.92,0,1.71,0,3.48-.03,4.64-.03,1.11-.3,1.5-1.12,1.61-.38.07-.41.14-.41.19,0,.05.16.11.38.11"/>
    <path class="cls-2" d="M85.83,43c.13.17.33.47.58.85.67.99,1.68,2.49,2.44,3.31.91.96,1.56,1.55,2.93,1.55.49,0,.82-.05,1-.15.11-.06.14-.11.14-.15,0-.02-.03-.03-.11-.03-.56,0-1.2-.29-1.71-.77l-.12-.12c-.38-.38-.81-.8-1.39-1.58-.82-1.09-1.88-2.6-2.38-3.51-.07-.13-.1-.23-.07-.31.03-.07.1-.1.15-.12,2.11-.67,2.42-2.15,2.42-2.97,0-.93-.46-1.76-1.27-2.28-.76-.52-1.63-.75-2.91-.75-.47,0-.94.03-1.4.05-.46.03-.93.05-1.41.05-.45,0-.81-.03-1.1-.05-.18-.01-.33-.03-.44-.03-.18,0-.35.05-.35.11,0,.09.14.14.36.17.89.14,1.07.49,1.1,1.07.03.54.03,1.58.03,4.37s0,4.29-.08,5.43c-.06.74-.28.99-1.07,1.13-.39.07-.42.12-.42.19,0,.05.1.11.41.11.17,0,.34-.01.54-.03.28-.02.59-.05,1.03-.05s.87.03,1.26.05c.31.02.57.03.77.03.25,0,.43-.06.43-.14,0-.07-.17-.13-.39-.16-.66-.12-.96-.37-.99-.8-.03-.18-.11-.65-.11-2.05v-2.51c0-.21.09-.43.24-.43.31,0,.78.03.98.05.3.06.7.23.92.48M83.92,42.14h0c-.18,0-.24-.16-.24-.46,0-.24.05-4.31.08-4.64.02-.32.09-.53.19-.58.23-.12.87-.17,1.07-.17,1.01,0,1.87.36,2.49,1.04.49.58.74,1.27.74,2.06,0,1.34-.85,2.02-1.21,2.26-.38.22-1.02.49-1.94.52h-.04c-.41,0-.84,0-1.15-.03"/>
    <path class="cls-2" d="M94.79,48.54c.39-.02.92-.06,1.36-.06.93,0,1.9.02,2.93.04,1.11.02,2.24.04,3.43.04.26,0,.33-.15.36-.25.06-.28.38-1.41.46-1.63.1-.28.1-.44.07-.49,0,0-.01-.01-.02-.01-.06,0-.12.07-.25.32-.36.63-.68,1.06-.93,1.28-.35.26-.56.36-2.52.36-1.1,0-1.89-.05-2.19-.08-.5-.06-.53-.44-.59-1.21-.03-.44-.11-3.71-.08-4.35,0-.21.12-.32.21-.32,2.8,0,3.52.05,3.87.14.31.05.46.41.58.73.02.04.03.08.05.11v.02c.12.27.18.41.25.41.06,0,.08-.17.06-.35-.03-.16-.03-.9,0-1.22.01-.14.04-.37.07-.61.03-.27.07-.55.07-.6,0-.27-.01-.33-.06-.33-.05,0-.11.03-.19.29-.23.57-.4.73-.54.81-.3.15-.88.22-1.78.22h-2.32c-.14,0-.21-.13-.21-.27-.02-.42-.01-2.07,0-3.4,0-.56,0-1.05,0-1.38,0-.24.08-.35.27-.35,3.47,0,3.64.03,3.97.08h.03c.39.07.75.49,1.12,1.33.11.27.15.29.2.29.02,0,.02,0,.04-.02.04-.05.06-.17.04-.3-.03-.24-.08-.69-.11-1.06-.02-.22-.04-.4-.05-.48-.03-.15-.11-.28-.16-.28-.08,0-.18,0-.33,0-.31,0-.79.02-1.32.02-.4,0-1.16.01-1.96.02-.96.02-1.95.03-2.57.03-.25,0-.56-.02-.87-.04-.31-.02-.64-.04-.91-.04-.14,0-.27.07-.27.14s.09.11.34.16c.77.17,1.09.42,1.09,1.51v3.59c0,2.06,0,4.4-.08,5.7-.06.86-.42,1.07-1.15,1.21-.23.03-.39.05-.39.17,0,.11.29.11.49.11.09,0,.27-.01.5-.02"/>
    <path class="cls-2" d="M118.39,36.32c.25-.06.42-.16.42-.22,0-.1-.24-.11-.38-.11-.23,0-.46.02-.69.04-.26.02-.52.04-.82.04-.26,0-.59-.02-.91-.05-.28-.02-.54-.04-.71-.04-.26,0-.41.04-.41.11,0,.06.15.16.39.19,1.01.19,1.39.37,1.42,1.59.03,1.58.03,6.55.03,8.04,0,.06-.02.13-.08.16-.03.01-.08.02-.14-.04-1.81-2.02-6.91-7.85-8.2-9.53-.28-.36-.4-.44-.44-.44-.58,0-1.12-.04-1.55-.07-.31-.02-.58-.04-.8-.04-.28,0-.38.06-.38.11,0,.07.09.11.42.16h.07c.37.09.69.15.98.39.24.21.34.47.34,1.52,0,1.24-.13,7.31-.19,8.26-.11,1.29-.29,1.71-1.26,1.88-.27.03-.44.08-.44.17,0,.14.3.14.46.14.06,0,.19-.01.35-.03.3-.03.71-.08,1.11-.08.38,0,.77.04,1.12.07.25.02.46.04.61.04.39,0,.43-.06.43-.11,0-.09-.13-.14-.44-.19-1.15-.22-1.36-.59-1.36-2.32v-8.2s.02-.08.06-.09c.02,0,.04-.01.05-.01.06,0,.12.03.16.07,2.77,3.17,8.37,9.92,8.77,10.42.48.59.59.65.66.65.03,0,.05-.01.07-.03.06-.07.09-.25.07-.54-.03-.64-.03-1.21-.01-1.99,0-.49.01-1.03.01-1.73,0-1.94.06-6.12.14-6.96.05-.48.22-1,1.09-1.23"/>
    <path class="cls-2" d="M120.83,48.57c.06,0,.32-.01.65-.02.62-.02,1.55-.06,1.99-.06.6,0,3.16.03,5.03.06,1.1.01,1.98.02,2.1.02.33,0,.76-.03.79-.25.06-.53.38-1.87.43-2.03.06-.17.19-.59.07-.61-.09,0-.21.13-.32.35-.35.78-.59,1.21-.82,1.47-.33.36-.67.42-1.28.53h-.01c-.51.09-5.78.09-6.38.06-.06,0-.21-.03-.26-.12-.02-.03-.03-.08,0-.15,1.51-2.28,5.14-7.53,6.37-9.23.1-.13.26-.34.44-.59.44-.6,1.05-1.42,1.38-1.79.06-.07.07-.13.06-.16-.01-.02-.05-.03-.07-.03-.14.02-.62.05-1.81.05-2.03,0-3.51,0-4.57,0-1.44,0-2.09,0-2.34,0h0c-.42-.03-.69-.1-.88-.16-.12-.04-.16,0-.18.06-.03.07-.08.21-.15.38-.17.45-.44,1.12-.63,1.59-.15.4-.13.58-.05.58.07,0,.14-.13.23-.27.42-.69.69-.99,1.03-1.33.29-.29.63-.33.85-.36h.04c.77-.06,5.26-.06,6.21-.03.07,0,.15,0,.18.07.04.06,0,.13-.07.23-.01.02-.03.05-.05.08-1.98,2.92-6.23,8.98-8.12,11.47-.05.06-.06.11-.05.14.02.04.09.07.2.07"/>
    <path class="cls-2" d="M134.02,48.57c.09,0,.27-.01.5-.02.39-.02.92-.06,1.36-.06.93,0,1.9.02,2.93.04,1.11.02,2.27.04,3.46.04.14,0,.31-.15.33-.26.05-.28.38-1.42.46-1.63.1-.28.17-.48.05-.5-.03,0-.12.07-.25.32-.36.63-.68,1.06-.93,1.28-.35.26-.56.36-2.52.36-1.1,0-1.89-.05-2.19-.08-.5-.06-.53-.44-.59-1.21-.03-.44-.11-3.71-.08-4.35,0-.21.12-.32.21-.32,2.79,0,3.52.05,3.87.14.31.05.46.41.58.73.02.04.03.08.05.11v.02c.12.27.18.41.25.41.07,0,.08-.17.06-.35-.03-.16-.03-.9,0-1.23.01-.13.04-.37.07-.6.03-.27.07-.56.07-.61,0-.27.03-.33-.06-.33-.06,0-.13.11-.19.29-.23.57-.4.73-.54.81-.3.15-.88.22-1.78.22h-2.32c-.14,0-.21-.13-.21-.27-.02-.42-.01-2.07,0-3.4,0-.56,0-1.05,0-1.38,0-.24.08-.35.27-.35,3.47,0,3.64.03,3.97.08h.03c.39.07.75.49,1.12,1.33.11.26.15.29.2.29.11,0,.1-.19.08-.32-.03-.24-.08-.69-.11-1.06-.02-.22-.04-.4-.05-.48-.03-.15-.05-.28-.16-.28-.06,0-.18,0-.33,0-.32,0-.79.02-1.32.02-.4,0-1.16.01-1.96.02-.96.01-1.95.03-2.57.03-.25,0-.55-.02-.87-.04-.31-.02-.64-.04-.91-.04-.14,0-.27.07-.27.14,0,.09.09.11.34.16.77.17,1.09.42,1.09,1.51v3.59c0,2.06,0,4.4-.08,5.69-.06.86-.42,1.07-1.15,1.21-.23.03-.39.06-.39.17s.29.11.49.11"/>
    <path class="cls-2" d="M28.87,11.96c.06-.28.03-.5.02-.56,0-.79.4-1.36.41-1.37,0,0,.01-.02.02-.03.61-1.36.05-2.42-.12-2.7l1.22-3h0s0-.02,0-.02c0-.01,0-.02,0-.03,0,0,0-.01,0-.02,0-.01,0-.02,0-.03-.03-.07-.71-1.79-4.57-1.95-.11,0-2.59-.12-4.39,1.17,0,0,0,0,0,0,0,0,0,0,0,0-.01.01-.03.02-.04.04h0s-.01.03-.01.04c-.01.03-.01.07,0,.1.03.26.24.97.89,3.07-.07.17-.26.74-.17,1.44,0,0,.06.4.01.65-.01.05-.3,1.07.07,3.02-1.09.17-2.14.45-3.16.81l-1.17-.52h0s-.05-.02-.07-.02c0,0,0,0,0,0-.02,0-.05,0-.06.02-.01,0-.01.02-.02.02,0,0-.02.02-.03.03h0s-.86,1.4-.86,1.4c0,.01-.01.03-.02.04-5.76,3-9.71,9.02-9.71,15.95,0,5.4,2.4,10.25,6.19,13.55.1.09.2.18.31.27,2.57,2.14,5.75,3.57,9.24,4.01.13.02.26.04.39.05.19.02.38.03.57.04.11,0,.21.02.32.02.32.02.64.03.97.03s.67-.01,1.01-.03c.1,0,.21-.02.31-.02.22-.02.43-.03.64-.06.1-.01.21-.03.31-.04,1.11-.14,2.19-.38,3.24-.72.1-.03.21-.07.31-.1.6-.21,1.2-.44,1.77-.71.1-.05.21-.1.31-.15.31-.15.62-.32.93-.49.1-.06.21-.12.31-.18,1.61-.95,3.06-2.15,4.3-3.54.1-.12.21-.24.31-.36,2.64-3.13,4.24-7.17,4.24-11.58,0-8.6-6.07-15.8-14.14-17.56M29.2,8.46s.03-.05.05-.07c.06.4.04.91-.22,1.49-.07.1-.46.71-.45,1.55,0,.01,0,.02,0,.03,0,.01.04.2-.02.45-.02.09-.05.19-.11.29-.03.06-.07.12-.12.19-.04.06-.04.14.01.2.16.18.58.71.55,1.05,0,.04-.01.07-.02.1-.7-.65-.83-1.31-.84-1.6,0-.06,0-.11,0-.13.02-.06.04-.12.06-.17.07-.17.14-.28.15-.29.17-.35.19-.72.16-1.04.08,0,.15-.03.19-.06.22-.15.22-.49.21-.53-.01-.26.14-.42.15-.43,0,0,.01-.02.02-.02.32-.48.28-.82.22-.98M30.96,15.13l1.65.5s2.27.54,3.08,2.99l2.48,7.63s1.01,3.05,1.38,5.75c-.81-1.54-2.2-2.02-2.22-2.02-2.37-.74-3.91-.17-4.89.7.6-1.35,1.91-3,4.7-2.52.08.01.16-.04.18-.13.01-.08-.04-.16-.13-.18-1.93-.33-3.2.29-4.03,1.15.23-.48.47-.96.67-1.39.02-.04.02-.08,0-.12-.01-.04-.04-.07-.08-.09l-1.53-.72c.14-.5.86-2.52,3.44-3.26.08-.02.13-.11.11-.19-.02-.08-.11-.13-.19-.11-2.64.76-3.44,2.8-3.63,3.43l-.17-.08v-7.33c0-.08-.07-.15-.15-.15s-.15.07-.15.15v7.19l-2.98-1.41h0s-.48-.21-.99.42v-5.81c0-.08-.07-.15-.15-.15s-.15.07-.15.15v6.3l-1.58,3.22v-11.29h.87c.4,0,.78-.14,1.08-.4l2.76-2.44c.2.08.42.15.65.22M36.66,31.18c-1.12-.69-2.59-.67-4.38.05.89-.99,2.41-1.75,4.94-.96.02,0,2.35.8,2.57,3.82,0,.02.37,1.8-1.02,3.43v-2.01c0-.13-.13-3.1-2.11-4.32M32.67,35.17l-1.84,2.1s-.09.11-.23.24h0c-.2.19-.52.41-.82.42.26-.15.49-.33.65-.49.06-.06.06-.16,0-.22-.06-.06-.16-.06-.22,0-.01.01-1.1,1.05-1.94.68.77-.2,1.43-.78,1.47-.81.06-.06.07-.15.01-.22-.06-.06-.15-.07-.22-.01,0,0-.98.85-1.84.8-.1,0-.19-.03-.27-.06.52-.06,1.11-.39,1.76-1,.06-.06.07-.15,0-.22-.06-.06-.16-.07-.22,0-.8.74-1.48,1.04-2,.89-.34-.1-.56-.39-.69-.62l.4.2s.04.01.06.01c0,0,0,0,.01,0,.02,0,.03,0,.05,0h0s.42-.17.84-.48c0,0,.01,0,.02-.01.12-.09.24-.19.35-.3l1.19-1.55s.04-.1.02-.16c-.02-.05-.07-.09-.13-.09l-1.02-.08s-.07,0-.09.02c-.5.32-.84.24-1.02.15l.91-.54s1.72-.84,2.72-.31c.1.05.18-.02.23-.07.17-.15.68-.61,1.45-.22,0,0,.56.33.68.89.07.34-.03.7-.28,1.06M13.55,36.14s0,0,0,0c0,0,0,0,0,0-1.63-2.96-1.74-6.59,2.37-17.31.48-1.47,1.47-2.24,2.2-2.64l1.68,6.38-.39.39c-.5.68-.34,1.17-.21,1.56l.03.11c.21.68-.09,2.1-.31,2.56-.22.43-.52,1.07-.61,1.28l-.02.04c-.35.75.06,1.28.47,1.61.46.31.92.51,1.38.64,0,0,.01,0,.02,0,.7.2,1.4.23,2.07.23l.56,2.13c-.66.78-2.74,1.54-4.77,1.05-.68-.17-1.29-.59-1.69-1.16-.55-.8-.59-1.81-.54-2.52.05-.61.18-1.22.31-1.82.06-.28.12-.57.18-.85.05-.24.1-.6.08-.94,0-.08-.08-.15-.16-.15-.08,0-.15.08-.15.16.02.31-.04.64-.08.87-.05.28-.11.56-.18.84-.13.6-.27,1.23-.32,1.86-.09,1.09.11,2.03.59,2.72.44.64,1.12,1.11,1.87,1.29.48.12.96.17,1.42.17,1.53,0,2.87-.57,3.51-1.17l.19.73-.2.41h0c-.06.1-.07.18-.07.2,0,.06.03.11.09.14l1.95.97c-1.1-.07-1.71.38-1.74.4-4.1,2.39-6.59,2.03-7.96,1.31-1.13-.59-1.58-1.48-1.59-1.49M18.3,15.65c.18-.05.35-.13.5-.24.02,0,.04,0,.06,0,.17,0,.35-.04.51-.1l.02.07.08.3,1.58,6.05c-.29-.02-.57.16-.7.29l-.29.29-1.65-6.27-.08-.31-.02-.09ZM18.62,15.08c-.08-.02-.16-.05-.24-.09-.1-.05-.2-.12-.28-.2-.06-.06-.12-.12-.16-.2-.14-.22-.19-.47-.15-.73l.05-.47.03-.35.05-.47.28.33.21.25.31.37s0,0,0,0c.18.18.29.41.31.66.01.13,0,.26-.03.39-.03.1-.07.2-.13.29-.02.04-.05.08-.08.12-.03.04-.07.07-.1.1-.03,0-.06,0-.08-.01M21.1,15.17s.01.03.02.04l1.47,1.93s.02.03.03.04c.31.37.77.58,1.25.58h1.41v11.92l-.98,2.01-.6-2.13v-11.08c0-.08-.07-.15-.15-.15s-.15.07-.15.15v9.98l-.61-2.18c.16-.12.33-.33.25-.62,0,0,0-.02-.01-.03l-.14-.27c.09-.07.21-.18.25-.34.03-.1.03-.27-.12-.46l-.27-.31c.09-.11.19-.29.18-.51-.01-.19-.11-.35-.3-.49l-.42-.24c-.04-.33-.21-.56-.23-.59l-.56-.53-1.64-6.3.88-.27c.16-.05.31-.1.46-.16M27.45,25.96s.01-.02.02-.04c.26-.49.51-.68.69-.72l-4.55,8.99c-.08.02-.16.04-.23.07l1.01-2.07,3.05-6.23ZM26.76,36.53l-3.61-1.79c.06-.07.21-.18.55-.26l3.57,1.76c-.22.14-.42.24-.51.28M21.61,27.39c-.01-.09-.04-.17-.07-.25-.05-.18-.14-.7.01-.97.05-.08.12-.14.22-.17,0,0,.27-.09.47,0,.1.05.16.13.21.26l1.64,5.84-.82,1.68-1.67-6.39ZM18.94,29.87c-.69-.54-.45-1.06-.36-1.24v-.03c.27-.56.48-.99.62-1.27.25-.51.57-2.03.33-2.79l-.04-.11c-.12-.38-.24-.73.15-1.26l.25-.25.25-.25.42-.41s.33-.32.58-.17c0,0,.02,0,.03.01l.41.39.17.16s.05.06.09.17l-.16-.09s-.02-.01-.03-.02c-.08-.05-.21-.1-.35-.1-.12,0-.25.03-.37.13l-.59.54-.18.17s-.05.08-.05.13l.02.06s.01.02.02.03c.06.06.15.07.22,0l.08-.07.68-.63c.09-.07.19-.06.27-.04.06.02.1.04.11.05l.28.16.21.12s0,0,0,0l.45.26c.1.08.16.16.16.25,0,.09-.04.18-.08.25l-.21-.24c-.07-.06-.21-.14-.38-.16-.09-.01-.2,0-.31.03-.07.02-.13.05-.2.09l-.62.35c-.07.04-.1.14-.06.21.04.07.14.1.21.06l.62-.36c.05-.03.1-.05.14-.06.15-.05.27-.02.33.01.03.01.05.03.05.03l.32.36h0s.35.4.35.4c.08.1.06.17.06.19-.01.05-.05.1-.09.14l-.06-.11s-.01-.02-.02-.03c0-.01-.15-.17-.38-.24-.1-.03-.21-.04-.33-.01-.02,0-.05,0-.07.01l-.71.14c-.08.02-.14.1-.12.18.02.08.1.14.18.12l.72-.15s.06-.02.09-.02c.19-.02.33.11.36.15l.02.03.3.6c.02.08-.01.14-.05.19,0,0-.01.02-.02.02-.07-.11-.17-.2-.28-.25-.04-.02-.07-.03-.11-.04-.29-.08-.59.02-.59.02-.18.05-.31.15-.4.31-.02.03-.03.06-.04.09-.18.45,0,1.09,0,1.13.01.03.01.06.02.08.28,1.01-.86,2.73-1.14,3.12-.4-.12-.8-.3-1.19-.57M21.54,28.32l.62,2.36c-.57,0-1.14-.03-1.7-.16.27-.39.86-1.31,1.09-2.2M15,37.91s.09.05.14.07l2.1,5s.56,1.4,1.83,1.4c.21,0,.44-.04.69-.12.04-.02.78-.29,1.16-1.34-.19,1.7-1.22,2.18-1.28,2.21-.43.23-.86.26-1.28.11-1.19-.44-1.94-2.25-1.94-2.28l-2.42-5.76c.26.24.59.5,1.01.72M20.97,40.9s0,0,0,0h0s0,0,0,0,0,0,0,0c0,0-.01,0-.02,0,0,0-.01,0-.02,0,0,0,0,0,0,0,0,0-.02.01-.02.02,0,0-.01,0-.02.01h0s0,0,0,0c0,0-.01.02-.01.02,0,0,0,.01-.01.02,0,0,0,0,0,0,0,0,0,.02,0,.03,0,0,0,.01,0,.02.15,2.39-1.12,2.87-1.18,2.89-1.48.52-2.1-1.03-2.13-1.1l-1.98-4.71c1.51.57,3.98.61,7.73-1.57.04-.03.96-.68,2.58-.13-.23.53-1.94,4.33-4.88,4.46M30.99,32.85s0,0,0,0c-.01.04-.03.07-.04.1h0c-.1.07-.21.14-.31.23-1.14-.52-2.84.31-2.92.35l-1.11.66s-.07.06-.07.1c0,.05,0,.09.03.12,0,0,.54.65,1.53.06l.69.05-1,1.31c-.07.07-.15.14-.23.2l-3.63-1.79,4.55-9,5,2.36c-1.51,3.1-1.87,3.89-1.95,4.13-.26.42-.43.82-.53,1.1M27.34,17.12c-.24.21-.55.33-.87.33h-2.59c-.39,0-.76-.17-1.01-.47l-1.48-1.94c.16-.08.31-.16.45-.25l1.4,1.88c.16.19.4.3.65.3h2.59c.21,0,.41-.08.56-.21l2.52-2.2c.14.08.28.15.44.22l-2.65,2.34ZM26.82,16.53c-.1.09-.23.13-.36.13h-2.59c-.16,0-.31-.07-.41-.18l-1.38-1.86c.13-.09.25-.17.35-.25.06.12.13.24.22.37.01.02.03.03.05.04.07.47.32.97.93,1.38.03.08.06.13.06.14.02.04.07.07.12.08,0,0,0,0,.01,0,.05,0,.09-.02.12-.06.01-.01.24-.29.67-.3.04,0,1.01.02,1.57-.77.15-.03.49-.15.71-.49.08-.12.12-.26.15-.41.49-.17.8-.44.93-.82.04-.13.06-.26.06-.38.22.4.59.84,1.22,1.24l-2.45,2.13ZM29.17,6.53l-.24.6c-1.82-.63-3.41-.79-4.56-.79-.9,0-1.54.1-1.81.15-.06-.2-.13-.42-.2-.64.67-.19,3.67-.89,6.81.68M23.29,5.09c-.61-.6-.45-1.25-.32-1.55.64.66.45,1.27.32,1.55M23.7,4.22l.77-.99.84,1c-.02.3.05.64.27,1.02-.79-.05-1.5-.01-2.06.06.1-.18.29-.59.19-1.09M28.04,5.73c-.73-.24-1.43-.38-2.09-.45.16-.15.43-.47.49-.94l1.11-.71.58,1.03c-.13.28-.18.63-.09,1.07M25.79,5.01c-.4-.75-.05-1.32.17-1.57.41.82.05,1.35-.17,1.57M29,4.15c.12.91-.4,1.29-.68,1.43-.13-.84.39-1.26.68-1.43M28.69,8.5c-.3.22-.38.63-.38.66-.02.23-.09.36-.15.42-.03-.07-.06-.11-.06-.12-.36-.63-.36-1.09-.35-1.24,0-.03,0-.05,0-.06,0,0,0-.02,0-.03.04-.48,0-.84-.06-1.06.4.1.81.22,1.23.37.02.04.07.11.11.2.14.5-.08.65-.34.85M28.94,8.7c0,.12-.03.31-.2.56-.05.06-.24.29-.23.64,0,.09-.02.23-.08.27-.02.01-.04.01-.07,0-.03-.1-.05-.2-.09-.29.13-.08.29-.27.33-.68,0,0,.06-.31.28-.47.02-.01.03-.03.05-.04M24.33,10.25s-.16.04-.22.03c-.07,0-.53,0-.61,0-.09,0-.12-.04-.13-.05-.04-.06-.03-.19-.01-.25l.33-1.64s0-.04,0-.05c-.1-.65-.8-.83-1.27-.84.03-.31.1-.54.15-.65.39-.08,2.26-.38,4.78.19.1.29.38,1.52-.7,3.76-.01.02-.21.38-.35.84-.02.07-.04.14-.05.21-.08-.12-.17-.19-.22-.23-.03-.02-.06-.04-.06-.04-.17-.12-.32-.38-.37-.47-.33-.76-.71-.95-.93-.99,0-.03,0-.06,0-.09-.01-.08-.09-.14-.18-.13-.08.01-.14.09-.13.18.02.1,0,.17-.02.2M22.44,8.17c0-.06-.01-.11-.01-.11-.01-.1-.02-.2-.02-.3.27,0,.88.07.98.55l-.02.09c-.14-.11-.44-.29-.92-.24M23.09,8.59c-.2.15-.43.22-.65.2.02-.1.02-.21.02-.32.31-.04.51.04.63.12M22.38,9.1s.08,0,.12,0c.27,0,.54-.1.78-.28l-.22,1.09s-.06.23.01.41c-.17.12-.37.42-.47,1.11-.01.06-.05.17-.09.29-.25-1.33-.19-2.22-.13-2.63M22.56,12.27s0-.01.01-.02h0c.05-.07.1-.15.14-.23.06-.11.1-.23.13-.33.04-.11.05-.19.06-.2.1-.69.3-.91.39-.94.05.02.12.04.19.04.21,0,.56,0,.61,0,.02,0,.05,0,.09,0,.1,0,.26-.02.37-.14.02-.02.03-.05.05-.07.13.03.43.16.71.82,0,.01.1.18.24.36.07.09.16.17.25.24,0,0,.04.03.1.08.1.1.24.29.27.64,0,.01,0,.02.01.03,0,0,0,.01,0,.02,0,.01.01.02.02.03,0,0,0,0,.01.01,0,0,.02.01.03.02,0,0,0,0,.01,0,.02,0,.04.01.06.01,0,0,0,0,.01,0h0s.02,0,.03,0c0,0,.02,0,.03,0,0,0,.02-.01.02-.02,0,0,.02-.01.02-.02,0,0,0-.01.01-.02,0,0,.01-.02.01-.03,0,0,0-.02,0-.03,0,0,0-.02,0-.03-.02-.18,0-.38.05-.57.02-.1.05-.2.08-.3.13-.4.3-.71.31-.72.33-.69.54-1.28.67-1.8.06.16.13.33.24.51,0,.01.54.96.17,1.75,0,.01-.11.16-.19.39-.03.09-.07.19-.09.29-.03-.05-.05-.08-.06-.09-.05-.07-.15-.08-.22-.04-.03.02-.05.05-.06.09-.01.04,0,.09.02.13,0,0,.5.72.3,1.3-.08.25-.29.44-.61.58,0-.24-.06-.51-.16-.81-.03-.08-.12-.12-.2-.1-.08.03-.12.12-.1.2.19.56.2,1,.02,1.29-.19.31-.56.36-.56.36-.05,0-.09.03-.11.07-.46.7-1.33.69-1.35.69-.33,0-.57.13-.73.24-.09-.3-.19-.94.15-1.79.03-.08,0-.17-.08-.2-.08-.03-.17,0-.2.08-.27.67-.29,1.23-.24,1.62-.95-.88-.37-2.07-.34-2.13.04-.08,0-.17-.07-.21-.08-.04-.17,0-.21.07,0,0-.16.33-.21.78,0,0,0-.01,0-.02-.03-.06-.05-.12-.06-.18-.14-.57.15-.99.17-1.01.05-.07.03-.17-.04-.22-.07-.05-.16-.03-.22.03,0,0-.07.1-.14.26-.1-.48.13-.76.14-.78M29.29,6.25c-.29-.14-.58-.27-.86-.38.25-.12.69-.41.84-1.01l.71-.32-.69,1.7ZM25.83,2.55c3.02.13,3.98,1.25,4.22,1.62l-.73.33c0-.18,0-.38-.05-.61-.01-.04-.04-.08-.08-.1-.04-.02-.09-.03-.13,0,0,0-.44.17-.75.57l-.57-1.02s-.06-.06-.1-.07c-.04,0-.09,0-.12.02l-1.08.69c-.03-.26-.12-.55-.32-.87-.02-.04-.06-.06-.11-.07-.04,0-.09,0-.12.03,0,0-.35.3-.51.78l-.8-.96s-.07-.06-.12-.05c-.05,0-.09.02-.12.06l-.76.98c-.11-.23-.28-.47-.55-.7-.03-.03-.08-.04-.12-.04-.04,0-.08.03-.11.07,0,0-.22.35-.25.82l-.74-.48c1.69-1.09,3.98-.99,4.01-.99M22.27,5.57c-.19-.65-.39-1.3-.5-1.69l.8.52c.06.31.22.65.57.97-.39.07-.69.14-.88.19M22.26,12.08s0,.03.01.05c-.12.18-.38.7.01,1.47,0,.15,0,.31.05.47-.44.33-1.04.76-1.78.97l-.87.26-.03-.13c.29-.2.49-.49.57-.83.08-.36.02-.74-.18-1.05-.14-.23-.35-.4-.59-.52.91-.3,1.84-.54,2.8-.69M18.63,12.74l.4.18.17.08s0,0,.01,0c.24.08.44.24.57.45.15.25.2.54.14.82-.06.27-.23.51-.46.66,0,0-.01,0-.02.01-.09.06-.2.1-.3.13h-.02s0,0,0,0c.06-.09.11-.18.14-.28.07-.2.1-.41.08-.62-.03-.32-.17-.61-.4-.84l-.24-.29-.21-.25-.15-.17.27.12ZM17.58,12.86l-.03.33-.04.35-.03.28c-.04.32.03.65.2.93.09.15.22.28.36.38.09.06.18.12.28.16,0,0,.02,0,.03,0-.01,0-.02,0-.03.01-.08.03-.16.05-.24.06-.03,0-.05,0-.08,0-.26,0-.51-.07-.72-.24-.23-.18-.37-.44-.4-.73-.02-.21.02-.43.12-.62.02-.04.04-.07.06-.11l.24-.39.27-.44ZM7.38,29.52c0-6.68,3.73-12.51,9.22-15.51-.03.15-.04.29-.03.44.04.37.22.7.51.94.25.2.56.31.88.31.01,0,.02,0,.03,0l.05.18c-.78.4-1.88,1.23-2.41,2.85-4.13,10.79-4.03,14.5-2.37,17.53v6.41c-3.61-3.24-5.88-7.93-5.88-13.14M13.57,42.93v-5.95l2.55,6.09c.03.08.8,1.96,2.12,2.45.21.08.41.11.62.11.3,0,.6-.08.9-.23.06-.03,1.17-.52,1.44-2.25.26,1.11.7,2.52,1.42,3.87-3.43-.47-6.54-1.93-9.05-4.08M23,47.06c-1.12-2.01-1.59-4.23-1.77-5.33-.02-.17-.04-.35-.07-.53,1.33-.12,2.61-.95,3.7-2.41.59-.78.98-1.55,1.17-1.97.14.25.37.54.72.69.08.09.17.16.26.22l-3.15,9.41c-.29-.02-.58-.05-.86-.08M25.04,47.18c-.29,0-.58,0-.87-.02l1.88-5.6v5.59c-.33.02-.67.03-1.01.03M26.36,47.13v-6.49l.64-1.92v8.35c-.21.02-.43.04-.64.06M27.31,47.03v-9.15c.12.04.24.07.37.08.03,0,.07,0,.1,0,.01,0,.02,0,.04,0,.25.23.54.32.84.32.24,0,.48-.06.71-.16.13.07.27.11.4.11.28,0,.55-.14.78-.3v8.35c-1.04.34-2.12.59-3.24.73M30.86,46.19v-8.5c.12-.11.19-.2.2-.22l1.56-1.79v9.78c-.57.27-1.16.51-1.77.73M32.94,45.31v-9.99c.3-.43.4-.86.31-1.27-.15-.69-.8-1.08-.83-1.1-.14-.07-.28-.12-.42-.15.35-.04.65.01.9.18,1.02.68.96,2.87.95,2.89v8.94c-.3.18-.61.34-.93.5M34.17,44.64v-8.76c0-.1.07-2.39-1.09-3.16-.44-.3-1.01-.33-1.66-.09.1-.22.22-.47.37-.72,0,0,0,0,0,0,.03-.06.07-.12.11-.17,1.93-.89,3.47-.98,4.6-.29,1.85,1.13,1.97,4.04,1.97,4.07v5.47c-1.23,1.43-2.67,2.67-4.3,3.65M38.77,37.97c1.76-1.8,1.34-3.86,1.32-3.92-.02-.33-.07-.62-.14-.9,0,0,0,0,0-.01-.16-2.95-1.49-6.95-1.5-6.99l-2.48-7.62c-.87-2.63-3.21-3.18-3.3-3.19l-1.64-.5c-.25-.07-.48-.15-.7-.24,0,0-.01,0-.02,0-.5-.2-.89-.43-1.2-.67.06-.08.09-.18.1-.28.03-.44-.37-.96-.55-1.18.04-.07.08-.14.11-.2,7.95,1.72,13.93,8.8,13.93,17.26,0,4.2-1.48,8.06-3.93,11.09v-2.64Z"/>
    <path class="cls-2" d="M23.1,11.53c.08.04.17,0,.21-.07.02-.04.06-.12.31-.05.23.07.73.01.77,0,.03,0,.19,0,.25.14,0,.02.01.04.02.06,0,0,.02.11.07.25.08.25.26.64.59.94.03.03.76.78.35,1.71-.03.08,0,.17.08.2.02,0,.04.01.06.01.06,0,.12-.03.14-.09.49-1.13-.38-2.02-.43-2.06-.25-.22-.39-.51-.48-.73-.06-.17-.09-.29-.09-.3,0,0,0,0,0-.01-.08-.36-.41-.45-.59-.44-.19.02-.53.04-.66,0-.42-.12-.6.05-.67.21-.04.08,0,.17.07.21"/>
    <path class="cls-2" d="M24.44,11.66s-.12,0-.25.02c-.5.03-.84-.04-.84-.05-.01,0-.03,0-.04,0,0,0-.02,0-.02,0-.06.01-.1.06-.12.12-.02.08.03.17.12.18,0,0,.02,0,.03,0,.06.01.21.03.41.05-.04.09-.06.22-.02.39.02.07.08.12.15.12.01,0,.02,0,.04,0,.08-.02.13-.1.11-.19-.03-.14,0-.2.02-.22.04-.05.12-.08.2-.1.07,0,.14-.01.22-.02.06,0,.11-.05.13-.1,0-.02.01-.04.01-.06,0-.08-.07-.15-.15-.15"/>
    <path class="cls-2" d="M24.21,12.95c-.31-.02-.42-.09-.43-.1-.06-.06-.15-.06-.21,0-.06.06-.07.15-.01.22.03.04.19.18.64.2h0c.08,0,.15-.06.15-.15,0-.08-.06-.16-.15-.16"/>
    <path class="cls-2" d="M26.58,8.16c.07.04.17.02.21-.05.05-.07.02-.17-.05-.21-1.49-.92-2.53.11-2.54.12-.06.06-.06.16,0,.22.03.03.07.04.11.04s.08-.02.11-.05c0,0,.87-.87,2.16-.07"/>
    <path class="cls-2" d="M24.59,8.48s-.05.07-.05.11c0,.04.02.08.05.11.34.31.66.41.94.41.49,0,.83-.31.84-.32.03-.03.05-.07.05-.11,0-.04-.02-.08-.05-.11-.96-.88-1.77-.1-1.78-.09M24.95,8.59c.2-.12.59-.26,1.06.08-.2.12-.6.25-1.06-.08"/>
    <path class="cls-2" d="M34.65,6.32s.03.07.02.09c-.07.18-.12.38-.14.45-.02.09-.06.13-.08.12-.03-.01-.03-.05-.02-.13.01-.19,0-.35-.11-.48-.1-.17-.3-.31-.47-.37-.31-.11-.87-.02-1.08.53-.14.36,0,.69.19.94.19.26.34.5.5.73.19.27.45.71.24,1.29-.27.74-1.13.92-1.82.67-.29-.11-.67-.33-.83-.52-.06-.07-.07-.12-.05-.22.03-.11.05-.35.11-.51.02-.08.05-.12.08-.11.03,0,.03.06.02.16-.06.54.28.93.71,1.08.53.19,1.03-.1,1.19-.54.16-.45-.06-.82-.42-1.31-.38-.53-.66-1.04-.45-1.61.13-.36.4-.59.74-.7.23-.07.57-.09.95.05.31.11.6.32.7.39"/>
    <path class="cls-2" d="M34.62,11.12c.32.13.41.05.59-.22.38-.57,1.78-3,1.82-3.1.03-.06.02-.09,0-.1-.03-.03-.17-.12-.45-.28-.25-.14-.41-.22-.54-.27-.13-.05-.25-.02-.47.17-.07.06-.12.07-.15.06-.03-.01,0-.06.03-.1.14-.17.29-.32.38-.47.04-.05.06-.08.09-.08.02,0,.03.02.03.06,0,.04.08.12.16.17.1.06.7.42,1.33.78.47.27,1.05.6,1.23.69.15.08.25.12.37.13.03,0,.06,0,.06.02,0,.02,0,.04-.04.08-.06.06-.17.25-.29.46-.05.09-.1.12-.13.11-.02-.01,0-.08,0-.11.04-.12.07-.28.05-.35-.03-.08-.09-.15-.52-.4-.19-.11-.5-.28-.6-.33-.03-.01-.07.03-.09.08-.13.23-.96,1.65-1.11,1.91-.2.34-.62,1.11-.71,1.32-.09.22-.06.3.12.48.06.06.09.09.07.12-.02.04-.07.02-.15-.03-.14-.08-.31-.23-.56-.37-.31-.18-.52-.25-.62-.31-.08-.05-.1-.09-.08-.12.01-.03.08-.01.15.01"/>
    <path class="cls-2" d="M40.12,9.35c.13.11.26.27.45.44.16.14.33.26.45.37.06.05.07.09.06.11-.02.03-.08,0-.13-.02-.31-.2-.46,0-.68.24-.46.49-1.09,1.2-1.32,1.48-.34.39-.52.79-.5,1.13.01.39.24.73.49.95.6.53,1.26.57,2.22-.43.19-.19.41-.43.57-.6.89-1,.91-1.11.81-1.29-.03-.06-.08-.12-.11-.15-.04-.04-.05-.1-.04-.12.02-.03.06-.01.12.04.11.1.19.19.35.34.12.1.27.21.39.32.06.05.08.1.07.11-.02.03-.06.02-.16-.04-.24-.15-.35-.05-.58.17-.31.3-.93,1-1.26,1.31-.45.45-.91.85-1.5.91-.53.05-.98-.26-1.23-.49-.28-.25-.55-.62-.61-.97-.1-.54.07-.96.62-1.62.35-.41,1.09-1.23,1.35-1.56.21-.28.23-.32.07-.57-.02-.03-.04-.08-.02-.11.02-.02.07.02.11.06"/>
    <path class="cls-2" d="M44.18,13.23c.17.24.35.49.54.72.13.14.31.36.41.48.32.45.55.92.59,1.49.04.66-.17,1.41-.92,1.95-1.15.82-2.24.4-2.93-.19-.14-.12-.31-.34-.42-.5-.09-.13-.18-.28-.28-.45-.11-.18-.21-.35-.33-.53-.11-.16-.25-.33-.29-.39-.04-.06-.06-.12-.03-.14.02-.01.06,0,.11.07.18.18.27.2.5.05.15-.08.69-.46,1.17-.8,1.03-.74,1.52-1.1,1.68-1.24.19-.15.23-.22.12-.48-.03-.06-.03-.1-.01-.11.02-.02.06.01.1.07M44.64,14.07s-.09-.03-.2.05c-.2.13-.39.25-1.45,1.01-.6.43-.94.7-1.21.92-.28.24-.38.36-.39.58,0,.12.05.34.21.56.18.26.38.43.59.53.44.22,1.22.39,2.17-.29.53-.38.91-.9.99-1.5.07-.52,0-1-.37-1.52-.11-.15-.26-.29-.32-.33"/>
    <path class="cls-2" d="M47.15,17.75c.1.21.15.36.24.55.1.21.23.39.29.53.03.06.03.1.02.11-.03.01-.06,0-.1-.07-.16-.23-.27-.2-.53-.08-.33.14-1.06.51-1.45.7-.93.46-1.46.74-1.64.84-.23.14-.26.2-.21.4.02.1.02.13-.02.14-.03.02-.06-.02-.1-.1-.05-.1-.11-.27-.2-.45-.16-.32-.28-.49-.34-.6-.03-.06-.04-.11,0-.12.02-.01.05.01.13.11.17.21.29.2.67.02.37-.17,2.12-1.04,2.42-1.19.31-.15.51-.27.6-.33.2-.13.19-.2.13-.45,0-.05,0-.08.02-.09.02-.01.05.02.08.08"/>
    <path class="cls-2" d="M47.43,25.08c-1.09.33-1.98-.21-2.37-.66-.21-.24-.38-.53-.47-.84-.37-1.23.38-2.54,1.62-2.91.68-.2,1.35-.15,2.04.35.37.26.69.75.82,1.19.35,1.18-.37,2.5-1.64,2.88M48.12,21.25c-.51-.22-1.16-.18-1.71-.01-.52.16-1.04.53-1.35.97-.41.56-.43,1.07-.31,1.44.07.24.22.48.49.64.35.24,1.06.49,2.02.2.59-.18,1.11-.55,1.47-1.07.22-.33.37-.78.21-1.32-.12-.39-.51-.73-.81-.86"/>
    <path class="cls-2" d="M49.77,28.25c-.2.32-.49.48-.81.5-.46.03-.69-.19-.82-.34-.11-.1-.2-.28-.25-.39-.02-.03-.06-.02-.13.02-.26.15-.88.61-1.2.86-.29.24-.47.4-.6.56-.2.23-.24.42-.24.55,0,.05-.01.09-.03.1-.01,0-.04-.03-.06-.07-.03-.06-.05-.19-.06-.31-.03-.44.14-.77.49-1.08.38-.34,1.21-.92,1.41-1.08.11-.1.17-.18.18-.27,0-.06.02-.15,0-.3,0-.03-.04-.05-.08-.06-.09,0-.9.05-1.17.08-.37.03-.6.07-.67.11-.08.03-.16.09-.18.34,0,.08-.03.11-.06.11-.03,0-.05-.05-.06-.13,0-.13.01-.34,0-.6-.02-.25-.07-.5-.08-.64,0-.07,0-.12.04-.12.03,0,.05.04.07.13.07.23.14.3.43.29.4,0,.97-.04,1.85-.1.98-.07,1.42-.14,1.66-.17.2-.03.3-.04.33-.34,0-.07.02-.12.06-.12.03,0,.04.04.05.12,0,.1,0,.31.02.55.02.3.07.48.1.85.03.43-.03.72-.18.96M49.74,26.81s-.02-.03-.14-.03c-.13,0-1.61.11-1.73.12-.09,0-.12.04-.11.07-.01.04,0,.12,0,.17.02.18.1.59.21.74.16.19.45.36.83.33.36-.03.62-.15.79-.34.18-.22.25-.47.22-.83,0-.09-.04-.19-.07-.22"/>
    <path class="cls-2" d="M50.09,30.42c-.02.17-.07.37-.11.62-.03.21-.03.42-.05.58,0,.08-.03.11-.06.11-.03,0-.05-.06-.06-.12-.01-.37-.25-.38-.58-.42-.67-.1-1.61-.22-1.96-.24-.51-.06-.94.02-1.22.23-.31.23-.47.61-.51.94-.1.79.24,1.36,1.62,1.58.26.05.59.09.82.12,1.33.17,1.43.12,1.52-.07.03-.06.05-.13.07-.18.01-.06.06-.1.08-.1.03,0,.04.04.03.12-.02.15-.05.26-.08.48-.02.15-.02.34-.04.51,0,.08-.03.12-.05.12-.03,0-.05-.04-.06-.16-.01-.29-.15-.32-.47-.38-.42-.08-1.36-.2-1.79-.29-.63-.12-1.22-.27-1.6-.72-.34-.41-.34-.95-.3-1.29.05-.37.2-.8.45-1.06.39-.39.82-.49,1.68-.41.53.05,1.63.2,2.05.23.35.01.4,0,.51-.27.02-.03.05-.08.08-.08.03,0,.02.07.01.13"/>
    <path class="cls-2" d="M49.3,35.93c-.06.15-.25.54-.33.75-.01.03-.05.05-.12.05-.74.04-2.94.26-3.88.38-.05,0-.03.03,0,.07.59.68,1.9,2.14,2.16,2.42.14.14.34.31.46.4.01.01.07.07.06.1-.07.18-.17.55-.24.73-.02.07-.05.1-.08.09-.03-.01-.03-.07-.02-.12.06-.42,0-.48-.39-.65-.22-.1-1.01-.41-1.34-.54-.72-.28-1.38-.5-1.6-.57-.39-.12-.48-.07-.66.16-.04.05-.08.09-.11.08-.03,0-.02-.06,0-.13.05-.12.23-.47.29-.64.1-.27.16-.45.2-.55.03-.07.06-.14.11-.12.03.01.03.09,0,.16-.03.31.05.39.59.62.35.16,2.12.84,2.41.95.07.03.07,0,.04-.02-.71-.78-1.98-2.2-2.57-2.79-.07-.06-.1-.11-.08-.14.01-.03.14-.04.28-.05.78-.05,2.96-.22,3.57-.27.07-.01.07-.03-.01-.07-.37-.17-2.06-.91-2.33-1.01-.22-.08-.35-.14-.5-.15-.17-.03-.3.1-.39.23-.04.07-.08.1-.11.09-.04-.02-.03-.08,0-.15.04-.08.16-.3.25-.54.09-.24.12-.43.15-.5.03-.09.06-.11.09-.1.02,0,.04.04.02.14-.04.22,0,.33.07.44.07.1.27.22.66.41.37.19,1.8.85,2.22,1.01.4.15.5.15.68.09.18-.07.24-.18.32-.29.04-.06.07-.09.1-.08.03.01.02.08,0,.13"/>
    <path class="cls-2" d="M45.07,44.47c-.11.13-.27.26-.44.45-.14.16-.26.33-.37.45-.05.06-.09.07-.11.06-.03-.02,0-.08.02-.13.2-.31,0-.46-.24-.68-.49-.46-1.21-1.09-1.48-1.32-.39-.34-.79-.52-1.14-.5-.39.01-.73.24-.95.49-.53.6-.57,1.26.43,2.22.19.18.43.41.6.57,1,.89,1.11.91,1.29.81.06-.03.12-.08.15-.11.04-.04.1-.05.12-.04.03.02.01.06-.04.12-.1.11-.19.19-.34.35-.1.12-.21.27-.32.39-.05.06-.1.09-.11.07-.03-.02-.02-.06.04-.16.15-.24.06-.35-.17-.58-.3-.31-1.01-.93-1.31-1.26-.45-.45-.85-.91-.91-1.5-.05-.53.26-.98.49-1.23.25-.28.62-.55.97-.61.54-.1.96.06,1.62.62.41.35,1.24,1.09,1.56,1.35.28.21.32.23.57.07.03-.02.08-.04.11-.02.02.02-.02.07-.06.11"/>
    <path class="cls-2" d="M41.29,48.52c-.17.12-.49.3-.71.46-.03.02-.06.02-.22-.03-.72-.22-3.4-.84-4.33-1.05-.02,0-.05,0-.01.06.15.21,1.29,1.79,1.66,2.29.24.34.41.31.63.23.08-.03.13-.05.15-.03.02.03-.02.08-.09.12-.1.07-.29.17-.42.26-.17.12-.3.24-.36.29-.06.04-.1.05-.12.03-.02-.03.02-.07.06-.13.17-.23.1-.36.02-.53-.13-.24-.97-1.46-1.36-2-.37-.53-.59-.86-.81-1.16-.1-.12-.11-.19-.07-.22.02-.02.14,0,.33.06.62.18,3.31.83,4.73,1.19.05.02.06,0,.04-.04-.14-.2-1.46-2.11-1.64-2.37-.19-.25-.29-.37-.4-.43-.12-.07-.3-.02-.42.02-.07.02-.12.03-.15,0-.02-.03.03-.08.09-.11.1-.07.28-.16.46-.28.17-.12.34-.28.38-.31.09-.06.11-.05.12-.03.02.03-.02.07-.07.14-.16.21-.2.31,0,.66.13.24,1.39,2.1,1.71,2.56.24.34.32.35.4.35.12,0,.21-.02.35-.09.09-.05.13-.05.15-.03.02.02,0,.06-.09.13"/>
    <path class="cls-2" d="M36.41,51.65c-.21.1-.36.14-.55.23-.21.1-.4.22-.53.29-.06.03-.1.03-.11.01-.01-.03,0-.06.07-.1.24-.16.2-.26.09-.53-.13-.33-.5-1.06-.69-1.46-.45-.94-.72-1.46-.83-1.65-.14-.23-.19-.26-.4-.22-.1.02-.13.01-.14-.02-.02-.03.03-.06.1-.1.1-.05.27-.11.45-.2.32-.15.49-.27.61-.33.06-.03.11-.04.12,0,0,.02-.01.05-.11.13-.21.16-.2.28-.02.67.16.38,1.02,2.13,1.16,2.43.15.31.26.51.32.6.13.2.2.19.44.14.05,0,.08,0,.09.02,0,.02-.02.05-.08.08"/>
    <path class="cls-2" d="M34.48,52.63c-.15.05-.45.11-.6.16-.22.07-.5.18-.62.22-.1.03-.14.01-.14,0-.01-.04.04-.08.11-.12.16-.07.2-.18.18-.26-.03-.08-.08-.15-.18-.29-.23-.32-1.72-2.19-1.98-2.46-.01-.02-.04-.03-.04,0-.04.26-.2,2.52-.21,2.89,0,.23,0,.45.03.57.05.15.19.16.41.15.07,0,.12,0,.13.02,0,.02-.02.05-.12.08-.15.05-.43.1-.57.14-.16.05-.33.13-.44.17-.09.03-.12.03-.12,0,0-.03.01-.06.11-.12.24-.15.3-.31.36-.85.04-.32.13-1.42.28-3.17.03-.44.04-.69.04-.8,0-.05.02-.09.04-.09.04-.01.08.03.13.11.43.6,2.26,2.86,2.7,3.36.13.15.25.22.47.19.08-.01.14,0,.15.03,0,.03-.06.06-.12.08"/>
    <path class="cls-2" d="M29.4,54.05c-.17.02-.39.02-.59.04-.37.05-1.32.17-1.6.21-.26.03-.36.06-.43.06-.03,0-.06-.03-.08-.1-.02-.08-.06-.33-.11-.47-.01-.04-.01-.11.02-.11.02,0,.05.02.09.09.16.28.3.37.43.38.17,0,1.09-.1,1.32-.14.06-.01.08-.03.05-.28-.03-.23-.14-1.12-.19-1.61-.01-.08-.03-.11-.06-.11l-.88.11c-.32.04-.41.06-.47.11-.05.03-.1.13-.15.29-.01.05-.03.08-.06.09-.02,0-.04-.03-.04-.07,0-.04,0-.26,0-.38,0-.13-.05-.34-.06-.39-.03-.1.01-.14.02-.14.03,0,.04.03.1.14.03.06.09.19.2.2.17.02.36,0,1.3-.11.05,0,.05-.02.04-.14-.04-.36-.18-1.34-.2-1.47,0-.08-.09-.25-.22-.29-.12-.04-.23-.04-.7.01-.59.07-.71.1-.84.24-.06.08-.15.26-.21.37-.06.1-.08.13-.11.14-.03,0-.04-.05-.02-.13.02-.17.06-.47.09-.55.02-.05.05-.09.1-.1.74-.09,1.54-.16,2.11-.23.24-.03.63-.11.7-.12.09-.01.13,0,.14.03,0,.03-.04.05-.12.08-.23.06-.36.17-.33.49.1,1.12.19,1.89.36,3.27.05.4.14.47.4.5.07,0,.11.02.11.05,0,.02-.04.05-.1.06"/>
    <path class="cls-2" d="M22.92,54.08c-.29-.24-.41-.55-.39-.87.03-.46.28-.66.45-.77.11-.09.31-.16.42-.2.03-.01.02-.05,0-.13-.12-.28-.49-.95-.69-1.3-.2-.32-.34-.52-.48-.67-.2-.23-.38-.29-.51-.3-.05,0-.09-.03-.09-.05,0-.01.03-.04.08-.05.07-.02.19-.02.32-.02.44.02.74.24,1.01.62.29.43.75,1.32.88,1.54.08.12.15.19.24.21.06.02.15.04.3.04.03,0,.06-.03.07-.07.02-.08.06-.9.07-1.17.02-.37,0-.61-.02-.67-.02-.09-.07-.17-.31-.22-.08-.02-.1-.04-.1-.07,0-.03.06-.05.14-.04.13,0,.34.05.6.07.25.01.51,0,.64,0,.07,0,.12.02.12.06,0,.03-.05.05-.14.06-.24.04-.31.1-.35.38-.04.4-.09.96-.14,1.85-.05.98-.05,1.43-.05,1.67,0,.2,0,.3.3.37.06.02.12.03.12.07,0,.03-.05.04-.13.03-.1,0-.3-.04-.55-.05-.3-.02-.49,0-.85-.01-.43-.02-.71-.12-.93-.31M24.34,54.24s.04-.01.05-.13c.01-.13.11-1.61.11-1.73,0-.09-.02-.12-.05-.12-.03-.02-.12-.02-.17-.02-.18,0-.6.02-.76.11-.2.13-.42.39-.44.77-.02.36.06.63.24.83.19.21.44.31.79.33.09,0,.19-.01.23-.04"/>
    <path class="cls-2" d="M18.22,53.44s-.03-.07-.03-.09c.04-.19.07-.39.08-.47,0-.09.04-.14.07-.13.03,0,.04.05.04.12.01.19.05.35.16.47.12.15.34.27.51.31.32.08.87-.08,1.01-.66.09-.38-.09-.68-.31-.91-.22-.24-.4-.45-.58-.66-.22-.25-.53-.65-.39-1.25.18-.76,1.01-1.05,1.73-.88.3.07.7.25.89.41.07.06.08.11.07.21-.01.11-.01.35-.05.52-.01.08-.04.13-.07.12-.03,0-.04-.05-.04-.16,0-.55-.39-.89-.83-.99-.55-.13-1.01.22-1.12.68-.11.47.16.81.57,1.25.44.48.78.95.64,1.55-.09.38-.33.64-.65.78-.22.1-.55.16-.95.06-.32-.07-.63-.24-.74-.31"/>
    <path class="cls-2" d="M17.03,53.09c-.22-.08-.36-.16-.56-.23-.22-.08-.43-.13-.58-.18-.06-.02-.1-.05-.09-.07.01-.03.05-.04.12-.02.28.06.33-.04.44-.31.14-.32.41-1.1.56-1.51.36-.98.55-1.54.6-1.74.07-.26.05-.32-.13-.44-.09-.05-.1-.08-.09-.11.01-.03.06-.02.14,0,.11.04.26.12.46.19.33.12.54.16.66.2.06.02.1.05.09.09,0,.02-.05.03-.17.01-.26-.04-.34.06-.5.45-.15.38-.81,2.22-.93,2.53-.12.33-.18.54-.2.65-.05.23,0,.28.21.41.04.03.06.06.05.08,0,.02-.05.02-.11,0"/>
    <path class="cls-2" d="M16.03,47.97c-.32-.12-.41-.04-.58.24-.37.58-1.68,3.06-1.71,3.16-.02.06-.01.09,0,.1.03.03.17.11.46.27.26.14.41.2.55.25.13.04.25.01.47-.19.07-.06.12-.07.14-.06.03.01,0,.06-.03.1-.13.17-.28.32-.36.49-.04.05-.05.08-.09.08-.02,0-.03-.02-.03-.06,0-.04-.08-.12-.17-.17-.1-.06-.71-.39-1.35-.73-.48-.25-1.07-.57-1.25-.65-.15-.07-.25-.12-.38-.12-.03,0-.06,0-.06-.01,0-.02,0-.04.04-.09.06-.06.16-.25.27-.47.05-.09.1-.12.12-.11.03.01,0,.08,0,.11-.04.12-.06.28-.04.36.03.08.1.15.53.38.19.1.51.27.61.31.03.01.07-.04.09-.08.12-.23.9-1.68,1.04-1.94.19-.35.58-1.13.66-1.34.09-.23.05-.3-.13-.48-.06-.06-.09-.09-.07-.12.02-.04.07-.02.15.02.14.08.32.22.57.35.32.17.53.23.63.28.08.04.1.08.08.12-.01.02-.08.01-.16-.01"/>
    <path class="cls-2" d="M9.65,49.14c.08-.14.14-.33.21-.58.41-1.34.69-2.34.95-3.4.11-.44.1-.53-.02-.67-.06-.06-.07-.11-.06-.12.02-.03.08,0,.13.04.11.08.18.17.47.39.21.16.44.3.57.4.06.05.09.08.06.11-.02.02-.09,0-.14-.03-.25-.14-.36-.07-.45.06-.06.1-.26.75-.44,1.39-.01.05,0,.1.02.12.22.15.93.69,1.05.79.03.02.11-.01.17-.04.15-.08.63-.37.92-.59.23-.17.31-.27.29-.38-.01-.09-.07-.17-.16-.28-.04-.06-.05-.1-.04-.12.02-.03.08,0,.14.05.11.08.31.29.52.44.14.11.27.16.4.26.06.05.09.09.06.11-.02.03-.09,0-.15-.04-.3-.15-.39-.14-.96.17-.43.22-1.86,1.07-2.83,1.66-.08.05-.12.09-.16.13-.02.02-.05.05-.06.05-.1,0-.3.02-.42.13-.03.02-.06.04-.09.02-.02-.01-.01-.04,0-.09M10.84,47.12c-.26.81-.39,1.28-.45,1.54-.02.06,0,.05.05.02.38-.22,1.11-.68,1.36-.85.01,0,.04-.05.02-.06-.1-.09-.24-.19-.44-.35-.2-.15-.43-.33-.51-.35-.02,0-.03.02-.04.06"/>
    <path class="cls-2" d="M5.73,45.29s0-.08.03-.09c.14-.13.28-.28.33-.34.06-.07.11-.09.13-.07s0,.06-.04.12c-.1.16-.16.31-.13.48.01.2.12.41.24.55.22.25.76.43,1.2.03.29-.26.31-.61.27-.93-.04-.32-.07-.6-.1-.88-.04-.33-.07-.84.39-1.25.58-.52,1.43-.29,1.92.26.21.23.44.6.49.85.02.09,0,.14-.06.22-.08.09-.21.28-.34.4-.05.06-.1.08-.12.06-.02-.02,0-.06.05-.15.31-.45.18-.95-.12-1.29-.38-.42-.96-.39-1.31-.08-.36.32-.33.75-.24,1.36.09.65.09,1.23-.36,1.63-.29.26-.63.34-.98.27-.24-.04-.55-.18-.82-.49-.22-.24-.38-.56-.43-.67"/>
    <path class="cls-2" d="M2.93,41.17c-.04-.08-.18-.44-.31-.72-.32-.68-.65-1.34-.77-1.58-.06-.13-.05-.19-.01-.22.09-.05.36-.21.43-.25.06-.04.12-.06.14-.02.01.03-.02.07-.09.14-.2.23-.23.41-.14.65.08.21.21.49.48,1.07.02.05.12.05.16.04.18-.08.92-.41,1.65-.77.05-.02.06-.08.05-.09-.31-.65-.46-.96-.52-1.05-.06-.08-.12-.16-.38-.16-.08,0-.11-.01-.12-.03-.01-.02.01-.05.08-.08.07-.03.28-.09.41-.15.13-.06.21-.12.29-.17.08-.04.12-.04.13,0,.01.03-.03.08-.1.16-.12.12-.15.21-.13.3.03.11.06.22.49,1.12,0,.01.08.04.11.02.12-.05,1.11-.53,1.39-.68.24-.12.26-.18.19-.5-.01-.06-.01-.1.01-.12.04-.02.08.05.11.11.04.09.13.38.26.65.11.24.22.39.26.48.03.06.03.11,0,.12-.03.01-.06-.01-.12-.09-.16-.22-.23-.23-.47-.13-.22.08-1.01.45-1.72.78-.68.32-1.07.5-1.45.7-.23.12-.27.17-.22.42.02.06.02.12-.02.13-.02.01-.06-.02-.08-.08"/>
    <path class="cls-2" d="M1.38,37.67c-.06-.21-.09-.44-.14-.62-.06-.21-.14-.39-.19-.55-.02-.08-.02-.11,0-.12.03-.01.07.02.1.08.13.26.18.26.65.15.12-.03.74-.2,1.36-.38.64-.19,1.32-.39,1.45-.43.27-.1.45-.17.51-.25.08-.1.1-.31-.06-.86-.09-.31-.15-.48-.21-.59-.07-.14-.28-.24-.57-.31-.09-.02-.13-.05-.14-.08-.01-.03.1-.05.19-.04.06,0,.47.03.53.04.07.02.1.08.11.12.02.07.17.58.25.92.08.35.21.84.28,1.08.06.21.18.51.21.6.02.08.03.15,0,.16-.03,0-.07-.05-.09-.11-.14-.28-.24-.29-.46-.25-.28.05-.73.18-1.66.45-.92.27-1.39.41-1.62.49-.38.13-.42.17-.39.47,0,.09,0,.11-.03.12-.02,0-.05-.03-.07-.1"/>
    <path class="cls-2" d="M2.19,29.09c1.13-.1,1.9.61,2.19,1.13.15.28.26.59.29.92.11,1.27-.89,2.41-2.18,2.52-.7.06-1.35-.12-1.93-.75-.31-.34-.52-.87-.56-1.33-.11-1.23.87-2.38,2.19-2.49M.74,32.7c.45.32,1.1.41,1.67.36.54-.05,1.13-.31,1.52-.68.51-.46.63-.96.6-1.35-.02-.25-.12-.51-.35-.73-.29-.31-.94-.69-1.93-.6-.61.05-1.2.31-1.65.75-.28.28-.52.69-.47,1.25.03.4.35.81.62,1.01"/>
    <path class="cls-2" d="M.55,25.51c.26-.27.57-.37.9-.33.46.06.64.33.73.5.08.12.14.32.17.43,0,.03.05.03.13,0,.28-.1.99-.41,1.35-.6.34-.18.54-.3.7-.43.24-.18.32-.36.34-.49,0-.05.03-.09.05-.09.01,0,.04.03.05.08.02.07.01.19,0,.32-.06.44-.29.72-.69.96-.45.26-1.37.66-1.6.77-.13.08-.2.14-.23.23-.02.06-.05.14-.06.29,0,.03.03.06.06.07.08.03.89.13,1.16.16.37.05.61.05.67.03.09,0,.17-.06.25-.3.02-.08.05-.1.08-.1.03,0,.04.06.03.14-.02.13-.08.33-.11.59-.03.25-.03.51-.05.64,0,.07-.03.12-.06.11-.03,0-.04-.05-.05-.14-.02-.24-.07-.32-.36-.37-.4-.07-.96-.16-1.83-.27-.97-.13-1.42-.15-1.66-.17-.2-.01-.3-.02-.39.27-.02.06-.04.12-.08.11-.03,0-.04-.05-.03-.13.01-.1.06-.3.09-.54.04-.29.03-.49.07-.85.06-.43.18-.7.37-.91M.28,26.92s0,.04.13.06c.13.03,1.6.22,1.71.24.09.01.12-.01.13-.04.02-.03.03-.12.04-.17.02-.18.02-.6-.06-.76-.12-.22-.36-.45-.74-.5-.36-.05-.64.02-.84.18-.22.18-.34.41-.38.76-.01.09,0,.19.02.23"/>
    <path class="cls-2" d="M.82,22.95c.05-.16.15-.36.21-.56.12-.36.4-1.27.49-1.54.08-.25.1-.35.12-.42,0-.03.06-.04.13-.03.08.02.33.09.47.1.04,0,.1.03.09.06,0,.02-.03.03-.12.04-.32.02-.46.12-.53.23-.08.15-.37,1.03-.43,1.25-.01.06,0,.09.24.17.22.07,1.08.35,1.54.5.08.03.11.02.12,0l.28-.85c.1-.31.12-.39.1-.47-.01-.06-.07-.14-.2-.26-.04-.03-.06-.06-.05-.09,0-.02.04-.02.08,0,.04.01.24.11.34.16.12.05.33.1.38.11.1.01.13.07.12.08,0,.03-.04.02-.17.03-.07,0-.21,0-.27.1-.08.14-.15.32-.45,1.23-.02.05,0,.06.11.1.34.11,1.29.4,1.42.44.07.02.27.03.36-.08.08-.09.14-.19.28-.64.18-.56.21-.69.13-.86-.05-.09-.17-.25-.24-.35-.07-.1-.08-.13-.07-.16,0-.03.06-.02.12.03.14.09.4.26.46.31.04.04.06.09.05.13-.23.71-.51,1.46-.69,2.01-.07.23-.16.62-.19.69-.03.09-.06.12-.09.11s-.02-.06-.02-.14c.04-.24,0-.4-.3-.51-1.06-.38-1.8-.62-3.11-1.06-.38-.13-.49-.07-.62.15-.04.06-.07.09-.09.08-.02,0-.03-.06,0-.11"/>
    <path class="cls-2" d="M2.16,18.99c.11-.18.31-.48.45-.72.02-.03.05-.04.21-.07.75-.11,3.43-.68,4.36-.89.03,0,.04-.03-.02-.06-.23-.13-1.93-1.07-2.47-1.37-.36-.21-.5-.11-.66.06-.06.06-.1.1-.12.09-.03-.02-.01-.08.03-.15.06-.11.19-.28.27-.41.1-.18.16-.35.2-.41.04-.07.07-.09.09-.08.03.02.01.07,0,.14-.06.28.06.37.21.49.22.16,1.5.91,2.08,1.23.56.32.9.53,1.23.7.14.07.18.12.16.16-.01.03-.12.06-.32.09-.63.1-3.35.65-4.79.93-.05.01-.05.03-.02.06.21.12,2.21,1.28,2.5,1.45.27.15.42.21.55.22.14.01.28-.11.37-.19.05-.05.1-.08.13-.06.03.02,0,.08-.03.14-.06.11-.19.26-.3.45-.11.19-.19.4-.21.45-.05.09-.08.09-.1.08-.03-.02-.01-.07,0-.15.06-.26.05-.37-.29-.6-.22-.16-2.15-1.31-2.64-1.59-.36-.21-.44-.18-.51-.15-.11.04-.18.11-.28.23-.06.08-.09.1-.12.08-.02-.01-.03-.06.03-.15"/>
    <path class="cls-2" d="M9.17,16.15c.19-.28.14-.39-.09-.63-.48-.5-2.56-2.38-2.64-2.43-.05-.04-.08-.04-.1-.02-.03.03-.15.14-.37.38-.19.21-.3.35-.38.47-.07.11-.07.24.07.5.04.08.04.13.02.15-.02.02-.06-.02-.09-.06-.13-.17-.25-.35-.39-.47-.04-.05-.07-.07-.05-.11,0-.02.03-.02.06-.02.05,0,.13-.05.2-.12.08-.08.55-.59,1.04-1.13.36-.4.81-.9.93-1.05.1-.13.17-.21.21-.34,0-.03.01-.06.03-.05.02,0,.04.01.07.06.05.07.21.21.38.38.08.07.1.13.08.15-.02.02-.08-.01-.11-.03-.11-.07-.26-.13-.34-.12-.08,0-.17.06-.5.43-.15.16-.38.43-.45.52-.02.03.02.07.06.11.19.17,1.41,1.29,1.63,1.49.29.26.96.84,1.14.97.2.14.28.12.49-.01.07-.05.11-.07.13-.04.03.03,0,.07-.06.14-.11.12-.29.26-.48.47-.24.27-.35.45-.43.54-.06.07-.11.08-.13.05-.02-.02,0-.08.05-.15"/>
    <path class="cls-2" d="M8.52,10.59c.18-.15.32-.23.48-.36.18-.15.33-.31.45-.41.05-.04.09-.06.1-.04.02.02.02.06-.04.12-.19.21-.13.3.04.54.21.28.74.91,1.02,1.25.66.8,1.06,1.24,1.2,1.4.19.19.25.2.44.11.09-.05.12-.05.14-.02.02.03-.01.06-.08.12-.09.07-.24.17-.39.3-.27.23-.41.38-.51.47-.05.04-.1.06-.12.03-.01-.02,0-.06.07-.15.16-.21.12-.33-.14-.65-.25-.32-1.51-1.82-1.72-2.07-.22-.27-.38-.43-.46-.5-.17-.16-.24-.14-.46-.03-.05.02-.08.02-.1,0-.01-.02.01-.05.06-.1"/>
    <path class="cls-2" d="M10.43,8.95c.18-.11.51-.26.75-.4.03-.02.07-.01.22.05.7.28,3.31,1.13,4.22,1.42.02.01.05,0,.02-.06-.13-.23-1.13-1.89-1.45-2.42-.21-.36-.38-.34-.6-.28-.08.02-.13.04-.15.01-.02-.03.03-.08.1-.11.11-.06.3-.14.43-.22.18-.1.32-.22.38-.26.07-.04.1-.05.12-.02.02.03-.02.07-.07.12-.19.22-.13.35-.06.53.11.25.85,1.53,1.18,2.11.32.56.51.91.71,1.22.09.13.1.2.06.22-.02.01-.14,0-.32-.08-.6-.23-3.23-1.11-4.61-1.59-.05-.02-.06,0-.04.04.12.21,1.27,2.22,1.44,2.5.16.27.25.39.36.47.11.08.3.05.42.02.07-.02.12-.02.15.01.02.03-.04.07-.09.1-.11.06-.29.13-.48.24-.18.11-.36.25-.41.28-.09.05-.11.04-.13.02-.02-.03.02-.07.08-.13.18-.19.22-.29.05-.66-.11-.25-1.2-2.21-1.49-2.7-.21-.36-.29-.37-.37-.38-.11-.01-.21,0-.36.06-.09.04-.13.04-.15.01-.01-.03,0-.06.1-.12"/>
    <path class="cls-2" d="M17.55,5.51c.07.14.19.3.35.5.87,1.1,1.53,1.9,2.25,2.72.3.34.38.38.56.37.09-.01.13,0,.13.02.01.03-.05.07-.11.09-.13.04-.24.06-.59.17-.25.08-.5.19-.66.24-.07.02-.12.02-.13-.01,0-.03.04-.07.11-.1.26-.13.26-.25.2-.4-.05-.11-.47-.64-.89-1.15-.04-.04-.09-.06-.11-.05-.25.1-1.1.37-1.25.42-.03.01-.05.1-.06.16-.01.17-.05.73-.04,1.09,0,.28.05.41.15.46.08.04.18.04.32.02.07,0,.12.01.12.03.01.03-.05.07-.12.09-.13.04-.42.1-.66.17-.17.05-.29.13-.45.18-.07.02-.12.02-.13-.01-.01-.03.05-.07.11-.1.29-.16.33-.24.41-.89.06-.48.18-2.14.25-3.27,0-.1,0-.15-.02-.2,0-.03-.01-.07,0-.08.06-.08.15-.26.13-.42,0-.04,0-.07.03-.08.02,0,.04.02.07.05M18.53,7.63c-.51-.67-.83-1.05-1.01-1.24-.04-.05-.05-.02-.05.03-.04.44-.07,1.3-.07,1.6,0,.02.01.06.04.05.13-.03.3-.09.53-.16.24-.08.51-.16.58-.22.01-.01,0-.04-.02-.07"/>
    <path class="cls-2" d="M160,8.19c1.46.04,2.56.44,3.3,1.23.74.78,1.11,1.97,1.11,3.57s-.37,2.78-1.11,3.56c-.74.78-1.84,1.19-3.3,1.23h-3.32v-9.59h3.32ZM159.54,17c.69,0,1.28-.07,1.78-.22.5-.15.91-.38,1.23-.7.32-.32.56-.74.71-1.25.15-.51.23-1.12.23-1.84s-.08-1.33-.23-1.84c-.15-.51-.39-.93-.71-1.25-.32-.32-.73-.56-1.23-.7-.5-.15-1.09-.22-1.78-.22h-1.95v8.03h1.95Z"/>
    <path class="cls-2" d="M166.58,9.55h-.85v-1.36h.85v1.36ZM166.58,17.78h-.85v-6.93h.85v6.93Z"/>
    <path class="cls-2" d="M168.98,10.85v1.32h.03c.2-.48.52-.86.96-1.12.44-.26.95-.4,1.51-.4.53,0,.99.1,1.38.29.39.2.71.46.97.8.26.34.45.73.58,1.17.12.44.19.91.19,1.4s-.06.96-.19,1.4c-.13.44-.32.83-.58,1.17-.26.34-.59.6-.97.79-.39.19-.85.29-1.38.29-.25,0-.5-.03-.75-.09-.25-.06-.48-.16-.7-.28-.22-.12-.4-.28-.57-.47-.17-.19-.29-.41-.38-.66h-.03v3.87h-.85v-9.48h.78ZM173.62,13.25c-.09-.35-.22-.67-.4-.95-.18-.28-.42-.5-.71-.68-.29-.17-.63-.26-1.04-.26-.46,0-.85.08-1.17.24-.31.16-.56.38-.75.65-.19.27-.32.58-.4.94-.08.36-.11.74-.11,1.13,0,.36.04.71.13,1.07.09.35.22.67.42.95.19.28.44.5.75.68.31.18.69.26,1.13.26.4,0,.75-.09,1.04-.26.29-.17.52-.4.71-.68.18-.28.32-.59.4-.95.09-.35.13-.71.13-1.07s-.04-.71-.13-1.07"/>
    <path class="cls-2" d="M176.08,11.92c.14-.3.34-.54.58-.72.25-.19.54-.33.87-.42.33-.09.7-.14,1.1-.14.31,0,.61.03.91.09.31.06.58.17.82.33.24.16.44.39.59.68.15.29.23.67.23,1.13v3.68c0,.34.17.51.5.51.1,0,.19-.02.27-.05v.71c-.1.02-.19.03-.26.04-.08,0-.17.01-.29.01-.21,0-.39-.03-.52-.09-.13-.06-.23-.14-.3-.25-.07-.11-.12-.24-.14-.38-.02-.15-.03-.31-.03-.49h-.03c-.15.22-.31.42-.46.6-.16.17-.33.32-.52.44-.19.12-.41.21-.66.27-.25.06-.54.09-.88.09-.32,0-.62-.04-.91-.11-.28-.08-.53-.2-.74-.36-.21-.17-.38-.38-.5-.63-.12-.26-.18-.56-.18-.91,0-.48.11-.86.32-1.13.21-.27.5-.48.85-.62.35-.14.75-.24,1.19-.3.44-.06.89-.11,1.35-.17.18-.02.34-.04.47-.07.14-.03.25-.07.34-.14.09-.07.16-.16.21-.27.05-.12.07-.27.07-.46,0-.29-.05-.52-.14-.71-.09-.18-.22-.33-.39-.44-.17-.11-.36-.18-.58-.22-.22-.04-.45-.06-.71-.06-.54,0-.98.13-1.32.38-.34.26-.52.67-.54,1.23h-.85c.03-.4.11-.75.25-1.05M180.31,13.99c-.05.1-.16.17-.31.22-.15.04-.29.08-.4.09-.36.06-.73.12-1.11.17-.38.05-.73.12-1.04.22-.31.1-.57.24-.77.42-.2.18-.3.44-.3.79,0,.22.04.4.13.57.09.17.2.31.34.43.14.12.31.21.5.27.19.06.38.09.58.09.32,0,.63-.05.93-.15.3-.1.55-.24.77-.43.22-.19.39-.42.52-.69.13-.27.19-.57.19-.91v-1.1h-.03Z"/>
    <path class="cls-2" d="M183.66,10.85v1.62h.03c.21-.56.55-1,1-1.3.45-.3.99-.44,1.62-.42v.85c-.39-.02-.73.03-1.05.16-.31.12-.58.29-.81.52-.23.22-.4.49-.53.8-.13.31-.19.65-.19,1.01v3.69h-.85v-6.93h.78Z"/>
    <path class="cls-2" d="M189.86,10.85v.71h-1.41v4.67c0,.28.04.49.11.65.08.16.27.24.57.26.24,0,.48-.01.73-.04v.71c-.13,0-.25,0-.38.01-.13,0-.25.01-.38.01-.56,0-.96-.11-1.18-.33-.22-.22-.33-.62-.32-1.22v-4.74h-1.21v-.71h1.21v-2.08h.85v2.08h1.41Z"/>
    <path class="cls-2" d="M191.94,9.55h-.85v-1.36h.85v1.36ZM191.94,17.78h-.85v-6.93h.85v6.93Z"/>
    <path class="cls-2" d="M194.35,10.85v1.17h.04c.22-.43.52-.76.88-1.01.36-.24.82-.36,1.39-.36.46,0,.87.11,1.24.33.37.22.62.56.74,1.02.21-.46.51-.8.91-1.02.4-.22.83-.33,1.29-.33,1.53,0,2.3.81,2.3,2.43v4.7h-.85v-4.66c0-.57-.12-1.01-.36-1.31-.24-.3-.67-.45-1.28-.45-.37,0-.67.07-.91.21-.24.14-.43.32-.58.56-.14.23-.24.5-.3.8-.06.3-.09.61-.09.93v3.92h-.85v-4.7c0-.23-.02-.45-.07-.67-.05-.21-.13-.39-.24-.55-.11-.16-.26-.28-.45-.37-.19-.09-.42-.14-.68-.14-.36,0-.67.07-.93.2-.26.13-.48.31-.64.54-.17.23-.29.5-.37.81-.08.31-.12.65-.12,1.01v3.87h-.85v-6.93h.78Z"/>
    <path class="cls-2" d="M205.38,15.49c.09.33.22.62.41.88.19.26.43.47.71.65.29.17.63.25,1.03.25.62,0,1.1-.16,1.45-.48.35-.32.59-.75.73-1.29h.84c-.18.79-.51,1.4-.99,1.83s-1.16.64-2.04.64c-.55,0-1.02-.1-1.42-.29-.4-.19-.72-.46-.97-.79-.25-.33-.44-.72-.56-1.17-.12-.44-.18-.91-.18-1.4,0-.46.06-.9.18-1.34.12-.44.31-.83.56-1.18.25-.34.57-.62.97-.83.4-.21.87-.32,1.42-.32s1.03.11,1.42.34c.39.22.71.52.96.88.25.36.42.78.53,1.25.11.47.15.95.14,1.43h-5.33c0,.31.04.62.13.95M209.57,12.9c-.1-.29-.25-.56-.44-.79-.19-.23-.42-.41-.68-.55-.27-.14-.57-.21-.91-.21s-.66.07-.93.21c-.27.14-.5.32-.68.55-.19.23-.34.49-.45.79s-.19.61-.22.92h4.49c0-.32-.07-.63-.17-.93"/>
    <path class="cls-2" d="M212.56,10.85v1.19h.03c.16-.42.45-.76.86-1.01.41-.26.86-.38,1.36-.38s.89.06,1.21.19c.33.12.59.3.79.53.2.23.34.51.42.84.08.33.12.7.12,1.12v4.46h-.85v-4.32c0-.29-.03-.57-.08-.83-.05-.26-.15-.48-.28-.66-.13-.19-.32-.34-.54-.44-.23-.11-.51-.16-.85-.16s-.64.06-.91.18c-.26.12-.49.29-.67.5-.18.21-.33.46-.43.75-.1.29-.16.61-.17.95v4.04h-.85v-6.93h.85Z"/>
    <path class="cls-2" d="M221.69,10.85v.71h-1.41v4.67c0,.28.04.49.11.65.08.16.27.24.57.26.24,0,.48-.01.73-.04v.71c-.13,0-.25,0-.38.01-.13,0-.25.01-.38.01-.56,0-.96-.11-1.18-.33-.22-.22-.33-.62-.32-1.22v-4.74h-1.21v-.71h1.21v-2.08h.85v2.08h1.41Z"/>
    <path class="cls-2" d="M227.24,10.94c.41.2.75.46,1.03.79.28.33.49.72.63,1.16.14.44.21.92.21,1.42s-.07.97-.21,1.42c-.14.44-.35.83-.63,1.16-.28.33-.62.59-1.03.79-.41.19-.88.29-1.4.29s-1-.1-1.4-.29-.75-.46-1.03-.79c-.28-.33-.49-.72-.63-1.16-.14-.44-.21-.92-.21-1.42s.07-.97.21-1.42c.14-.44.35-.83.63-1.16.28-.33.62-.6,1.03-.79.41-.2.88-.3,1.4-.3s1,.1,1.4.3M224.77,11.61c-.3.17-.56.39-.76.67-.2.28-.35.59-.46.95-.1.35-.15.71-.15,1.08s.05.73.15,1.08.25.67.46.95c.2.28.46.5.76.67.3.17.66.26,1.06.26s.76-.08,1.06-.26c.31-.17.56-.39.76-.67.2-.28.35-.59.46-.95.1-.35.15-.71.15-1.08s-.05-.73-.15-1.08c-.1-.35-.26-.67-.46-.95-.2-.28-.45-.5-.76-.67-.3-.17-.66-.26-1.06-.26s-.76.09-1.06.26"/>
    <path class="cls-2" d="M239.42,17.78v-1.32h-.03c-.09.22-.22.43-.4.62s-.37.35-.6.48c-.22.13-.46.23-.72.3-.26.07-.51.11-.76.11-.53,0-.99-.1-1.38-.29-.39-.19-.71-.46-.97-.79-.26-.34-.45-.73-.58-1.17-.12-.44-.19-.91-.19-1.4s.06-.96.19-1.4.32-.83.58-1.17c.26-.34.58-.6.97-.8.39-.2.85-.29,1.38-.29.26,0,.51.03.76.09.25.06.48.16.69.29.21.13.4.29.57.48s.29.41.38.66h.03v-3.97h.85v9.59h-.78ZM234.78,15.38c.09.35.22.67.4.95.18.28.42.5.71.68.29.17.63.26,1.04.26.45,0,.82-.09,1.13-.26.31-.17.56-.4.75-.68.19-.28.33-.59.42-.95.08-.35.13-.71.13-1.07s-.04-.71-.13-1.07c-.09-.35-.22-.67-.42-.95-.19-.28-.44-.5-.75-.68-.31-.18-.69-.26-1.13-.26-.4,0-.75.09-1.04.26-.29.17-.52.4-.71.68-.18.28-.32.59-.4.95s-.13.71-.13,1.07.04.71.13,1.07"/>
    <path class="cls-2" d="M242.67,9.55h-.85v-1.36h.85v1.36ZM242.67,17.78h-.85v-6.93h.85v6.93Z"/>
    <polygon class="cls-2" points="249.2 8.19 254.79 16.3 254.81 16.3 254.81 8.19 255.73 8.19 255.73 17.78 254.71 17.78 249.12 9.67 249.09 9.67 249.09 17.78 248.18 17.78 248.18 8.19 249.2 8.19"/>
    <path class="cls-2" d="M258.11,15.49c.08.33.22.62.41.88.19.26.42.47.71.65.29.17.63.25,1.03.25.62,0,1.1-.16,1.45-.48.35-.32.59-.75.73-1.29h.85c-.18.79-.51,1.4-.99,1.83s-1.16.64-2.04.64c-.55,0-1.02-.1-1.42-.29-.4-.19-.72-.46-.97-.79-.25-.33-.44-.72-.56-1.17-.12-.44-.18-.91-.18-1.4,0-.46.06-.9.18-1.34.12-.44.31-.83.56-1.18.25-.34.57-.62.97-.83.4-.21.87-.32,1.42-.32s1.03.11,1.42.34c.39.22.71.52.96.88.25.36.42.78.53,1.25.11.47.15.95.14,1.43h-5.33c0,.31.04.62.13.95M262.3,12.9c-.1-.29-.25-.56-.44-.79-.19-.23-.42-.41-.68-.55-.27-.14-.57-.21-.91-.21s-.66.07-.93.21c-.27.14-.5.32-.68.55-.19.23-.34.49-.45.79s-.19.61-.22.92h4.48c-.01-.32-.07-.63-.17-.93"/>
    <path class="cls-2" d="M269.29,17.78v-1.25h-.03c-.22.47-.55.82-.97,1.07-.43.25-.9.37-1.42.37-.44,0-.81-.06-1.12-.18-.31-.12-.56-.29-.75-.52-.19-.22-.33-.5-.42-.82-.09-.32-.13-.69-.13-1.1v-4.5h.85v4.51c.02.63.16,1.1.44,1.42.27.32.75.48,1.42.48.37,0,.68-.08.94-.24.26-.16.48-.37.65-.62.17-.26.29-.56.38-.89.08-.34.12-.68.12-1.03v-3.64h.85v6.93h-.78Z"/>
    <path class="cls-2" d="M272.44,10.85v1.62h.03c.21-.56.55-1,1-1.3.45-.3.99-.44,1.62-.42v.85c-.38-.02-.73.03-1.05.16-.31.12-.58.29-.81.52-.23.22-.4.49-.53.8-.13.31-.19.65-.19,1.01v3.69h-.85v-6.93h.78Z"/>
    <path class="cls-2" d="M279.99,10.94c.41.2.75.46,1.03.79.28.33.49.72.63,1.16.14.44.22.92.22,1.42s-.07.97-.22,1.42c-.14.44-.35.83-.63,1.16-.28.33-.62.59-1.03.79-.41.19-.88.29-1.4.29s-1-.1-1.4-.29c-.41-.19-.75-.46-1.03-.79-.28-.33-.49-.72-.63-1.16-.14-.44-.21-.92-.21-1.42s.07-.97.21-1.42c.14-.44.35-.83.63-1.16.28-.33.62-.6,1.03-.79.41-.2.88-.3,1.4-.3s.99.1,1.4.3M277.52,11.61c-.3.17-.56.39-.76.67-.2.28-.35.59-.46.95-.1.35-.15.71-.15,1.08s.05.73.15,1.08.26.67.46.95c.2.28.46.5.76.67.3.17.66.26,1.06.26s.75-.08,1.06-.26c.3-.17.56-.39.76-.67.2-.28.35-.59.46-.95s.15-.71.15-1.08-.05-.73-.15-1.08c-.1-.35-.26-.67-.46-.95-.2-.28-.45-.5-.76-.67-.31-.17-.66-.26-1.06-.26s-.76.09-1.06.26"/>
    <path class="cls-2" d="M287.11,12.2c-.1-.19-.23-.35-.4-.48-.17-.12-.36-.22-.57-.27-.21-.06-.44-.09-.68-.09-.19,0-.38.02-.57.06-.19.04-.37.11-.53.2-.16.09-.29.22-.39.37-.1.15-.15.34-.15.56,0,.19.05.35.14.48.09.13.21.24.36.33.14.09.3.16.47.22.17.06.33.1.47.14l1.13.26c.24.04.48.1.72.19.24.09.45.22.63.37.18.15.33.34.45.56.12.22.17.49.17.79,0,.38-.08.7-.26.96-.17.26-.39.48-.65.64-.26.17-.56.28-.89.36s-.66.11-.98.11c-.82,0-1.48-.19-1.98-.58-.51-.38-.79-1-.87-1.85h.85c.04.57.24,1,.62,1.3.38.29.85.44,1.42.44.2,0,.42-.02.64-.07.22-.04.42-.12.61-.23.19-.11.34-.24.46-.41.12-.16.18-.37.18-.61,0-.21-.04-.38-.13-.52-.08-.14-.2-.26-.34-.35-.14-.09-.31-.17-.49-.24-.18-.06-.37-.12-.56-.16l-1.09-.24c-.28-.07-.53-.15-.77-.25-.23-.09-.44-.21-.61-.35-.17-.14-.31-.31-.41-.51-.1-.2-.15-.45-.15-.75,0-.35.08-.65.23-.9.16-.25.36-.45.61-.61.25-.15.53-.26.84-.33.31-.07.62-.11.92-.11.35,0,.67.04.97.13.3.09.57.23.79.42.23.19.41.42.54.7.13.28.21.6.23.98h-.85c0-.26-.06-.49-.16-.68"/>
    <path class="cls-2" d="M293.82,11.8c-.31-.29-.75-.44-1.32-.44-.4,0-.76.08-1.06.26-.3.17-.56.39-.76.67-.2.28-.35.59-.46.95-.1.35-.15.71-.15,1.08s.05.73.15,1.08.26.67.46.95c.2.28.45.5.76.67.31.17.66.26,1.06.26.26,0,.51-.05.74-.15.23-.1.44-.23.62-.41.18-.17.33-.38.44-.62.12-.24.19-.51.21-.79h.85c-.12.84-.43,1.5-.93,1.97-.5.47-1.15.71-1.93.71-.53,0-1-.1-1.4-.29-.41-.19-.75-.46-1.03-.79-.28-.33-.49-.72-.63-1.16-.14-.44-.21-.92-.21-1.42s.07-.97.21-1.42c.14-.44.35-.83.63-1.16.28-.33.62-.6,1.03-.79.41-.2.88-.3,1.4-.3.74,0,1.37.2,1.89.59.51.39.82.99.92,1.79h-.85c-.12-.52-.33-.93-.64-1.22"/>
    <path class="cls-2" d="M297.41,9.55h-.85v-1.36h.85v1.36ZM297.41,17.78h-.85v-6.93h.85v6.93Z"/>
    <path class="cls-2" d="M299.66,15.49c.08.33.22.62.41.88.19.26.42.47.71.65.29.17.63.25,1.03.25.62,0,1.1-.16,1.45-.48.35-.32.59-.75.73-1.29h.85c-.18.79-.51,1.4-.99,1.83s-1.16.64-2.04.64c-.55,0-1.02-.1-1.42-.29-.4-.19-.72-.46-.97-.79-.25-.33-.44-.72-.56-1.17-.12-.44-.18-.91-.18-1.4,0-.46.06-.9.18-1.34.12-.44.31-.83.56-1.18.25-.34.57-.62.97-.83.4-.21.87-.32,1.42-.32s1.03.11,1.42.34c.39.22.71.52.96.88.25.36.42.78.53,1.25.11.47.15.95.14,1.43h-5.33c0,.31.04.62.13.95M303.85,12.9c-.1-.29-.25-.56-.44-.79-.19-.23-.42-.41-.68-.55-.27-.14-.57-.21-.91-.21s-.66.07-.93.21c-.27.14-.5.32-.68.55-.19.23-.34.49-.45.79s-.19.61-.22.92h4.48c-.01-.32-.07-.63-.17-.93"/>
    <path class="cls-2" d="M306.83,10.85v1.19h.03c.16-.42.45-.76.86-1.01.41-.26.86-.38,1.36-.38s.89.06,1.21.19c.33.12.59.3.79.53.2.23.34.51.42.84.08.33.12.7.12,1.12v4.46h-.85v-4.32c0-.29-.03-.57-.08-.83-.05-.26-.15-.48-.28-.66-.13-.19-.32-.34-.54-.44-.23-.11-.51-.16-.85-.16s-.64.06-.91.18c-.26.12-.49.29-.67.5-.18.21-.33.46-.43.75-.1.29-.16.61-.17.95v4.04h-.85v-6.93h.85Z"/>
    <polygon class="cls-2" points="318.4 17.07 318.4 17.78 312.61 17.78 312.61 17.09 317.13 11.56 312.92 11.56 312.92 10.85 318.21 10.85 318.21 11.45 313.63 17.07 318.4 17.07"/>
    <path class="cls-2" d="M320.05,15.49c.08.33.22.62.41.88.19.26.42.47.71.65.29.17.63.25,1.03.25.62,0,1.1-.16,1.45-.48.35-.32.59-.75.73-1.29h.85c-.18.79-.51,1.4-.99,1.83s-1.16.64-2.04.64c-.55,0-1.02-.1-1.42-.29-.4-.19-.72-.46-.97-.79-.25-.33-.44-.72-.56-1.17-.12-.44-.18-.91-.18-1.4,0-.46.06-.9.18-1.34.12-.44.31-.83.56-1.18.25-.34.57-.62.97-.83.4-.21.87-.32,1.42-.32s1.03.11,1.42.34c.39.22.71.52.96.88.25.36.42.78.53,1.25.11.47.15.95.14,1.43h-5.33c0,.31.04.62.13.95M324.24,12.9c-.1-.29-.25-.56-.44-.79-.19-.23-.42-.41-.68-.55-.27-.14-.57-.21-.91-.21s-.66.07-.93.21c-.27.14-.5.32-.68.55-.19.23-.34.49-.45.79s-.19.61-.22.92h4.48c-.01-.32-.07-.63-.17-.93"/>
    <path class="cls-2" d="M328.02,17.78c0,.2-.02.39-.07.58-.05.19-.12.37-.22.54-.1.17-.22.31-.37.44-.15.12-.32.21-.52.27v-.58c.11-.04.2-.1.28-.2.08-.1.15-.21.2-.33.05-.12.09-.25.11-.38.02-.13.03-.24.02-.34h-.56v-1.42h1.13v1.42Z"/>
    <path class="cls-2" d="M160.94,23.56c.43,0,.82.06,1.17.18.35.12.65.3.9.54.25.24.44.53.58.87.13.34.2.73.2,1.16s-.07.81-.2,1.15c-.13.34-.33.63-.58.87-.25.24-.55.42-.9.54-.35.12-.74.18-1.17.18h-3.34v4.11h-.91v-9.59h4.26ZM160.73,28.26c.64,0,1.15-.16,1.54-.48.39-.32.59-.81.59-1.48s-.2-1.16-.59-1.48c-.39-.32-.91-.48-1.54-.48h-3.14v3.92h3.14Z"/>
    <path class="cls-2" d="M168.97,27.57c-.1-.19-.23-.35-.4-.48-.17-.12-.36-.22-.57-.27-.22-.06-.44-.09-.68-.09-.19,0-.38.02-.57.06-.19.04-.37.11-.53.2-.16.09-.29.22-.39.37-.1.15-.15.34-.15.56,0,.19.05.35.14.48.09.13.21.24.36.33.14.09.3.16.47.22.17.06.33.1.47.14l1.13.26c.24.04.48.1.72.19.24.09.45.22.63.37.18.15.33.34.45.56.12.22.17.49.17.79,0,.38-.08.7-.25.96-.17.26-.39.48-.65.64-.26.17-.56.28-.89.36-.33.07-.66.11-.98.11-.81,0-1.47-.19-1.98-.58-.51-.39-.79-1-.87-1.85h.85c.04.57.24,1.01.62,1.3s.85.44,1.42.44c.21,0,.42-.02.64-.07.22-.04.42-.12.61-.23.19-.11.34-.24.46-.41.12-.16.18-.37.18-.61,0-.21-.04-.38-.13-.52-.08-.14-.2-.26-.34-.35-.14-.09-.31-.17-.49-.24-.18-.06-.37-.12-.56-.16l-1.09-.24c-.28-.07-.53-.15-.77-.25-.23-.09-.44-.21-.61-.35-.17-.14-.31-.31-.41-.51-.1-.2-.15-.45-.15-.75,0-.35.08-.65.24-.9.16-.25.36-.45.61-.61.25-.15.53-.26.84-.33.31-.07.61-.11.92-.11.35,0,.67.04.97.13.3.09.57.23.79.42s.41.42.54.7c.13.28.21.6.23.98h-.85c0-.26-.06-.49-.16-.68"/>
    <path class="cls-2" d="M172.3,24.92h-.85v-1.36h.85v1.36ZM172.3,33.15h-.85v-6.93h.85v6.93Z"/>
    <path class="cls-2" d="M178.16,27.17c-.31-.29-.75-.44-1.32-.44-.4,0-.76.08-1.06.26-.3.17-.56.39-.76.67-.2.28-.35.59-.46.95-.1.35-.15.71-.15,1.08s.05.73.15,1.08c.1.35.25.67.46.95.2.28.46.5.76.67.3.17.66.26,1.06.26.26,0,.51-.05.74-.15.23-.1.44-.23.62-.41.18-.18.33-.38.44-.62.12-.24.19-.51.21-.79h.85c-.12.84-.43,1.5-.93,1.97-.5.47-1.15.71-1.93.71-.53,0-1-.1-1.4-.29-.41-.19-.75-.45-1.03-.79-.28-.33-.49-.72-.63-1.16-.14-.44-.21-.92-.21-1.42s.07-.97.21-1.42c.14-.44.35-.83.63-1.16.28-.33.62-.6,1.03-.79.41-.2.88-.3,1.4-.3.74,0,1.37.2,1.89.59s.82.99.92,1.79h-.85c-.12-.52-.33-.93-.65-1.22"/>
    <path class="cls-2" d="M185.22,26.31c.41.2.75.46,1.03.79.28.33.49.72.63,1.16.14.44.21.92.21,1.42s-.07.97-.21,1.42c-.14.44-.35.83-.63,1.16-.28.33-.62.59-1.03.79-.41.19-.88.29-1.4.29s-1-.1-1.4-.29c-.41-.19-.75-.45-1.03-.79-.28-.33-.49-.72-.63-1.16-.14-.44-.21-.92-.21-1.42s.07-.97.21-1.42c.14-.44.35-.83.63-1.16.28-.33.62-.6,1.03-.79.41-.2.88-.3,1.4-.3s1,.1,1.4.3M182.76,26.98c-.3.17-.56.39-.76.67-.2.28-.35.59-.46.95-.1.35-.15.71-.15,1.08s.05.73.15,1.08.25.67.46.95c.2.28.46.5.76.67.3.17.66.26,1.06.26s.76-.08,1.06-.26c.31-.17.56-.39.76-.67.2-.28.35-.59.46-.95.1-.35.15-.71.15-1.08s-.05-.73-.15-1.08c-.1-.35-.26-.67-.46-.95-.2-.28-.45-.5-.76-.67-.3-.17-.66-.26-1.06-.26s-.76.09-1.06.26"/>
    <rect class="cls-2" x="188.37" y="23.56" width=".85" height="9.59"/>
    <path class="cls-2" d="M195.17,26.31c.41.2.75.46,1.03.79.28.33.49.72.63,1.16.14.44.21.92.21,1.42s-.07.97-.21,1.42c-.14.44-.35.83-.63,1.16-.28.33-.62.59-1.03.79-.41.19-.88.29-1.4.29s-1-.1-1.4-.29c-.41-.19-.75-.45-1.03-.79-.28-.33-.49-.72-.63-1.16-.14-.44-.21-.92-.21-1.42s.07-.97.21-1.42c.14-.44.35-.83.63-1.16.28-.33.62-.6,1.03-.79.41-.2.88-.3,1.4-.3s1,.1,1.4.3M192.71,26.98c-.3.17-.56.39-.76.67-.2.28-.35.59-.46.95-.1.35-.15.71-.15,1.08s.05.73.15,1.08.25.67.46.95c.2.28.46.5.76.67.3.17.66.26,1.06.26s.76-.08,1.06-.26c.31-.17.56-.39.76-.67.2-.28.35-.59.46-.95.1-.35.15-.71.15-1.08s-.05-.73-.15-1.08c-.1-.35-.26-.67-.46-.95-.2-.28-.45-.5-.76-.67-.3-.17-.66-.26-1.06-.26s-.76.09-1.06.26"/>
    <path class="cls-2" d="M203.99,33.97c-.11.41-.29.76-.53,1.05-.24.29-.56.51-.95.66-.39.15-.87.23-1.43.23-.35,0-.69-.04-1.02-.12-.33-.08-.63-.21-.89-.38-.26-.17-.48-.39-.66-.65s-.27-.58-.3-.95h.85c.04.26.13.48.26.65.13.17.29.32.47.42.18.11.39.18.61.24.22.05.45.07.68.07.79,0,1.36-.22,1.71-.67s.52-1.09.52-1.93v-.94h-.03c-.2.43-.49.77-.87,1.03-.38.26-.83.39-1.34.39-.55,0-1.03-.09-1.42-.28-.39-.18-.72-.44-.97-.76-.26-.32-.44-.7-.56-1.13-.12-.43-.17-.9-.17-1.39s.07-.92.21-1.35c.14-.42.34-.8.6-1.12.26-.32.59-.57.98-.75.39-.18.84-.27,1.34-.27.26,0,.5.04.73.11.23.07.44.17.62.3.19.13.36.28.5.45.15.17.26.35.34.54h.03v-1.19h.85v6.36c0,.51-.05.97-.17,1.38M202.05,32.12c.28-.16.51-.36.7-.62.19-.26.33-.55.42-.88.09-.33.14-.67.14-1.02s-.04-.68-.12-1.02c-.08-.34-.21-.65-.39-.93-.18-.28-.41-.5-.69-.67-.28-.17-.62-.26-1.03-.26s-.75.08-1.03.25c-.29.17-.52.38-.71.65-.19.27-.32.57-.41.92-.08.35-.13.7-.13,1.05s.04.69.13,1.02c.09.33.23.62.42.88.19.26.43.46.71.62.29.16.63.24,1.02.24.37,0,.69-.08.97-.24"/>
    <path class="cls-2" d="M206.63,24.92h-.85v-1.36h.85v1.36ZM206.63,33.15h-.85v-6.93h.85v6.93Z"/>
    <path class="cls-2" d="M208.43,27.29c.14-.3.34-.54.58-.72.25-.19.54-.33.87-.42.33-.09.7-.14,1.1-.14.31,0,.61.03.91.09.31.06.58.17.82.33.24.16.44.39.59.68.15.29.23.67.23,1.13v3.68c0,.34.17.51.5.51.1,0,.19-.02.27-.05v.71c-.1.02-.19.03-.26.04-.08,0-.17.01-.29.01-.21,0-.39-.03-.52-.09-.13-.06-.23-.14-.3-.25-.07-.11-.12-.24-.14-.38-.02-.15-.03-.31-.03-.49h-.03c-.15.22-.31.42-.46.6-.16.17-.33.32-.52.44-.19.12-.41.21-.66.27-.25.06-.54.09-.88.09-.32,0-.62-.04-.91-.11-.28-.08-.53-.2-.74-.36-.21-.16-.38-.38-.5-.63-.12-.26-.18-.56-.18-.91,0-.48.11-.86.32-1.13.21-.27.5-.48.85-.62.35-.14.75-.24,1.19-.3.44-.06.89-.11,1.35-.17.18-.02.34-.04.47-.07.14-.03.25-.07.34-.14.09-.07.16-.16.21-.27.05-.12.07-.27.07-.46,0-.29-.05-.52-.14-.71-.09-.18-.22-.33-.39-.44-.17-.11-.36-.18-.58-.22-.22-.04-.45-.06-.71-.06-.54,0-.98.13-1.32.38-.34.26-.52.67-.54,1.23h-.85c.03-.4.11-.75.25-1.05M212.66,29.36c-.05.1-.16.17-.31.22-.15.04-.29.08-.4.09-.36.06-.73.12-1.11.17-.38.05-.73.12-1.04.22-.31.1-.57.24-.77.42-.2.18-.3.45-.3.79,0,.22.04.4.13.57.09.16.2.31.34.43.14.12.31.21.5.27.19.06.38.09.58.09.32,0,.63-.05.93-.15.3-.1.55-.24.77-.43.22-.19.39-.42.52-.68.13-.27.19-.57.19-.91v-1.1h-.03Z"/>
    <path class="cls-2" d="M216.85,33.15c0,.2-.02.39-.07.58-.05.19-.12.37-.22.54-.1.17-.22.31-.37.44-.15.12-.32.21-.52.27v-.58c.11-.04.2-.1.28-.2.08-.1.15-.21.2-.33.05-.12.09-.25.11-.38.02-.13.03-.24.02-.34h-.56v-1.42h1.13v1.42Z"/>
    <path class="cls-2" d="M226.68,23.56l3.76,9.59h-.98l-1.17-2.98h-4.37l-1.15,2.98h-.97l3.85-9.59h1.02ZM227.98,29.39l-1.85-4.92-1.92,4.92h3.77Z"/>
    <path class="cls-2" d="M231.93,26.22v1.62h.03c.21-.56.55-1,1-1.3.45-.3.99-.44,1.62-.42v.85c-.39-.02-.73.03-1.05.16-.31.12-.58.29-.81.52-.23.22-.4.49-.53.8-.13.31-.19.65-.19,1.01v3.69h-.85v-6.93h.78Z"/>
    <path class="cls-2" d="M235.77,30.86c.09.33.22.62.41.88.19.26.43.47.71.65.29.17.63.25,1.03.25.62,0,1.1-.16,1.45-.48.35-.32.59-.75.73-1.29h.84c-.18.79-.51,1.4-.99,1.83s-1.16.64-2.04.64c-.55,0-1.02-.1-1.42-.29-.4-.19-.72-.46-.97-.79-.25-.33-.44-.72-.56-1.17-.12-.44-.18-.91-.18-1.4,0-.46.06-.9.18-1.34.12-.44.31-.83.56-1.18.25-.34.57-.62.97-.83.4-.21.87-.32,1.42-.32s1.03.11,1.42.34c.39.22.71.52.96.88.25.36.42.78.53,1.25.11.47.15.95.14,1.43h-5.33c0,.31.04.62.13.95M239.96,28.27c-.1-.29-.25-.56-.44-.79-.19-.23-.42-.41-.68-.55-.27-.14-.57-.21-.91-.21s-.66.07-.93.21c-.27.14-.5.32-.68.55-.19.23-.34.49-.45.79-.11.3-.19.61-.22.92h4.49c0-.32-.07-.63-.17-.93"/>
    <path class="cls-2" d="M242.29,27.29c.14-.3.34-.54.58-.72.25-.19.54-.33.87-.42.33-.09.7-.14,1.1-.14.31,0,.61.03.91.09.31.06.58.17.82.33.24.16.44.39.59.68.15.29.23.67.23,1.13v3.68c0,.34.17.51.5.51.1,0,.19-.02.27-.05v.71c-.1.02-.19.03-.26.04-.08,0-.17.01-.29.01-.21,0-.39-.03-.52-.09-.13-.06-.23-.14-.3-.25-.07-.11-.12-.24-.14-.38-.02-.15-.03-.31-.03-.49h-.03c-.15.22-.31.42-.46.6-.16.17-.33.32-.52.44-.19.12-.41.21-.66.27-.25.06-.54.09-.88.09-.32,0-.62-.04-.91-.11-.28-.08-.53-.2-.74-.36-.21-.16-.38-.38-.5-.63-.12-.26-.18-.56-.18-.91,0-.48.11-.86.32-1.13.21-.27.5-.48.85-.62.35-.14.75-.24,1.19-.3.44-.06.89-.11,1.35-.17.18-.02.34-.04.47-.07.14-.03.25-.07.34-.14.09-.07.16-.16.21-.27.05-.12.07-.27.07-.46,0-.29-.05-.52-.14-.71-.09-.18-.22-.33-.39-.44-.17-.11-.36-.18-.58-.22-.22-.04-.45-.06-.71-.06-.54,0-.98.13-1.32.38-.34.26-.52.67-.54,1.23h-.85c.03-.4.11-.75.25-1.05M246.51,29.36c-.05.1-.16.17-.31.22-.15.04-.29.08-.4.09-.36.06-.73.12-1.11.17-.38.05-.73.12-1.04.22-.31.1-.57.24-.77.42-.2.18-.3.45-.3.79,0,.22.04.4.13.57.09.16.2.31.34.43.14.12.31.21.5.27.19.06.38.09.58.09.32,0,.63-.05.93-.15.3-.1.55-.24.77-.43.22-.19.39-.42.52-.68.13-.27.19-.57.19-.91v-1.1h-.03Z"/>
    <path class="cls-2" d="M258.13,33.15v-1.32h-.03c-.09.22-.22.43-.4.62-.17.19-.37.35-.6.48-.22.13-.46.23-.72.3-.25.07-.51.11-.76.11-.53,0-.99-.1-1.38-.29-.39-.19-.71-.46-.97-.79-.26-.34-.45-.73-.58-1.17-.12-.44-.19-.91-.19-1.4s.06-.96.19-1.4.32-.83.58-1.17c.26-.34.58-.6.97-.8.39-.2.85-.29,1.38-.29.26,0,.51.03.76.09.25.06.48.16.69.29.21.13.4.29.57.48.17.19.29.41.38.66h.03v-3.97h.85v9.59h-.78ZM253.49,30.75c.09.35.22.67.4.95.18.28.42.5.71.68.29.17.63.26,1.04.26.45,0,.82-.09,1.13-.26.31-.17.56-.4.75-.68.19-.28.33-.59.42-.95.09-.35.13-.71.13-1.07s-.04-.71-.13-1.07c-.08-.35-.22-.67-.42-.95-.19-.28-.44-.5-.75-.68-.31-.18-.69-.26-1.13-.26-.4,0-.75.09-1.04.26-.29.17-.52.4-.71.68-.18.28-.32.59-.4.95s-.13.71-.13,1.07.04.71.13,1.07"/>
    <path class="cls-2" d="M261.15,30.86c.08.33.22.62.41.88.19.26.42.47.71.65.29.17.63.25,1.03.25.62,0,1.1-.16,1.45-.48.35-.32.59-.75.73-1.29h.85c-.18.79-.51,1.4-.99,1.83s-1.16.64-2.04.64c-.55,0-1.02-.1-1.42-.29-.4-.19-.72-.46-.97-.79-.25-.33-.44-.72-.56-1.17-.12-.44-.18-.91-.18-1.4,0-.46.06-.9.18-1.34.12-.44.31-.83.56-1.18.25-.34.57-.62.97-.83.4-.21.87-.32,1.42-.32s1.03.11,1.42.34c.39.22.71.52.96.88.25.36.42.78.53,1.25.11.47.15.95.14,1.43h-5.33c0,.31.04.62.13.95M265.34,28.27c-.1-.29-.25-.56-.44-.79-.19-.23-.42-.41-.68-.55-.27-.14-.57-.21-.91-.21s-.66.07-.93.21c-.27.14-.5.32-.68.55-.19.23-.34.49-.45.79s-.19.61-.22.92h4.48c-.01-.32-.07-.63-.17-.93"/>
    <rect class="cls-2" x="267.5" y="23.56" width=".85" height="9.59"/>
    <polygon class="cls-2" points="279.95 23.56 279.95 24.34 274.78 24.34 274.78 27.8 279.37 27.8 279.37 28.58 274.78 28.58 274.78 33.15 273.87 33.15 273.87 23.56 279.95 23.56"/>
    <path class="cls-2" d="M281.09,27.29c.14-.3.34-.54.58-.72.25-.19.54-.33.87-.42.33-.09.7-.14,1.1-.14.3,0,.61.03.91.09.3.06.58.17.82.33.24.16.44.39.59.68.15.29.23.67.23,1.13v3.68c0,.34.17.51.5.51.1,0,.19-.02.27-.05v.71c-.1.02-.19.03-.26.04-.08,0-.17.01-.29.01-.22,0-.39-.03-.52-.09-.13-.06-.23-.14-.3-.25-.07-.11-.12-.24-.14-.38-.02-.15-.03-.31-.03-.49h-.03c-.15.22-.31.42-.46.6-.16.17-.33.32-.52.44-.19.12-.41.21-.66.27-.25.06-.54.09-.88.09-.32,0-.62-.04-.91-.11-.28-.08-.53-.2-.74-.36-.21-.16-.38-.38-.5-.63-.12-.26-.18-.56-.18-.91,0-.48.11-.86.32-1.13s.5-.48.85-.62c.35-.14.75-.24,1.2-.3.44-.06.89-.11,1.35-.17.18-.02.34-.04.47-.07.14-.03.25-.07.34-.14.09-.07.16-.16.21-.27.05-.12.07-.27.07-.46,0-.29-.05-.52-.14-.71-.09-.18-.22-.33-.39-.44-.17-.11-.36-.18-.58-.22-.22-.04-.45-.06-.71-.06-.54,0-.98.13-1.32.38-.34.26-.52.67-.54,1.23h-.85c.03-.4.11-.75.26-1.05M285.32,29.36c-.05.1-.16.17-.31.22-.15.04-.29.08-.4.09-.36.06-.73.12-1.11.17-.38.05-.73.12-1.04.22-.31.1-.57.24-.77.42-.2.18-.3.45-.3.79,0,.22.04.4.13.57.09.16.2.31.34.43.14.12.31.21.5.27.19.06.38.09.58.09.32,0,.63-.05.93-.15.3-.1.55-.24.77-.43.22-.19.39-.42.52-.68.13-.27.2-.57.2-.91v-1.1h-.03Z"/>
    <path class="cls-2" d="M288.67,26.22v1.62h.03c.21-.56.55-1,1-1.3.45-.3.99-.44,1.62-.42v.85c-.38-.02-.73.03-1.05.16-.31.12-.58.29-.81.52-.23.22-.4.49-.53.8-.13.31-.19.65-.19,1.01v3.69h-.85v-6.93h.78Z"/>
    <path class="cls-2" d="M292.9,26.22v1.17h.04c.22-.43.52-.76.88-1.01.36-.24.82-.36,1.39-.36.46,0,.87.11,1.24.33.37.22.62.56.74,1.02.21-.46.51-.8.91-1.02.4-.22.83-.33,1.29-.33,1.53,0,2.3.81,2.3,2.43v4.7h-.85v-4.66c0-.57-.12-1.01-.36-1.31-.24-.3-.67-.45-1.28-.45-.37,0-.67.07-.91.21-.24.14-.43.32-.58.56-.14.23-.24.5-.3.8-.06.3-.09.61-.09.93v3.92h-.85v-4.7c0-.23-.02-.45-.07-.67-.05-.21-.13-.39-.24-.55-.11-.16-.26-.28-.45-.37-.19-.09-.42-.14-.68-.14-.36,0-.67.07-.93.2-.26.13-.48.31-.64.54-.17.23-.29.5-.37.81-.08.31-.12.65-.12,1.01v3.87h-.85v-6.93h.78Z"/>
    <path class="cls-2" d="M303.48,27.29c.14-.3.34-.54.58-.72.25-.19.54-.33.87-.42.33-.09.7-.14,1.1-.14.3,0,.61.03.91.09.3.06.58.17.82.33.24.16.44.39.59.68.15.29.23.67.23,1.13v3.68c0,.34.17.51.5.51.1,0,.19-.02.27-.05v.71c-.1.02-.19.03-.26.04-.08,0-.17.01-.29.01-.22,0-.39-.03-.52-.09-.13-.06-.23-.14-.3-.25-.07-.11-.12-.24-.14-.38-.02-.15-.03-.31-.03-.49h-.03c-.15.22-.31.42-.46.6-.16.17-.33.32-.52.44-.19.12-.41.21-.66.27-.25.06-.54.09-.88.09-.32,0-.62-.04-.91-.11-.28-.08-.53-.2-.74-.36-.21-.16-.38-.38-.5-.63-.12-.26-.18-.56-.18-.91,0-.48.11-.86.32-1.13s.5-.48.85-.62c.35-.14.75-.24,1.2-.3.44-.06.89-.11,1.35-.17.18-.02.34-.04.47-.07.14-.03.25-.07.34-.14.09-.07.16-.16.21-.27.05-.12.07-.27.07-.46,0-.29-.05-.52-.14-.71-.09-.18-.22-.33-.39-.44-.17-.11-.36-.18-.58-.22-.22-.04-.45-.06-.71-.06-.54,0-.98.13-1.32.38-.34.26-.52.67-.54,1.23h-.85c.03-.4.11-.75.26-1.05M307.71,29.36c-.05.1-.16.17-.31.22-.15.04-.29.08-.4.09-.36.06-.73.12-1.11.17-.38.05-.73.12-1.04.22-.31.1-.57.24-.77.42-.2.18-.3.45-.3.79,0,.22.04.4.13.57.09.16.2.31.34.43.14.12.31.21.5.27.19.06.38.09.58.09.32,0,.63-.05.93-.15.3-.1.55-.24.77-.43.22-.19.39-.42.52-.68.13-.27.2-.57.2-.91v-1.1h-.03Z"/>
    <path class="cls-2" d="M314.52,27.17c-.31-.29-.75-.44-1.32-.44-.4,0-.76.08-1.06.26-.3.17-.56.39-.76.67-.2.28-.35.59-.46.95-.1.35-.15.71-.15,1.08s.05.73.15,1.08.26.67.46.95c.2.28.45.5.76.67.31.17.66.26,1.06.26.26,0,.51-.05.74-.15.23-.1.44-.23.62-.41.18-.18.33-.38.44-.62.12-.24.19-.51.21-.79h.85c-.12.84-.43,1.5-.93,1.97-.5.47-1.15.71-1.93.71-.53,0-1-.1-1.4-.29-.41-.19-.75-.45-1.03-.79-.28-.33-.49-.72-.63-1.16-.14-.44-.21-.92-.21-1.42s.07-.97.21-1.42c.14-.44.35-.83.63-1.16.28-.33.62-.6,1.03-.79.41-.2.88-.3,1.4-.3.74,0,1.37.2,1.89.59.51.39.82.99.92,1.79h-.85c-.12-.52-.33-.93-.64-1.22"/>
    <path class="cls-2" d="M321.57,26.31c.41.2.75.46,1.03.79.28.33.49.72.63,1.16.14.44.22.92.22,1.42s-.07.97-.22,1.42c-.14.44-.35.83-.63,1.16-.28.33-.62.59-1.03.79-.41.19-.88.29-1.4.29s-1-.1-1.4-.29c-.41-.19-.75-.45-1.03-.79-.28-.33-.49-.72-.63-1.16-.14-.44-.21-.92-.21-1.42s.07-.97.21-1.42c.14-.44.35-.83.63-1.16.28-.33.62-.6,1.03-.79.41-.2.88-.3,1.4-.3s.99.1,1.4.3M319.11,26.98c-.3.17-.56.39-.76.67-.2.28-.35.59-.46.95-.1.35-.15.71-.15,1.08s.05.73.15,1.08.26.67.46.95c.2.28.46.5.76.67.3.17.66.26,1.06.26s.75-.08,1.06-.26c.3-.17.56-.39.76-.67.2-.28.35-.59.46-.95s.15-.71.15-1.08-.05-.73-.15-1.08c-.1-.35-.26-.67-.46-.95-.2-.28-.45-.5-.76-.67-.31-.17-.66-.26-1.06-.26s-.76.09-1.06.26"/>
    <path class="cls-2" d="M157.14,46.23c.09.33.22.62.41.88.19.26.43.47.71.65.29.17.63.25,1.03.25.62,0,1.1-.16,1.45-.48.35-.32.59-.75.73-1.29h.84c-.18.79-.51,1.4-.99,1.83-.48.43-1.16.64-2.04.64-.55,0-1.02-.1-1.42-.29-.4-.19-.72-.46-.97-.79-.25-.33-.44-.72-.56-1.17-.12-.44-.18-.91-.18-1.4,0-.46.06-.9.18-1.34.12-.44.31-.83.56-1.17.25-.34.57-.62.97-.83.4-.21.87-.32,1.42-.32s1.03.11,1.42.34c.39.22.71.52.96.88.25.36.42.78.53,1.25.11.47.15.95.14,1.43h-5.33c0,.31.04.62.13.95M161.33,43.64c-.1-.3-.25-.56-.44-.79-.19-.23-.42-.41-.68-.55-.27-.14-.57-.21-.91-.21s-.66.07-.93.21c-.27.14-.5.32-.68.55-.19.23-.34.49-.45.79s-.19.61-.22.92h4.49c0-.32-.07-.63-.17-.93"/>
    <path class="cls-2" d="M168.04,46.6c.16.33.38.6.66.79.28.2.62.34,1,.42.39.09.8.13,1.24.13.25,0,.52-.04.82-.11.29-.07.57-.19.82-.34.26-.16.47-.36.64-.6.17-.25.25-.54.25-.89,0-.27-.06-.5-.18-.7-.12-.2-.28-.36-.47-.5-.19-.14-.4-.24-.64-.33-.23-.08-.46-.15-.68-.21l-2.14-.52c-.28-.07-.55-.16-.81-.27-.26-.11-.49-.25-.69-.43-.2-.18-.35-.4-.48-.66-.12-.26-.18-.58-.18-.95,0-.23.04-.51.13-.82.09-.31.26-.61.5-.89.25-.28.59-.51,1.01-.7.43-.19.98-.29,1.65-.29.47,0,.93.06,1.36.19.43.12.81.31,1.13.56.32.25.58.56.77.93.19.37.29.8.29,1.3h-.91c-.02-.37-.1-.69-.25-.96-.15-.27-.34-.5-.58-.68-.24-.18-.51-.32-.82-.42-.31-.09-.63-.14-.97-.14-.31,0-.62.03-.91.1-.29.07-.55.17-.77.32-.22.15-.4.34-.53.58-.13.24-.2.54-.2.9,0,.22.04.42.11.58.08.17.18.31.32.42.14.12.29.21.46.28.17.07.36.13.56.17l2.34.58c.34.09.66.2.96.33.3.13.57.29.79.48.23.19.41.43.54.7.13.28.2.61.2,1.01,0,.11-.01.25-.03.43-.02.18-.08.37-.16.57-.09.2-.21.41-.36.61-.16.21-.37.39-.65.56-.27.17-.61.3-1.01.4-.4.1-.89.15-1.45.15s-1.09-.06-1.57-.19c-.48-.13-.9-.33-1.24-.6-.34-.27-.6-.61-.79-1.03-.18-.42-.26-.93-.24-1.52h.91c0,.49.07.9.23,1.24"/>
    <path class="cls-2" d="M175.86,42.66c.14-.3.34-.54.58-.72.25-.19.54-.33.87-.42.33-.09.7-.14,1.1-.14.31,0,.61.03.91.09.31.06.58.17.82.33.24.16.44.39.59.68.15.29.23.67.23,1.14v3.68c0,.34.17.51.5.51.1,0,.19-.02.27-.05v.71c-.1.02-.19.03-.26.04s-.17.01-.29.01c-.21,0-.39-.03-.52-.09-.13-.06-.23-.14-.3-.25-.07-.11-.12-.24-.14-.38-.02-.15-.03-.31-.03-.49h-.03c-.15.22-.31.42-.46.6-.16.17-.33.32-.52.44-.19.12-.41.21-.66.27-.25.06-.54.09-.88.09-.32,0-.62-.04-.91-.12-.28-.07-.53-.2-.74-.36-.21-.16-.38-.38-.5-.63-.12-.26-.18-.56-.18-.91,0-.48.11-.86.32-1.13.22-.27.5-.48.85-.62.35-.14.75-.24,1.19-.3.44-.06.89-.11,1.35-.17.18-.02.34-.04.47-.07.14-.03.25-.07.34-.14.09-.07.16-.16.21-.28.05-.12.07-.27.07-.46,0-.29-.05-.52-.14-.7-.09-.18-.22-.33-.39-.44-.17-.11-.36-.18-.58-.22-.22-.04-.45-.06-.71-.06-.54,0-.98.13-1.32.38-.34.26-.52.66-.54,1.23h-.84c.03-.4.11-.75.25-1.05M180.08,44.73c-.05.1-.16.17-.31.22-.15.05-.29.08-.4.09-.36.06-.73.12-1.11.17-.38.05-.73.12-1.04.22-.31.1-.57.24-.77.42-.2.18-.3.44-.3.79,0,.22.04.41.13.57.09.16.2.31.34.43.14.12.31.21.5.27.19.06.38.09.58.09.32,0,.63-.05.93-.15.3-.1.55-.24.77-.43.22-.19.39-.42.52-.68.13-.27.19-.57.19-.91v-1.1h-.03Z"/>
    <rect class="cls-2" x="182.66" y="38.93" width=".85" height="9.59"/>
    <path class="cls-2" d="M189.97,48.52v-1.25h-.03c-.22.47-.55.82-.97,1.07-.43.25-.9.37-1.42.37-.44,0-.81-.06-1.12-.18-.31-.12-.56-.29-.75-.52-.19-.22-.33-.5-.42-.82-.09-.32-.14-.69-.14-1.1v-4.5h.85v4.51c.02.63.16,1.1.44,1.42.27.32.75.48,1.42.48.37,0,.68-.08.94-.23.26-.16.47-.36.64-.62.17-.26.29-.56.38-.89.08-.34.12-.68.12-1.03v-3.64h.85v6.93h-.78Z"/>
    <path class="cls-2" d="M195.1,41.59v.71h-1.41v4.67c0,.28.04.49.11.65.08.16.27.24.57.26.24,0,.48-.01.73-.04v.71c-.13,0-.25,0-.38.01-.13,0-.25.01-.38.01-.56,0-.96-.11-1.18-.33-.22-.22-.33-.62-.32-1.22v-4.74h-1.21v-.71h1.21v-2.08h.85v2.08h1.41Z"/>
    <path class="cls-2" d="M196.94,46.23c.09.33.22.62.41.88.19.26.43.47.71.65.29.17.63.25,1.03.25.62,0,1.1-.16,1.45-.48.35-.32.59-.75.73-1.29h.84c-.18.79-.51,1.4-.99,1.83-.48.43-1.16.64-2.04.64-.55,0-1.02-.1-1.42-.29-.4-.19-.72-.46-.97-.79-.25-.33-.44-.72-.56-1.17-.12-.44-.18-.91-.18-1.4,0-.46.06-.9.18-1.34.12-.44.31-.83.56-1.17.25-.34.57-.62.97-.83.4-.21.87-.32,1.42-.32s1.03.11,1.42.34c.39.22.71.52.96.88.25.36.42.78.53,1.25.11.47.15.95.14,1.43h-5.33c0,.31.04.62.13.95M201.13,43.64c-.1-.3-.25-.56-.44-.79-.19-.23-.42-.41-.68-.55-.27-.14-.57-.21-.91-.21s-.66.07-.93.21c-.27.14-.5.32-.68.55-.19.23-.34.49-.45.79s-.19.61-.22.92h4.49c0-.32-.07-.63-.17-.93"/>
    <path class="cls-2" d="M212.34,48.52v-1.32h-.03c-.09.22-.22.43-.4.62-.18.19-.37.35-.6.48-.22.13-.46.23-.72.3-.26.07-.51.11-.76.11-.53,0-.99-.1-1.38-.29-.39-.19-.71-.46-.97-.79-.26-.34-.45-.73-.58-1.17-.12-.44-.19-.91-.19-1.4s.06-.96.19-1.4c.12-.44.32-.83.58-1.17.26-.34.58-.6.97-.8.39-.2.85-.3,1.38-.3.26,0,.51.03.76.09.25.06.48.16.69.29.21.13.4.29.57.48s.29.41.38.66h.03v-3.98h.85v9.59h-.78ZM207.7,46.12c.09.35.22.67.4.95.18.28.42.5.71.68.29.17.63.26,1.04.26.45,0,.82-.09,1.13-.26.31-.17.56-.4.75-.68.19-.28.33-.59.42-.95.08-.35.13-.71.13-1.07s-.04-.71-.13-1.07c-.09-.35-.22-.67-.42-.95-.19-.28-.44-.5-.75-.68-.31-.17-.69-.26-1.13-.26-.4,0-.75.09-1.04.26s-.52.4-.71.68c-.18.28-.32.59-.4.95s-.13.71-.13,1.07.04.71.13,1.07"/>
    <path class="cls-2" d="M215.35,46.23c.09.33.22.62.41.88.19.26.43.47.71.65.29.17.63.25,1.03.25.62,0,1.1-.16,1.45-.48.35-.32.59-.75.73-1.29h.84c-.18.79-.51,1.4-.99,1.83-.48.43-1.16.64-2.04.64-.55,0-1.02-.1-1.42-.29-.4-.19-.72-.46-.97-.79-.25-.33-.44-.72-.56-1.17-.12-.44-.18-.91-.18-1.4,0-.46.06-.9.18-1.34.12-.44.31-.83.56-1.17.25-.34.57-.62.97-.83.4-.21.87-.32,1.42-.32s1.03.11,1.42.34c.39.22.71.52.96.88.25.36.42.78.53,1.25.11.47.15.95.14,1.43h-5.33c0,.31.04.62.13.95M219.54,43.64c-.1-.3-.25-.56-.44-.79-.19-.23-.42-.41-.68-.55-.27-.14-.57-.21-.91-.21s-.66.07-.93.21c-.27.14-.5.32-.68.55-.19.23-.34.49-.45.79-.11.3-.19.61-.22.92h4.49c0-.32-.07-.63-.17-.93"/>
    <rect class="cls-2" x="221.71" y="38.93" width=".85" height="9.59"/>
    <path class="cls-2" d="M232.13,38.93c.4,0,.79.04,1.16.11.37.08.7.21.98.39.28.18.51.43.68.73.17.3.26.67.26,1.12,0,.25-.04.49-.12.73-.08.24-.19.45-.34.64-.15.19-.32.36-.52.49-.2.14-.43.23-.68.28v.03c.62.08,1.11.33,1.48.76.37.42.55.95.55,1.58,0,.15-.01.32-.04.52-.03.19-.08.39-.16.59-.08.2-.2.4-.35.6-.15.2-.36.37-.61.52-.26.15-.57.27-.94.36-.37.09-.82.14-1.34.14h-4.06v-9.59h4.06ZM232.13,43.13c.37,0,.68-.04.95-.13.27-.09.49-.2.67-.35.18-.15.31-.32.4-.52.09-.2.14-.41.14-.63,0-1.2-.72-1.8-2.16-1.8h-3.14v3.42h3.14ZM232.13,47.74c.34,0,.66-.03.97-.09.3-.06.57-.16.81-.32.23-.15.42-.36.55-.61.13-.26.2-.58.2-.96,0-.62-.22-1.08-.65-1.39s-1.06-.46-1.87-.46h-3.14v3.83h3.14Z"/>
    <path class="cls-2" d="M237.05,42.66c.14-.3.34-.54.58-.72.25-.19.54-.33.87-.42.33-.09.7-.14,1.1-.14.31,0,.61.03.91.09.31.06.58.17.82.33.24.16.44.39.59.68.15.29.23.67.23,1.14v3.68c0,.34.17.51.5.51.1,0,.19-.02.27-.05v.71c-.1.02-.19.03-.26.04s-.17.01-.29.01c-.21,0-.39-.03-.52-.09-.13-.06-.23-.14-.3-.25-.07-.11-.12-.24-.14-.38-.02-.15-.03-.31-.03-.49h-.03c-.15.22-.31.42-.46.6-.16.17-.33.32-.52.44-.19.12-.41.21-.66.27-.25.06-.54.09-.88.09-.32,0-.62-.04-.91-.12-.28-.07-.53-.2-.74-.36-.21-.16-.38-.38-.5-.63-.12-.26-.18-.56-.18-.91,0-.48.11-.86.32-1.13.21-.27.5-.48.85-.62.35-.14.75-.24,1.19-.3.44-.06.89-.11,1.35-.17.18-.02.34-.04.47-.07.14-.03.25-.07.34-.14.09-.07.16-.16.21-.28.05-.12.07-.27.07-.46,0-.29-.05-.52-.14-.7-.09-.18-.22-.33-.39-.44-.17-.11-.36-.18-.58-.22-.22-.04-.45-.06-.71-.06-.54,0-.98.13-1.32.38-.34.26-.52.66-.54,1.23h-.85c.03-.4.11-.75.25-1.05M241.28,44.73c-.05.1-.16.17-.31.22-.15.05-.29.08-.4.09-.36.06-.73.12-1.11.17-.38.05-.73.12-1.04.22-.31.1-.57.24-.77.42-.2.18-.3.44-.3.79,0,.22.04.41.13.57.09.16.2.31.34.43.14.12.31.21.5.27.19.06.38.09.58.09.32,0,.63-.05.93-.15.3-.1.55-.24.77-.43.22-.19.39-.42.52-.68.13-.27.19-.57.19-.91v-1.1h-.03Z"/>
    <path class="cls-2" d="M244.62,41.59v1.17h.04c.22-.43.52-.76.88-1.01.36-.24.82-.36,1.39-.36.46,0,.87.11,1.24.34.37.22.62.56.74,1.02.21-.46.51-.8.91-1.02.4-.22.83-.34,1.29-.34,1.53,0,2.3.81,2.3,2.43v4.7h-.85v-4.66c0-.57-.12-1.01-.36-1.31-.24-.3-.67-.45-1.28-.45-.37,0-.67.07-.91.21-.24.14-.43.32-.58.56-.14.23-.24.5-.3.8-.06.3-.09.61-.09.93v3.92h-.85v-4.7c0-.23-.02-.45-.07-.67-.05-.21-.13-.39-.24-.55-.11-.16-.26-.28-.45-.37-.19-.09-.42-.14-.68-.14-.36,0-.67.07-.93.19-.26.13-.48.31-.64.54-.17.23-.29.5-.37.81-.08.31-.12.65-.12,1.01v3.87h-.85v-6.93h.78Z"/>
    <path class="cls-2" d="M255.87,38.93v3.98h.03c.09-.25.22-.47.38-.66.16-.19.35-.35.57-.48.21-.13.45-.23.7-.29.25-.06.5-.09.75-.09.53,0,.99.1,1.38.3.39.2.71.46.97.8.26.34.45.73.58,1.17.12.44.19.91.19,1.4s-.06.96-.19,1.4c-.13.44-.32.83-.58,1.17-.26.34-.59.6-.97.79-.39.19-.85.29-1.38.29-.56,0-1.07-.13-1.51-.39-.44-.26-.76-.63-.96-1.11h-.03v1.32h-.78v-9.59h.85ZM260.45,43.98c-.08-.35-.22-.67-.4-.95-.18-.28-.42-.5-.7-.68-.29-.17-.63-.26-1.04-.26-.45,0-.83.09-1.13.26-.31.17-.56.4-.75.68-.19.28-.33.59-.42.95-.09.35-.13.71-.13,1.07s.04.71.13,1.07c.08.35.22.67.42.95.19.28.44.5.75.68.31.17.69.26,1.13.26.4,0,.75-.09,1.04-.26.29-.18.52-.4.7-.68.18-.28.32-.59.4-.95.08-.35.13-.71.13-1.07s-.04-.71-.13-1.07"/>
    <path class="cls-2" d="M263.6,40.29h-.85v-1.36h.85v1.36ZM263.6,48.52h-.85v-6.93h.85v6.93Z"/>
    <path class="cls-2" d="M266.05,41.59v1.19h.03c.16-.42.45-.76.86-1.01.41-.25.86-.38,1.36-.38s.89.06,1.21.19c.33.12.59.3.79.53.2.23.34.51.42.84.08.33.12.7.12,1.11v4.46h-.85v-4.32c0-.3-.03-.57-.08-.83-.05-.25-.15-.48-.28-.66-.13-.19-.32-.34-.54-.44-.23-.11-.51-.16-.85-.16s-.64.06-.91.18c-.26.12-.49.29-.67.5-.18.21-.33.46-.43.75-.1.29-.16.61-.17.95v4.04h-.85v-6.93h.85Z"/>
    <path class="cls-2" d="M276.76,41.68c.41.2.75.46,1.03.79.28.33.49.72.63,1.16.14.44.22.92.22,1.42s-.07.97-.22,1.42c-.14.44-.35.83-.63,1.16-.28.33-.62.59-1.03.79-.41.19-.88.29-1.4.29s-1-.1-1.4-.29c-.41-.19-.75-.45-1.03-.79-.28-.33-.49-.72-.63-1.16-.14-.44-.21-.92-.21-1.42s.07-.97.21-1.42c.14-.44.35-.83.63-1.16.28-.33.62-.6,1.03-.79.41-.2.88-.3,1.4-.3s.99.1,1.4.3M274.3,42.35c-.3.17-.56.39-.76.67-.2.28-.35.59-.46.95-.1.35-.15.71-.15,1.08s.05.73.15,1.08c.1.35.26.67.46.95.2.28.46.5.76.67.3.17.66.26,1.06.26s.75-.08,1.06-.26c.3-.17.56-.39.76-.67.2-.28.35-.59.46-.95.1-.35.15-.71.15-1.08s-.05-.73-.15-1.08c-.1-.35-.26-.67-.46-.95-.2-.28-.45-.5-.76-.67-.31-.17-.66-.25-1.06-.25s-.76.08-1.06.25"/>
  </g>
</svg>