<?xml version="1.0" encoding="UTF-8"?>
<svg id="Livello_1" data-name="Livello 1" xmlns="http://www.w3.org/2000/svg" xmlns:xlink="http://www.w3.org/1999/xlink" viewBox="0 0 60 60">
  <defs>
    <style>
      .cls-1 {
        fill: none;
      }

      .cls-2 {
        fill: #fff;
      }

      .cls-3 {
        clip-path: url(#clippath);
      }
    </style>
    <clipPath id="clippath">
      <rect class="cls-1" y="0" width="63.97" height="63.97"/>
    </clipPath>
  </defs>
  <g class="cls-3">
    <path class="cls-2" d="M28.87,11.96c.06-.28.03-.5.02-.56,0-.79.4-1.36.41-1.37,0,0,.01-.02.02-.03.61-1.36.05-2.42-.12-2.7l1.22-3h0s0-.02,0-.02c0-.01,0-.02,0-.03,0,0,0-.01,0-.02,0-.01,0-.02,0-.03-.03-.07-.71-1.79-4.57-1.95-.11,0-2.59-.12-4.39,1.17,0,0,0,0,0,0,0,0,0,0,0,0-.01.01-.03.02-.04.04h0s-.01.03-.01.04c-.01.03-.01.07,0,.1.03.26.24.97.89,3.07-.07.17-.26.74-.17,1.44,0,0,.06.4.01.65-.01.05-.3,1.07.07,3.02-1.09.17-2.14.45-3.16.81l-1.17-.52h0s-.05-.02-.07-.02c0,0,0,0,0,0-.02,0-.05,0-.06.02-.01,0-.01.02-.02.02,0,0-.02.02-.03.03h0s-.86,1.4-.86,1.4c0,.01-.01.03-.02.04-5.76,3-9.71,9.02-9.71,15.95,0,5.4,2.4,10.25,6.19,13.55.1.09.2.18.31.27,2.57,2.14,5.75,3.57,9.24,4.01.13.02.26.04.39.05.19.02.38.03.57.04.11,0,.21.02.32.02.32.02.64.03.97.03s.67-.01,1.01-.03c.1,0,.21-.02.31-.02.22-.02.43-.03.64-.06.1-.01.21-.03.31-.04,1.11-.14,2.19-.38,3.24-.72.1-.03.21-.07.31-.1.6-.21,1.2-.44,1.77-.71.1-.05.21-.1.31-.15.31-.15.62-.32.93-.49.1-.06.21-.12.31-.18,1.61-.95,3.06-2.15,4.3-3.54.1-.12.21-.24.31-.36,2.64-3.13,4.24-7.17,4.24-11.58,0-8.6-6.07-15.8-14.14-17.56M29.2,8.46s.03-.05.05-.07c.06.4.04.91-.22,1.49-.07.1-.46.71-.45,1.55,0,.01,0,.02,0,.03,0,.01.04.2-.02.45-.02.09-.05.19-.11.29-.03.06-.07.12-.12.19-.04.06-.04.14.01.2.16.18.58.71.55,1.05,0,.04-.01.07-.02.1-.7-.65-.83-1.31-.84-1.6,0-.06,0-.11,0-.13.02-.06.04-.12.06-.17.07-.17.14-.28.15-.29.17-.35.19-.72.16-1.04.08,0,.15-.03.19-.06.22-.15.22-.49.21-.53-.01-.26.14-.42.15-.43,0,0,.01-.02.02-.02.32-.48.28-.82.22-.98M30.96,15.13l1.65.5s2.27.54,3.08,2.99l2.48,7.63s1.01,3.05,1.38,5.75c-.81-1.54-2.2-2.02-2.22-2.02-2.37-.74-3.91-.17-4.89.7.6-1.35,1.91-3,4.7-2.52.08.01.16-.04.18-.13.01-.08-.04-.16-.13-.18-1.93-.33-3.2.29-4.03,1.15.23-.48.47-.96.67-1.39.02-.04.02-.08,0-.12-.01-.04-.04-.07-.08-.09l-1.53-.72c.14-.5.86-2.52,3.44-3.26.08-.02.13-.11.11-.19-.02-.08-.11-.13-.19-.11-2.64.76-3.44,2.8-3.63,3.43l-.17-.08v-7.33c0-.08-.07-.15-.15-.15s-.15.07-.15.15v7.19l-2.98-1.41h0s-.48-.21-.99.42v-5.81c0-.08-.07-.15-.15-.15s-.15.07-.15.15v6.3l-1.58,3.22v-11.29h.87c.4,0,.78-.14,1.08-.4l2.76-2.44c.2.08.42.15.65.22M36.66,31.18c-1.12-.69-2.59-.67-4.38.05.89-.99,2.41-1.75,4.94-.96.02,0,2.35.8,2.57,3.82,0,.02.37,1.8-1.02,3.43v-2.01c0-.13-.13-3.1-2.11-4.32M32.67,35.17l-1.84,2.1s-.09.11-.23.24h0c-.2.19-.52.41-.82.42.26-.15.49-.33.65-.49.06-.06.06-.16,0-.22-.06-.06-.16-.06-.22,0-.01.01-1.1,1.05-1.94.68.77-.2,1.43-.78,1.47-.81.06-.06.07-.15.01-.22-.06-.06-.15-.07-.22-.01,0,0-.98.85-1.84.8-.1,0-.19-.03-.27-.06.52-.06,1.11-.39,1.76-1,.06-.06.07-.15,0-.22-.06-.06-.16-.07-.22,0-.8.74-1.48,1.04-2,.89-.34-.1-.56-.39-.69-.62l.4.2s.04.01.06.01c0,0,0,0,.01,0,.02,0,.03,0,.05,0h0s.42-.17.84-.48c0,0,.01,0,.02-.01.12-.09.24-.19.35-.3l1.19-1.55s.04-.1.02-.16c-.02-.05-.07-.09-.13-.09l-1.02-.08s-.07,0-.09.02c-.5.32-.84.24-1.02.15l.91-.54s1.72-.84,2.72-.31c.1.05.18-.02.23-.07.17-.15.68-.61,1.45-.22,0,0,.56.33.68.89.07.34-.03.7-.28,1.06M13.55,36.14s0,0,0,0c0,0,0,0,0,0-1.63-2.96-1.74-6.59,2.37-17.31.48-1.47,1.47-2.24,2.2-2.64l1.68,6.38-.39.39c-.5.68-.34,1.17-.21,1.56l.03.11c.21.68-.09,2.1-.31,2.56-.22.43-.52,1.07-.61,1.28l-.02.04c-.35.75.06,1.28.47,1.61.46.31.92.51,1.38.64,0,0,.01,0,.02,0,.7.2,1.4.23,2.07.23l.56,2.13c-.66.78-2.74,1.54-4.77,1.05-.68-.17-1.29-.59-1.69-1.16-.55-.8-.59-1.81-.54-2.52.05-.61.18-1.22.31-1.82.06-.28.12-.57.18-.85.05-.24.1-.6.08-.94,0-.08-.08-.15-.16-.15-.08,0-.15.08-.15.16.02.31-.04.64-.08.87-.05.28-.11.56-.18.84-.13.6-.27,1.23-.32,1.86-.09,1.09.11,2.03.59,2.72.44.64,1.12,1.11,1.87,1.29.48.12.96.17,1.42.17,1.53,0,2.87-.57,3.51-1.17l.19.73-.2.41h0c-.06.1-.07.18-.07.2,0,.06.03.11.09.14l1.95.97c-1.1-.07-1.71.38-1.74.4-4.1,2.39-6.59,2.03-7.96,1.31-1.13-.59-1.58-1.48-1.59-1.49M18.3,15.65c.18-.05.35-.13.5-.24.02,0,.04,0,.06,0,.17,0,.35-.04.51-.1l.02.07.08.3,1.58,6.05c-.29-.02-.57.16-.7.29l-.29.29-1.65-6.27-.08-.31-.02-.09ZM18.62,15.08c-.08-.02-.16-.05-.24-.09-.1-.05-.2-.12-.28-.2-.06-.06-.12-.12-.16-.2-.14-.22-.19-.47-.15-.73l.05-.47.03-.35.05-.47.28.33.21.25.31.37s0,0,0,0c.18.18.29.41.31.66.01.13,0,.26-.03.39-.03.1-.07.2-.13.29-.02.04-.05.08-.08.12-.03.04-.07.07-.1.1-.03,0-.06,0-.08-.01M21.1,15.17s.01.03.02.04l1.47,1.93s.02.03.03.04c.31.37.77.58,1.25.58h1.41v11.92l-.98,2.01-.6-2.13v-11.08c0-.08-.07-.15-.15-.15s-.15.07-.15.15v9.98l-.61-2.18c.16-.12.33-.33.25-.62,0,0,0-.02-.01-.03l-.14-.27c.09-.07.21-.18.25-.34.03-.1.03-.27-.12-.46l-.27-.31c.09-.11.19-.29.18-.51-.01-.19-.11-.35-.3-.49l-.42-.24c-.04-.33-.21-.56-.23-.59l-.56-.53-1.64-6.3.88-.27c.16-.05.31-.1.46-.16M27.45,25.96s.01-.02.02-.04c.26-.49.51-.68.69-.72l-4.55,8.99c-.08.02-.16.04-.23.07l1.01-2.07,3.05-6.23ZM26.76,36.53l-3.61-1.79c.06-.07.21-.18.55-.26l3.57,1.76c-.22.14-.42.24-.51.28M21.61,27.39c-.01-.09-.04-.17-.07-.25-.05-.18-.14-.7.01-.97.05-.08.12-.14.22-.17,0,0,.27-.09.47,0,.1.05.16.13.21.26l1.64,5.84-.82,1.68-1.67-6.39ZM18.94,29.87c-.69-.54-.45-1.06-.36-1.24v-.03c.27-.56.48-.99.62-1.27.25-.51.57-2.03.33-2.79l-.04-.11c-.12-.38-.24-.73.15-1.26l.25-.25.25-.25.42-.41s.33-.32.58-.17c0,0,.02,0,.03.01l.41.39.17.16s.05.06.09.17l-.16-.09s-.02-.01-.03-.02c-.08-.05-.21-.1-.35-.1-.12,0-.25.03-.37.13l-.59.54-.18.17s-.05.08-.05.13l.02.06s.01.02.02.03c.06.06.15.07.22,0l.08-.07.68-.63c.09-.07.19-.06.27-.04.06.02.1.04.11.05l.28.16.21.12s0,0,0,0l.45.26c.1.08.16.16.16.25,0,.09-.04.18-.08.25l-.21-.24c-.07-.06-.21-.14-.38-.16-.09-.01-.2,0-.31.03-.07.02-.13.05-.2.09l-.62.35c-.07.04-.1.14-.06.21.04.07.14.1.21.06l.62-.36c.05-.03.1-.05.14-.06.15-.05.27-.02.33.01.03.01.05.03.05.03l.32.36h0s.35.4.35.4c.08.1.06.17.06.19-.01.05-.05.1-.09.14l-.06-.11s-.01-.02-.02-.03c0-.01-.15-.17-.38-.24-.1-.03-.21-.04-.33-.01-.02,0-.05,0-.07.01l-.71.14c-.08.02-.14.1-.12.18.02.08.1.14.18.12l.72-.15s.06-.02.09-.02c.19-.02.33.11.36.15l.02.03.3.6c.02.08-.01.14-.05.19,0,0-.01.02-.02.02-.07-.11-.17-.2-.28-.25-.04-.02-.07-.03-.11-.04-.29-.08-.59.02-.59.02-.18.05-.31.15-.4.31-.02.03-.03.06-.04.09-.18.45,0,1.09,0,1.13.01.03.01.06.02.08.28,1.01-.86,2.73-1.14,3.12-.4-.12-.8-.3-1.19-.57M21.54,28.32l.62,2.36c-.57,0-1.14-.03-1.7-.16.27-.39.86-1.31,1.09-2.2M15,37.91s.09.05.14.07l2.1,5s.56,1.4,1.83,1.4c.21,0,.44-.04.69-.12.04-.02.78-.29,1.16-1.34-.19,1.7-1.22,2.18-1.28,2.21-.43.23-.86.26-1.28.11-1.19-.44-1.94-2.25-1.94-2.28l-2.42-5.76c.26.24.59.5,1.01.72M20.97,40.9s0,0,0,0h0s0,0,0,0,0,0,0,0c0,0-.01,0-.02,0,0,0-.01,0-.02,0,0,0,0,0,0,0,0,0-.02.01-.02.02,0,0-.01,0-.02.01h0s0,0,0,0c0,0-.01.02-.01.02,0,0,0,.01-.01.02,0,0,0,0,0,0,0,0,0,.02,0,.03,0,0,0,.01,0,.02.15,2.39-1.12,2.87-1.18,2.89-1.48.52-2.1-1.03-2.13-1.1l-1.98-4.71c1.51.57,3.98.61,7.73-1.57.04-.03.96-.68,2.58-.13-.23.53-1.94,4.33-4.88,4.46M30.99,32.85s0,0,0,0c-.01.04-.03.07-.04.1h0c-.1.07-.21.14-.31.23-1.14-.52-2.84.31-2.92.35l-1.11.66s-.07.06-.07.1c0,.05,0,.09.03.12,0,0,.54.65,1.53.06l.69.05-1,1.31c-.07.07-.15.14-.23.2l-3.63-1.79,4.55-9,5,2.36c-1.51,3.1-1.87,3.89-1.95,4.13-.26.42-.43.82-.53,1.1M27.34,17.12c-.24.21-.55.33-.87.33h-2.59c-.39,0-.76-.17-1.01-.47l-1.48-1.94c.16-.08.31-.16.45-.25l1.4,1.88c.16.19.4.3.65.3h2.59c.21,0,.41-.08.56-.21l2.52-2.2c.14.08.28.15.44.22l-2.65,2.34ZM26.82,16.53c-.1.09-.23.13-.36.13h-2.59c-.16,0-.31-.07-.41-.18l-1.38-1.86c.13-.09.25-.17.35-.25.06.12.13.24.22.37.01.02.03.03.05.04.07.47.32.97.93,1.38.03.08.06.13.06.14.02.04.07.07.12.08,0,0,0,0,.01,0,.05,0,.09-.02.12-.06.01-.01.24-.29.67-.3.04,0,1.01.02,1.57-.77.15-.03.49-.15.71-.49.08-.12.12-.26.15-.41.49-.17.8-.44.93-.82.04-.13.06-.26.06-.38.22.4.59.84,1.22,1.24l-2.45,2.13ZM29.17,6.53l-.24.6c-1.82-.63-3.41-.79-4.56-.79-.9,0-1.54.1-1.81.15-.06-.2-.13-.42-.2-.64.67-.19,3.67-.89,6.81.68M23.29,5.09c-.61-.6-.45-1.25-.32-1.55.64.66.45,1.27.32,1.55M23.7,4.22l.77-.99.84,1c-.02.3.05.64.27,1.02-.79-.05-1.5-.01-2.06.06.1-.18.29-.59.19-1.09M28.04,5.73c-.73-.24-1.43-.38-2.09-.45.16-.15.43-.47.49-.94l1.11-.71.58,1.03c-.13.28-.18.63-.09,1.07M25.79,5.01c-.4-.75-.05-1.32.17-1.57.41.82.05,1.35-.17,1.57M29,4.15c.12.91-.4,1.29-.68,1.43-.13-.84.39-1.26.68-1.43M28.69,8.5c-.3.22-.38.63-.38.66-.02.23-.09.36-.15.42-.03-.07-.06-.11-.06-.12-.36-.63-.36-1.09-.35-1.24,0-.03,0-.05,0-.06,0,0,0-.02,0-.03.04-.48,0-.84-.06-1.06.4.1.81.22,1.23.37.02.04.07.11.11.2.14.5-.08.65-.34.85M28.94,8.7c0,.12-.03.31-.2.56-.05.06-.24.29-.23.64,0,.09-.02.23-.08.27-.02.01-.04.01-.07,0-.03-.1-.05-.2-.09-.29.13-.08.29-.27.33-.68,0,0,.06-.31.28-.47.02-.01.03-.03.05-.04M24.33,10.25s-.16.04-.22.03c-.07,0-.53,0-.61,0-.09,0-.12-.04-.13-.05-.04-.06-.03-.19-.01-.25l.33-1.64s0-.04,0-.05c-.1-.65-.8-.83-1.27-.84.03-.31.1-.54.15-.65.39-.08,2.26-.38,4.78.19.1.29.38,1.52-.7,3.76-.01.02-.21.38-.35.84-.02.07-.04.14-.05.21-.08-.12-.17-.19-.22-.23-.03-.02-.06-.04-.06-.04-.17-.12-.32-.38-.37-.47-.33-.76-.71-.95-.93-.99,0-.03,0-.06,0-.09-.01-.08-.09-.14-.18-.13-.08.01-.14.09-.13.18.02.1,0,.17-.02.2M22.44,8.17c0-.06-.01-.11-.01-.11-.01-.1-.02-.2-.02-.3.27,0,.88.07.98.55l-.02.09c-.14-.11-.44-.29-.92-.24M23.09,8.59c-.2.15-.43.22-.65.2.02-.1.02-.21.02-.32.31-.04.51.04.63.12M22.38,9.1s.08,0,.12,0c.27,0,.54-.1.78-.28l-.22,1.09s-.06.23.01.41c-.17.12-.37.42-.47,1.11-.01.06-.05.17-.09.29-.25-1.33-.19-2.22-.13-2.63M22.56,12.27s0-.01.01-.02h0c.05-.07.1-.15.14-.23.06-.11.1-.23.13-.33.04-.11.05-.19.06-.2.1-.69.3-.91.39-.94.05.02.12.04.19.04.21,0,.56,0,.61,0,.02,0,.05,0,.09,0,.1,0,.26-.02.37-.14.02-.02.03-.05.05-.07.13.03.43.16.71.82,0,.01.1.18.24.36.07.09.16.17.25.24,0,0,.04.03.1.08.1.1.24.29.27.64,0,.01,0,.02.01.03,0,0,0,.01,0,.02,0,.01.01.02.02.03,0,0,0,0,.01.01,0,0,.02.01.03.02,0,0,0,0,.01,0,.02,0,.04.01.06.01,0,0,0,0,.01,0h0s.02,0,.03,0c0,0,.02,0,.03,0,0,0,.02-.01.02-.02,0,0,.02-.01.02-.02,0,0,0-.01.01-.02,0,0,.01-.02.01-.03,0,0,0-.02,0-.03,0,0,0-.02,0-.03-.02-.18,0-.38.05-.57.02-.1.05-.2.08-.3.13-.4.3-.71.31-.72.33-.69.54-1.28.67-1.8.06.16.13.33.24.51,0,.01.54.96.17,1.75,0,.01-.11.16-.19.39-.03.09-.07.19-.09.29-.03-.05-.05-.08-.06-.09-.05-.07-.15-.08-.22-.04-.03.02-.05.05-.06.09-.01.04,0,.09.02.13,0,0,.5.72.3,1.3-.08.25-.29.44-.61.58,0-.24-.06-.51-.16-.81-.03-.08-.12-.12-.2-.1-.08.03-.12.12-.1.2.19.56.2,1,.02,1.29-.19.31-.56.36-.56.36-.05,0-.09.03-.11.07-.46.7-1.33.69-1.35.69-.33,0-.57.13-.73.24-.09-.3-.19-.94.15-1.79.03-.08,0-.17-.08-.2-.08-.03-.17,0-.2.08-.27.67-.29,1.23-.24,1.62-.95-.88-.37-2.07-.34-2.13.04-.08,0-.17-.07-.21-.08-.04-.17,0-.21.07,0,0-.16.33-.21.78,0,0,0-.01,0-.02-.03-.06-.05-.12-.06-.18-.14-.57.15-.99.17-1.01.05-.07.03-.17-.04-.22-.07-.05-.16-.03-.22.03,0,0-.07.1-.14.26-.1-.48.13-.76.14-.78M29.29,6.25c-.29-.14-.58-.27-.86-.38.25-.12.69-.41.84-1.01l.71-.32-.69,1.7ZM25.83,2.55c3.02.13,3.98,1.25,4.22,1.62l-.73.33c0-.18,0-.38-.05-.61-.01-.04-.04-.08-.08-.1-.04-.02-.09-.03-.13,0,0,0-.44.17-.75.57l-.57-1.02s-.06-.06-.1-.07c-.04,0-.09,0-.12.02l-1.08.69c-.03-.26-.12-.55-.32-.87-.02-.04-.06-.06-.11-.07-.04,0-.09,0-.12.03,0,0-.35.3-.51.78l-.8-.96s-.07-.06-.12-.05c-.05,0-.09.02-.12.06l-.76.98c-.11-.23-.28-.47-.55-.7-.03-.03-.08-.04-.12-.04-.04,0-.08.03-.11.07,0,0-.22.35-.25.82l-.74-.48c1.69-1.09,3.98-.99,4.01-.99M22.27,5.57c-.19-.65-.39-1.3-.5-1.69l.8.52c.06.31.22.65.57.97-.39.07-.69.14-.88.19M22.26,12.08s0,.03.01.05c-.12.18-.38.7.01,1.47,0,.15,0,.31.05.47-.44.33-1.04.76-1.78.97l-.87.26-.03-.13c.29-.2.49-.49.57-.83.08-.36.02-.74-.18-1.05-.14-.23-.35-.4-.59-.52.91-.3,1.84-.54,2.8-.69M18.63,12.74l.4.18.17.08s0,0,.01,0c.24.08.44.24.57.45.15.25.2.54.14.82-.06.27-.23.51-.46.66,0,0-.01,0-.02.01-.09.06-.2.1-.3.13h-.02s0,0,0,0c.06-.09.11-.18.14-.28.07-.2.1-.41.08-.62-.03-.32-.17-.61-.4-.84l-.24-.29-.21-.25-.15-.17.27.12ZM17.58,12.86l-.03.33-.04.35-.03.28c-.04.32.03.65.2.93.09.15.22.28.36.38.09.06.18.12.28.16,0,0,.02,0,.03,0-.01,0-.02,0-.03.01-.08.03-.16.05-.24.06-.03,0-.05,0-.08,0-.26,0-.51-.07-.72-.24-.23-.18-.37-.44-.4-.73-.02-.21.02-.43.12-.62.02-.04.04-.07.06-.11l.24-.39.27-.44ZM7.38,29.52c0-6.68,3.73-12.51,9.22-15.51-.03.15-.04.29-.03.44.04.37.22.7.51.94.25.2.56.31.88.31.01,0,.02,0,.03,0l.05.18c-.78.4-1.88,1.23-2.41,2.85-4.13,10.79-4.03,14.5-2.37,17.53v6.41c-3.61-3.24-5.88-7.93-5.88-13.14M13.57,42.93v-5.95l2.55,6.09c.03.08.8,1.96,2.12,2.45.21.08.41.11.62.11.3,0,.6-.08.9-.23.06-.03,1.17-.52,1.44-2.25.26,1.11.7,2.52,1.42,3.87-3.43-.47-6.54-1.93-9.05-4.08M23,47.06c-1.12-2.01-1.59-4.23-1.77-5.33-.02-.17-.04-.35-.07-.53,1.33-.12,2.61-.95,3.7-2.41.59-.78.98-1.55,1.17-1.97.14.25.37.54.72.69.08.09.17.16.26.22l-3.15,9.41c-.29-.02-.58-.05-.86-.08M25.04,47.18c-.29,0-.58,0-.87-.02l1.88-5.6v5.59c-.33.02-.67.03-1.01.03M26.36,47.13v-6.49l.64-1.92v8.35c-.21.02-.43.04-.64.06M27.31,47.03v-9.15c.12.04.24.07.37.08.03,0,.07,0,.1,0,.01,0,.02,0,.04,0,.25.23.54.32.84.32.24,0,.48-.06.71-.16.13.07.27.11.4.11.28,0,.55-.14.78-.3v8.35c-1.04.34-2.12.59-3.24.73M30.86,46.19v-8.5c.12-.11.19-.2.2-.22l1.56-1.79v9.78c-.57.27-1.16.51-1.77.73M32.94,45.31v-9.99c.3-.43.4-.86.31-1.27-.15-.69-.8-1.08-.83-1.1-.14-.07-.28-.12-.42-.15.35-.04.65.01.9.18,1.02.68.96,2.87.95,2.89v8.94c-.3.18-.61.34-.93.5M34.17,44.64v-8.76c0-.1.07-2.39-1.09-3.16-.44-.3-1.01-.33-1.66-.09.1-.22.22-.47.37-.72,0,0,0,0,0,0,.03-.06.07-.12.11-.17,1.93-.89,3.47-.98,4.6-.29,1.85,1.13,1.97,4.04,1.97,4.07v5.47c-1.23,1.43-2.67,2.67-4.3,3.65M38.77,37.97c1.76-1.8,1.34-3.86,1.32-3.92-.02-.33-.07-.62-.14-.9,0,0,0,0,0-.01-.16-2.95-1.49-6.95-1.5-6.99l-2.48-7.62c-.87-2.63-3.21-3.18-3.3-3.19l-1.64-.5c-.25-.07-.48-.15-.7-.24,0,0-.01,0-.02,0-.5-.2-.89-.43-1.2-.67.06-.08.09-.18.1-.28.03-.44-.37-.96-.55-1.18.04-.07.08-.14.11-.2,7.95,1.72,13.93,8.8,13.93,17.26,0,4.2-1.48,8.06-3.93,11.09v-2.64Z"/>
    <path class="cls-2" d="M23.1,11.53c.08.04.17,0,.21-.07.02-.04.06-.12.31-.05.23.07.73.01.77,0,.03,0,.19,0,.25.14,0,.02.01.04.02.06,0,0,.02.11.07.25.08.25.26.64.59.94.03.03.76.78.35,1.71-.03.08,0,.17.08.2.02,0,.04.01.06.01.06,0,.12-.03.14-.09.49-1.13-.38-2.02-.43-2.06-.25-.22-.39-.51-.48-.73-.06-.17-.09-.29-.09-.3,0,0,0,0,0-.01-.08-.36-.41-.45-.59-.44-.19.02-.53.04-.66,0-.42-.12-.6.05-.67.21-.04.08,0,.17.07.21"/>
    <path class="cls-2" d="M24.44,11.66s-.12,0-.25.02c-.5.03-.84-.04-.84-.05-.01,0-.03,0-.04,0,0,0-.02,0-.02,0-.06.01-.1.06-.12.12-.02.08.03.17.12.18,0,0,.02,0,.03,0,.06.01.21.03.41.05-.04.09-.06.22-.02.39.02.07.08.12.15.12.01,0,.02,0,.04,0,.08-.02.13-.1.11-.19-.03-.14,0-.2.02-.22.04-.05.12-.08.2-.1.07,0,.14-.01.22-.02.06,0,.11-.05.13-.1,0-.02.01-.04.01-.06,0-.08-.07-.15-.15-.15"/>
    <path class="cls-2" d="M24.21,12.95c-.31-.02-.42-.09-.43-.1-.06-.06-.15-.06-.21,0-.06.06-.07.15-.01.22.03.04.19.18.64.2h0c.08,0,.15-.06.15-.15,0-.08-.06-.16-.15-.16"/>
    <path class="cls-2" d="M26.58,8.16c.07.04.17.02.21-.05.05-.07.02-.17-.05-.21-1.49-.92-2.53.11-2.54.12-.06.06-.06.16,0,.22.03.03.07.04.11.04s.08-.02.11-.05c0,0,.87-.87,2.16-.07"/>
    <path class="cls-2" d="M24.59,8.48s-.05.07-.05.11c0,.04.02.08.05.11.34.31.66.41.94.41.49,0,.83-.31.84-.32.03-.03.05-.07.05-.11,0-.04-.02-.08-.05-.11-.96-.88-1.77-.1-1.78-.09M24.95,8.59c.2-.12.59-.26,1.06.08-.2.12-.6.25-1.06-.08"/>
    <path class="cls-2" d="M34.65,6.32s.03.07.02.09c-.07.18-.12.38-.14.45-.02.09-.06.13-.08.12-.03-.01-.03-.05-.02-.13.01-.19,0-.35-.11-.48-.1-.17-.3-.31-.47-.37-.31-.11-.87-.02-1.08.53-.14.36,0,.69.19.94.19.26.34.5.5.73.19.27.45.71.24,1.29-.27.74-1.13.92-1.82.67-.29-.11-.67-.33-.83-.52-.06-.07-.07-.12-.05-.22.03-.11.05-.35.11-.51.02-.08.05-.12.08-.11.03,0,.03.06.02.16-.06.54.28.93.71,1.08.53.19,1.03-.1,1.19-.54.16-.45-.06-.82-.42-1.31-.38-.53-.66-1.04-.45-1.61.13-.36.4-.59.74-.7.23-.07.57-.09.95.05.31.11.6.32.7.39"/>
    <path class="cls-2" d="M34.62,11.12c.32.13.41.05.59-.22.38-.57,1.78-3,1.82-3.1.03-.06.02-.09,0-.1-.03-.03-.17-.12-.45-.28-.25-.14-.41-.22-.54-.27-.13-.05-.25-.02-.47.17-.07.06-.12.07-.15.06-.03-.01,0-.06.03-.1.14-.17.29-.32.38-.47.04-.05.06-.08.09-.08.02,0,.03.02.03.06,0,.04.08.12.16.17.1.06.7.42,1.33.78.47.27,1.05.6,1.23.69.15.08.25.12.37.13.03,0,.06,0,.06.02,0,.02,0,.04-.04.08-.06.06-.17.25-.29.46-.05.09-.1.12-.13.11-.02-.01,0-.08,0-.11.04-.12.07-.28.05-.35-.03-.08-.09-.15-.52-.4-.19-.11-.5-.28-.6-.33-.03-.01-.07.03-.09.08-.13.23-.96,1.65-1.11,1.91-.2.34-.62,1.11-.71,1.32-.09.22-.06.3.12.48.06.06.09.09.07.12-.02.04-.07.02-.15-.03-.14-.08-.31-.23-.56-.37-.31-.18-.52-.25-.62-.31-.08-.05-.1-.09-.08-.12.01-.03.08-.01.15.01"/>

    <path class="cls-2" d="M40.12,9.35c.13.11.26.27.45.44.16.14.33.26.45.37.06.05.07.09.06.11-.02.03-.08,0-.13-.02-.31-.2-.46,0-.68.24-.46.49-1.09,1.2-1.32,1.48-.34.39-.52.79-.5,1.13.01.39.24.73.49.95.6.53,1.26.57,2.22-.43.19-.19.41-.43.57-.6.89-1,.91-1.11.81-1.29-.03-.06-.08-.12-.11-.15-.04-.04-.05-.1-.04-.12.02-.03.06-.01.12.04.11.1.19.19.35.34.12.1.27.21.39.32.06.05.08.1.07.11-.02.03-.06.02-.16-.04-.24-.15-.35-.05-.58.17-.31.3-.93,1-1.26,1.31-.45.45-.91.85-1.5.91-.53.05-.98-.26-1.23-.49-.28-.25-.55-.62-.61-.97-.1-.54.07-.96.62-1.62.35-.41,1.09-1.23,1.35-1.56.21-.28.23-.32.07-.57-.02-.03-.04-.08-.02-.11.02-.02.07.02.11.06"/>
    <path class="cls-2" d="M44.18,13.23c.17.24.35.49.54.72.13.14.31.36.41.48.32.45.55.92.59,1.49.04.66-.17,1.41-.92,1.95-1.15.82-2.24.4-2.93-.19-.14-.12-.31-.34-.42-.5-.09-.13-.18-.28-.28-.45-.11-.18-.21-.35-.33-.53-.11-.16-.25-.33-.29-.39-.04-.06-.06-.12-.03-.14.02-.01.06,0,.11.07.18.18.27.2.5.05.15-.08.69-.46,1.17-.8,1.03-.74,1.52-1.1,1.68-1.24.19-.15.23-.22.12-.48-.03-.06-.03-.1-.01-.11.02-.02.06.01.1.07M44.64,14.07s-.09-.03-.2.05c-.2.13-.39.25-1.45,1.01-.6.43-.94.7-1.21.92-.28.24-.38.36-.39.58,0,.12.05.34.21.56.18.26.38.43.59.53.44.22,1.22.39,2.17-.29.53-.38.91-.9.99-1.5.07-.52,0-1-.37-1.52-.11-.15-.26-.29-.32-.33"/>
    <path class="cls-2" d="M47.15,17.75c.1.21.15.36.24.55.1.21.23.39.29.53.03.06.03.1.02.11-.03.01-.06,0-.1-.07-.16-.23-.27-.2-.53-.08-.33.14-1.06.51-1.45.7-.93.46-1.46.74-1.64.84-.23.14-.26.2-.21.4.02.1.02.13-.02.14-.03.02-.06-.02-.1-.1-.05-.1-.11-.27-.2-.45-.16-.32-.28-.49-.34-.6-.03-.06-.04-.11,0-.12.02-.01.05.01.13.11.17.21.29.2.67.02.37-.17,2.12-1.04,2.42-1.19.31-.15.51-.27.6-.33.2-.13.19-.2.13-.45,0-.05,0-.08.02-.09.02-.01.05.02.08.08"/>
    <path class="cls-2" d="M47.43,25.08c-1.09.33-1.98-.21-2.37-.66-.21-.24-.38-.53-.47-.84-.37-1.23.38-2.54,1.62-2.91.68-.2,1.35-.15,2.04.35.37.26.69.75.82,1.19.35,1.18-.37,2.5-1.64,2.88M48.12,21.25c-.51-.22-1.16-.18-1.71-.01-.52.16-1.04.53-1.35.97-.41.56-.43,1.07-.31,1.44.07.24.22.48.49.64.35.24,1.06.49,2.02.2.59-.18,1.11-.55,1.47-1.07.22-.33.37-.78.21-1.32-.12-.39-.51-.73-.81-.86"/>
    <path class="cls-2" d="M49.77,28.25c-.2.32-.49.48-.81.5-.46.03-.69-.19-.82-.34-.11-.1-.2-.28-.25-.39-.02-.03-.06-.02-.13.02-.26.15-.88.61-1.2.86-.29.24-.47.4-.6.56-.2.23-.24.42-.24.55,0,.05-.01.09-.03.1-.01,0-.04-.03-.06-.07-.03-.06-.05-.19-.06-.31-.03-.44.14-.77.49-1.08.38-.34,1.21-.92,1.41-1.08.11-.1.17-.18.18-.27,0-.06.02-.15,0-.3,0-.03-.04-.05-.08-.06-.09,0-.9.05-1.17.08-.37.03-.6.07-.67.11-.08.03-.16.09-.18.34,0,.08-.03.11-.06.11-.03,0-.05-.05-.06-.13,0-.13.01-.34,0-.6-.02-.25-.07-.5-.08-.64,0-.07,0-.12.04-.12.03,0,.05.04.07.13.07.23.14.3.43.29.4,0,.97-.04,1.85-.1.98-.07,1.42-.14,1.66-.17.2-.03.3-.04.33-.34,0-.07.02-.12.06-.12.03,0,.04.04.05.12,0,.1,0,.31.02.55.02.3.07.48.1.85.03.43-.03.72-.18.96M49.74,26.81s-.02-.03-.14-.03c-.13,0-1.61.11-1.73.12-.09,0-.12.04-.11.07-.01.04,0,.12,0,.17.02.18.1.59.21.74.16.19.45.36.83.33.36-.03.62-.15.79-.34.18-.22.25-.47.22-.83,0-.09-.04-.19-.07-.22"/>
    <path class="cls-2" d="M50.09,30.42c-.02.17-.07.37-.11.62-.03.21-.03.42-.05.58,0,.08-.03.11-.06.11-.03,0-.05-.06-.06-.12-.01-.37-.25-.38-.58-.42-.67-.1-1.61-.22-1.96-.24-.51-.06-.94.02-1.22.23-.31.23-.47.61-.51.94-.1.79.24,1.36,1.62,1.58.26.05.59.09.82.12,1.33.17,1.43.12,1.52-.07.03-.06.05-.13.07-.18.01-.06.06-.1.08-.1.03,0,.04.04.03.12-.02.15-.05.26-.08.48-.02.15-.02.34-.04.51,0,.08-.03.12-.05.12-.03,0-.05-.04-.06-.16-.01-.29-.15-.32-.47-.38-.42-.08-1.36-.2-1.79-.29-.63-.12-1.22-.27-1.6-.72-.34-.41-.34-.95-.3-1.29.05-.37.2-.8.45-1.06.39-.39.82-.49,1.68-.41.53.05,1.63.2,2.05.23.35.01.4,0,.51-.27.02-.03.05-.08.08-.08.03,0,.02.07.01.13"/>
    <path class="cls-2" d="M49.3,35.93c-.06.15-.25.54-.33.75-.01.03-.05.05-.12.05-.74.04-2.94.26-3.88.38-.05,0-.03.03,0,.07.59.68,1.9,2.14,2.16,2.42.14.14.34.31.46.4.01.01.07.07.06.1-.07.18-.17.55-.24.73-.02.07-.05.1-.08.09-.03-.01-.03-.07-.02-.12.06-.42,0-.48-.39-.65-.22-.1-1.01-.41-1.34-.54-.72-.28-1.38-.5-1.6-.57-.39-.12-.48-.07-.66.16-.04.05-.08.09-.11.08-.03,0-.02-.06,0-.13.05-.12.23-.47.29-.64.1-.27.16-.45.2-.55.03-.07.06-.14.11-.12.03.01.03.09,0,.16-.03.31.05.39.59.62.35.16,2.12.84,2.41.95.07.03.07,0,.04-.02-.71-.78-1.98-2.2-2.57-2.79-.07-.06-.1-.11-.08-.14.01-.03.14-.04.28-.05.78-.05,2.96-.22,3.57-.27.07-.01.07-.03-.01-.07-.37-.17-2.06-.91-2.33-1.01-.22-.08-.35-.14-.5-.15-.17-.03-.3.1-.39.23-.04.07-.08.1-.11.09-.04-.02-.03-.08,0-.15.04-.08.16-.3.25-.54.09-.24.12-.43.15-.5.03-.09.06-.11.09-.1.02,0,.04.04.02.14-.04.22,0,.33.07.44.07.1.27.22.66.41.37.19,1.8.85,2.22,1.01.4.15.5.15.68.09.18-.07.24-.18.32-.29.04-.06.07-.09.1-.08.03.01.02.08,0,.13"/>
    <path class="cls-2" d="M45.07,44.47c-.11.13-.27.26-.44.45-.14.16-.26.33-.37.45-.05.06-.09.07-.11.06-.03-.02,0-.08.02-.13.2-.31,0-.46-.24-.68-.49-.46-1.21-1.09-1.48-1.32-.39-.34-.79-.52-1.14-.5-.39.01-.73.24-.95.49-.53.6-.57,1.26.43,2.22.19.18.43.41.6.57,1,.89,1.11.91,1.29.81.06-.03.12-.08.15-.11.04-.04.1-.05.12-.04.03.02.01.06-.04.12-.1.11-.19.19-.34.35-.1.12-.21.27-.32.39-.05.06-.1.09-.11.07-.03-.02-.02-.06.04-.16.15-.24.06-.35-.17-.58-.3-.31-1.01-.93-1.31-1.26-.45-.45-.85-.91-.91-1.5-.05-.53.26-.98.49-1.23.25-.28.62-.55.97-.61.54-.1.96.06,1.62.62.41.35,1.24,1.09,1.56,1.35.28.21.32.23.57.07.03-.02.08-.04.11-.02.02.02-.02.07-.06.11"/>
    <path class="cls-2" d="M41.29,48.52c-.17.12-.49.3-.71.46-.03.02-.06.02-.22-.03-.72-.22-3.4-.84-4.33-1.05-.02,0-.05,0-.01.06.15.21,1.29,1.79,1.66,2.29.24.34.41.31.63.23.08-.03.13-.05.15-.03.02.03-.02.08-.09.12-.1.07-.29.17-.42.26-.17.12-.3.24-.36.29-.06.04-.1.05-.12.03-.02-.03.02-.07.06-.13.17-.23.1-.36.02-.53-.13-.24-.97-1.46-1.36-2-.37-.53-.59-.86-.81-1.16-.1-.12-.11-.19-.07-.22.02-.02.14,0,.33.06.62.18,3.31.83,4.73,1.19.05.02.06,0,.04-.04-.14-.2-1.46-2.11-1.64-2.37-.19-.25-.29-.37-.4-.43-.12-.07-.3-.02-.42.02-.07.02-.12.03-.15,0-.02-.03.03-.08.09-.11.1-.07.28-.16.46-.28.17-.12.34-.28.38-.31.09-.06.11-.05.12-.03.02.03-.02.07-.07.14-.16.21-.2.31,0,.66.13.24,1.39,2.1,1.71,2.56.24.34.32.35.4.35.12,0,.21-.02.35-.09.09-.05.13-.05.15-.03.02.02,0,.06-.09.13"/>
    <path class="cls-2" d="M36.41,51.65c-.21.1-.36.14-.55.23-.21.1-.4.22-.53.29-.06.03-.1.03-.11.01-.01-.03,0-.06.07-.1.24-.16.2-.26.09-.53-.13-.33-.5-1.06-.69-1.46-.45-.94-.72-1.46-.83-1.65-.14-.23-.19-.26-.4-.22-.1.02-.13.01-.14-.02-.02-.03.03-.06.1-.1.1-.05.27-.11.45-.2.32-.15.49-.27.61-.33.06-.03.11-.04.12,0,0,.02-.01.05-.11.13-.21.16-.2.28-.02.67.16.38,1.02,2.13,1.16,2.43.15.31.26.51.32.6.13.2.2.19.44.14.05,0,.08,0,.09.02,0,.02-.02.05-.08.08"/>
    <path class="cls-2" d="M34.48,52.63c-.15.05-.45.11-.6.16-.22.07-.5.18-.62.22-.1.03-.14.01-.14,0-.01-.04.04-.08.11-.12.16-.07.2-.18.18-.26-.03-.08-.08-.15-.18-.29-.23-.32-1.72-2.19-1.98-2.46-.01-.02-.04-.03-.04,0-.04.26-.2,2.52-.21,2.89,0,.23,0,.45.03.57.05.15.19.16.41.15.07,0,.12,0,.13.02,0,.02-.02.05-.12.08-.15.05-.43.1-.57.14-.16.05-.33.13-.44.17-.09.03-.12.03-.12,0,0-.03.01-.06.11-.12.24-.15.3-.31.36-.85.04-.32.13-1.42.28-3.17.03-.44.04-.69.04-.8,0-.05.02-.09.04-.09.04-.01.08.03.13.11.43.6,2.26,2.86,2.7,3.36.13.15.25.22.47.19.08-.01.14,0,.15.03,0,.03-.06.06-.12.08"/>
    <path class="cls-2" d="M29.4,54.05c-.17.02-.39.02-.59.04-.37.05-1.32.17-1.6.21-.26.03-.36.06-.43.06-.03,0-.06-.03-.08-.1-.02-.08-.06-.33-.11-.47-.01-.04-.01-.11.02-.11.02,0,.05.02.09.09.16.28.3.37.43.38.17,0,1.09-.1,1.32-.14.06-.01.08-.03.05-.28-.03-.23-.14-1.12-.19-1.61-.01-.08-.03-.11-.06-.11l-.88.11c-.32.04-.41.06-.47.11-.05.03-.1.13-.15.29-.01.05-.03.08-.06.09-.02,0-.04-.03-.04-.07,0-.04,0-.26,0-.38,0-.13-.05-.34-.06-.39-.03-.1.01-.14.02-.14.03,0,.04.03.1.14.03.06.09.19.2.2.17.02.36,0,1.3-.11.05,0,.05-.02.04-.14-.04-.36-.18-1.34-.2-1.47,0-.08-.09-.25-.22-.29-.12-.04-.23-.04-.7.01-.59.07-.71.1-.84.24-.06.08-.15.26-.21.37-.06.1-.08.13-.11.14-.03,0-.04-.05-.02-.13.02-.17.06-.47.09-.55.02-.05.05-.09.1-.1.74-.09,1.54-.16,2.11-.23.24-.03.63-.11.7-.12.09-.01.13,0,.14.03,0,.03-.04.05-.12.08-.23.06-.36.17-.33.49.1,1.12.19,1.89.36,3.27.05.4.14.47.4.5.07,0,.11.02.11.05,0,.02-.04.05-.1.06"/>
    <path class="cls-2" d="M22.92,54.08c-.29-.24-.41-.55-.39-.87.03-.46.28-.66.45-.77.11-.09.31-.16.42-.2.03-.01.02-.05,0-.13-.12-.28-.49-.95-.69-1.3-.2-.32-.34-.52-.48-.67-.2-.23-.38-.29-.51-.3-.05,0-.09-.03-.09-.05,0-.01.03-.04.08-.05.07-.02.19-.02.32-.02.44.02.74.24,1.01.62.29.43.75,1.32.88,1.54.08.12.15.19.24.21.06.02.15.04.3.04.03,0,.06-.03.07-.07.02-.08.06-.9.07-1.17.02-.37,0-.61-.02-.67-.02-.09-.07-.17-.31-.22-.08-.02-.1-.04-.1-.07,0-.03.06-.05.14-.04.13,0,.34.05.6.07.25.01.51,0,.64,0,.07,0,.12.02.12.06,0,.03-.05.05-.14.06-.24.04-.31.1-.35.38-.04.4-.09.96-.14,1.85-.05.98-.05,1.43-.05,1.67,0,.2,0,.3.3.37.06.02.12.03.12.07,0,.03-.05.04-.13.03-.1,0-.3-.04-.55-.05-.3-.02-.49,0-.85-.01-.43-.02-.71-.12-.93-.31M24.34,54.24s.04-.01.05-.13c.01-.13.11-1.61.11-1.73,0-.09-.02-.12-.05-.12-.03-.02-.12-.02-.17-.02-.18,0-.6.02-.76.11-.2.13-.42.39-.44.77-.02.36.06.63.24.83.19.21.44.31.79.33.09,0,.19-.01.23-.04"/>
    <path class="cls-2" d="M18.22,53.44s-.03-.07-.03-.09c.04-.19.07-.39.08-.47,0-.09.04-.14.07-.13.03,0,.04.05.04.12.01.19.05.35.16.47.12.15.34.27.51.31.32.08.87-.08,1.01-.66.09-.38-.09-.68-.31-.91-.22-.24-.4-.45-.58-.66-.22-.25-.53-.65-.39-1.25.18-.76,1.01-1.05,1.73-.88.3.07.7.25.89.41.07.06.08.11.07.21-.01.11-.01.35-.05.52-.01.08-.04.13-.07.12-.03,0-.04-.05-.04-.16,0-.55-.39-.89-.83-.99-.55-.13-1.01.22-1.12.68-.11.47.16.81.57,1.25.44.48.78.95.64,1.55-.09.38-.33.64-.65.78-.22.1-.55.16-.95.06-.32-.07-.63-.24-.74-.31"/>
    <path class="cls-2" d="M17.03,53.09c-.22-.08-.36-.16-.56-.23-.22-.08-.43-.13-.58-.18-.06-.02-.1-.05-.09-.07.01-.03.05-.04.12-.02.28.06.33-.04.44-.31.14-.32.41-1.1.56-1.51.36-.98.55-1.54.6-1.74.07-.26.05-.32-.13-.44-.09-.05-.1-.08-.09-.11.01-.03.06-.02.14,0,.11.04.26.12.46.19.33.12.54.16.66.2.06.02.1.05.09.09,0,.02-.05.03-.17.01-.26-.04-.34.06-.5.45-.15.38-.81,2.22-.93,2.53-.12.33-.18.54-.2.65-.05.23,0,.28.21.41.04.03.06.06.05.08,0,.02-.05.02-.11,0"/>
    <path class="cls-2" d="M16.03,47.97c-.32-.12-.41-.04-.58.24-.37.58-1.68,3.06-1.71,3.16-.02.06-.01.09,0,.1.03.03.17.11.46.27.26.14.41.2.55.25.13.04.25.01.47-.19.07-.06.12-.07.14-.06.03.01,0,.06-.03.1-.13.17-.28.32-.36.49-.04.05-.05.08-.09.08-.02,0-.03-.02-.03-.06,0-.04-.08-.12-.17-.17-.1-.06-.71-.39-1.35-.73-.48-.25-1.07-.57-1.25-.65-.15-.07-.25-.12-.38-.12-.03,0-.06,0-.06-.01,0-.02,0-.04.04-.09.06-.06.16-.25.27-.47.05-.09.1-.12.12-.11.03.01,0,.08,0,.11-.04.12-.06.28-.04.36.03.08.1.15.53.38.19.1.51.27.61.31.03.01.07-.04.09-.08.12-.23.9-1.68,1.04-1.94.19-.35.58-1.13.66-1.34.09-.23.05-.3-.13-.48-.06-.06-.09-.09-.07-.12.02-.04.07-.02.15.02.14.08.32.22.57.35.32.17.53.23.63.28.08.04.1.08.08.12-.01.02-.08.01-.16-.01"/>
    <path class="cls-2" d="M9.65,49.14c.08-.14.14-.33.21-.58.41-1.34.69-2.34.95-3.4.11-.44.1-.53-.02-.67-.06-.06-.07-.11-.06-.12.02-.03.08,0,.13.04.11.08.18.17.47.39.21.16.44.3.57.4.06.05.09.08.06.11-.02.02-.09,0-.14-.03-.25-.14-.36-.07-.45.06-.06.1-.26.75-.44,1.39-.01.05,0,.1.02.12.22.15.93.69,1.05.79.03.02.11-.01.17-.04.15-.08.63-.37.92-.59.23-.17.31-.27.29-.38-.01-.09-.07-.17-.16-.28-.04-.06-.05-.1-.04-.12.02-.03.08,0,.14.05.11.08.31.29.52.44.14.11.27.16.4.26.06.05.09.09.06.11-.02.03-.09,0-.15-.04-.3-.15-.39-.14-.96.17-.43.22-1.86,1.07-2.83,1.66-.08.05-.12.09-.16.13-.02.02-.05.05-.06.05-.1,0-.3.02-.42.13-.03.02-.06.04-.09.02-.02-.01-.01-.04,0-.09M10.84,47.12c-.26.81-.39,1.28-.45,1.54-.02.06,0,.05.05.02.38-.22,1.11-.68,1.36-.85.01,0,.04-.05.02-.06-.1-.09-.24-.19-.44-.35-.2-.15-.43-.33-.51-.35-.02,0-.03.02-.04.06"/>
    <path class="cls-2" d="M5.73,45.29s0-.08.03-.09c.14-.13.28-.28.33-.34.06-.07.11-.09.13-.07s0,.06-.04.12c-.1.16-.16.31-.13.48.01.2.12.41.24.55.22.25.76.43,1.2.03.29-.26.31-.61.27-.93-.04-.32-.07-.6-.1-.88-.04-.33-.07-.84.39-1.25.58-.52,1.43-.29,1.92.26.21.23.44.6.49.85.02.09,0,.14-.06.22-.08.09-.21.28-.34.4-.05.06-.1.08-.12.06-.02-.02,0-.06.05-.15.31-.45.18-.95-.12-1.29-.38-.42-.96-.39-1.31-.08-.36.32-.33.75-.24,1.36.09.65.09,1.23-.36,1.63-.29.26-.63.34-.98.27-.24-.04-.55-.18-.82-.49-.22-.24-.38-.56-.43-.67"/>
    <path class="cls-2" d="M2.93,41.17c-.04-.08-.18-.44-.31-.72-.32-.68-.65-1.34-.77-1.58-.06-.13-.05-.19-.01-.22.09-.05.36-.21.43-.25.06-.04.12-.06.14-.02.01.03-.02.07-.09.14-.2.23-.23.41-.14.65.08.21.21.49.48,1.07.02.05.12.05.16.04.18-.08.92-.41,1.65-.77.05-.02.06-.08.05-.09-.31-.65-.46-.96-.52-1.05-.06-.08-.12-.16-.38-.16-.08,0-.11-.01-.12-.03-.01-.02.01-.05.08-.08.07-.03.28-.09.41-.15.13-.06.21-.12.29-.17.08-.04.12-.04.13,0,.01.03-.03.08-.1.16-.12.12-.15.21-.13.3.03.11.06.22.49,1.12,0,.01.08.04.11.02.12-.05,1.11-.53,1.39-.68.24-.12.26-.18.19-.5-.01-.06-.01-.1.01-.12.04-.02.08.05.11.11.04.09.13.38.26.65.11.24.22.39.26.48.03.06.03.11,0,.12-.03.01-.06-.01-.12-.09-.16-.22-.23-.23-.47-.13-.22.08-1.01.45-1.72.78-.68.32-1.07.5-1.45.7-.23.12-.27.17-.22.42.02.06.02.12-.02.13-.02.01-.06-.02-.08-.08"/>
    <path class="cls-2" d="M1.38,37.67c-.06-.21-.09-.44-.14-.62-.06-.21-.14-.39-.19-.55-.02-.08-.02-.11,0-.12.03-.01.07.02.1.08.13.26.18.26.65.15.12-.03.74-.2,1.36-.38.64-.19,1.32-.39,1.45-.43.27-.1.45-.17.51-.25.08-.1.1-.31-.06-.86-.09-.31-.15-.48-.21-.59-.07-.14-.28-.24-.57-.31-.09-.02-.13-.05-.14-.08-.01-.03.1-.05.19-.04.06,0,.47.03.53.04.07.02.1.08.11.12.02.07.17.58.25.92.08.35.21.84.28,1.08.06.21.18.51.21.6.02.08.03.15,0,.16-.03,0-.07-.05-.09-.11-.14-.28-.24-.29-.46-.25-.28.05-.73.18-1.66.45-.92.27-1.39.41-1.62.49-.38.13-.42.17-.39.47,0,.09,0,.11-.03.12-.02,0-.05-.03-.07-.1"/>
    <path class="cls-2" d="M2.19,29.09c1.13-.1,1.9.61,2.19,1.13.15.28.26.59.29.92.11,1.27-.89,2.41-2.18,2.52-.7.06-1.35-.12-1.93-.75-.31-.34-.52-.87-.56-1.33-.11-1.23.87-2.38,2.19-2.49M.74,32.7c.45.32,1.1.41,1.67.36.54-.05,1.13-.31,1.52-.68.51-.46.63-.96.6-1.35-.02-.25-.12-.51-.35-.73-.29-.31-.94-.69-1.93-.6-.61.05-1.2.31-1.65.75-.28.28-.52.69-.47,1.25.03.4.35.81.62,1.01"/>
    <path class="cls-2" d="M.55,25.51c.26-.27.57-.37.9-.33.46.06.64.33.73.5.08.12.14.32.17.43,0,.03.05.03.13,0,.28-.1.99-.41,1.35-.6.34-.18.54-.3.7-.43.24-.18.32-.36.34-.49,0-.05.03-.09.05-.09.01,0,.04.03.05.08.02.07.01.19,0,.32-.06.44-.29.72-.69.96-.45.26-1.37.66-1.6.77-.13.08-.2.14-.23.23-.02.06-.05.14-.06.29,0,.03.03.06.06.07.08.03.89.13,1.16.16.37.05.61.05.67.03.09,0,.17-.06.25-.3.02-.08.05-.1.08-.1.03,0,.04.06.03.14-.02.13-.08.33-.11.59-.03.25-.03.51-.05.64,0,.07-.03.12-.06.11-.03,0-.04-.05-.05-.14-.02-.24-.07-.32-.36-.37-.4-.07-.96-.16-1.83-.27-.97-.13-1.42-.15-1.66-.17-.2-.01-.3-.02-.39.27-.02.06-.04.12-.08.11-.03,0-.04-.05-.03-.13.01-.1.06-.3.09-.54.04-.29.03-.49.07-.85.06-.43.18-.7.37-.91M.28,26.92s0,.04.13.06c.13.03,1.6.22,1.71.24.09.01.12-.01.13-.04.02-.03.03-.12.04-.17.02-.18.02-.6-.06-.76-.12-.22-.36-.45-.74-.5-.36-.05-.64.02-.84.18-.22.18-.34.41-.38.76-.01.09,0,.19.02.23"/>
    <path class="cls-2" d="M.82,22.95c.05-.16.15-.36.21-.56.12-.36.4-1.27.49-1.54.08-.25.1-.35.12-.42,0-.03.06-.04.13-.03.08.02.33.09.47.1.04,0,.1.03.09.06,0,.02-.03.03-.12.04-.32.02-.46.12-.53.23-.08.15-.37,1.03-.43,1.25-.01.06,0,.09.24.17.22.07,1.08.35,1.54.5.08.03.11.02.12,0l.28-.85c.1-.31.12-.39.1-.47-.01-.06-.07-.14-.2-.26-.04-.03-.06-.06-.05-.09,0-.02.04-.02.08,0,.04.01.24.11.34.16.12.05.33.1.38.11.1.01.13.07.12.08,0,.03-.04.02-.17.03-.07,0-.21,0-.27.1-.08.14-.15.32-.45,1.23-.02.05,0,.06.11.1.34.11,1.29.4,1.42.44.07.02.27.03.36-.08.08-.09.14-.19.28-.64.18-.56.21-.69.13-.86-.05-.09-.17-.25-.24-.35-.07-.1-.08-.13-.07-.16,0-.03.06-.02.12.03.14.09.4.26.46.31.04.04.06.09.05.13-.23.71-.51,1.46-.69,2.01-.07.23-.16.62-.19.69-.03.09-.06.12-.09.11s-.02-.06-.02-.14c.04-.24,0-.4-.3-.51-1.06-.38-1.8-.62-3.11-1.06-.38-.13-.49-.07-.62.15-.04.06-.07.09-.09.08-.02,0-.03-.06,0-.11"/>
    <path class="cls-2" d="M2.16,18.99c.11-.18.31-.48.45-.72.02-.03.05-.04.21-.07.75-.11,3.43-.68,4.36-.89.03,0,.04-.03-.02-.06-.23-.13-1.93-1.07-2.47-1.37-.36-.21-.5-.11-.66.06-.06.06-.1.1-.12.09-.03-.02-.01-.08.03-.15.06-.11.19-.28.27-.41.1-.18.16-.35.2-.41.04-.07.07-.09.09-.08.03.02.01.07,0,.14-.06.28.06.37.21.49.22.16,1.5.91,2.08,1.23.56.32.9.53,1.23.7.14.07.18.12.16.16-.01.03-.12.06-.32.09-.63.1-3.35.65-4.79.93-.05.01-.05.03-.02.06.21.12,2.21,1.28,2.5,1.45.27.15.42.21.55.22.14.01.28-.11.37-.19.05-.05.1-.08.13-.06.03.02,0,.08-.03.14-.06.11-.19.26-.3.45-.11.19-.19.4-.21.45-.05.09-.08.09-.1.08-.03-.02-.01-.07,0-.15.06-.26.05-.37-.29-.6-.22-.16-2.15-1.31-2.64-1.59-.36-.21-.44-.18-.51-.15-.11.04-.18.11-.28.23-.06.08-.09.1-.12.08-.02-.01-.03-.06.03-.15"/>
    <path class="cls-2" d="M9.17,16.15c.19-.28.14-.39-.09-.63-.48-.5-2.56-2.38-2.64-2.43-.05-.04-.08-.04-.1-.02-.03.03-.15.14-.37.38-.19.21-.3.35-.38.47-.07.11-.07.24.07.5.04.08.04.13.02.15-.02.02-.06-.02-.09-.06-.13-.17-.25-.35-.39-.47-.04-.05-.07-.07-.05-.11,0-.02.03-.02.06-.02.05,0,.13-.05.2-.12.08-.08.55-.59,1.04-1.13.36-.4.81-.9.93-1.05.1-.13.17-.21.21-.34,0-.03.01-.06.03-.05.02,0,.04.01.07.06.05.07.21.21.38.38.08.07.1.13.08.15-.02.02-.08-.01-.11-.03-.11-.07-.26-.13-.34-.12-.08,0-.17.06-.5.43-.15.16-.38.43-.45.52-.02.03.02.07.06.11.19.17,1.41,1.29,1.63,1.49.29.26.96.84,1.14.97.2.14.28.12.49-.01.07-.05.11-.07.13-.04.03.03,0,.07-.06.14-.11.12-.29.26-.48.47-.24.27-.35.45-.43.54-.06.07-.11.08-.13.05-.02-.02,0-.08.05-.15"/>
    <path class="cls-2" d="M8.52,10.59c.18-.15.32-.23.48-.36.18-.15.33-.31.45-.41.05-.04.09-.06.1-.04.02.02.02.06-.04.12-.19.21-.13.3.04.54.21.28.74.91,1.02,1.25.66.8,1.06,1.24,1.2,1.4.19.19.25.2.44.11.09-.05.12-.05.14-.02.02.03-.01.06-.08.12-.09.07-.24.17-.39.3-.27.23-.41.38-.51.47-.05.04-.1.06-.12.03-.01-.02,0-.06.07-.15.16-.21.12-.33-.14-.65-.25-.32-1.51-1.82-1.72-2.07-.22-.27-.38-.43-.46-.5-.17-.16-.24-.14-.46-.03-.05.02-.08.02-.1,0-.01-.02.01-.05.06-.1"/>
    <path class="cls-2" d="M10.43,8.95c.18-.11.51-.26.75-.4.03-.02.07-.01.22.05.7.28,3.31,1.13,4.22,1.42.02.01.05,0,.02-.06-.13-.23-1.13-1.89-1.45-2.42-.21-.36-.38-.34-.6-.28-.08.02-.13.04-.15.01-.02-.03.03-.08.1-.11.11-.06.3-.14.43-.22.18-.1.32-.22.38-.26.07-.04.1-.05.12-.02.02.03-.02.07-.07.12-.19.22-.13.35-.06.53.11.25.85,1.53,1.18,2.11.32.56.51.91.71,1.22.09.13.1.2.06.22-.02.01-.14,0-.32-.08-.6-.23-3.23-1.11-4.61-1.59-.05-.02-.06,0-.04.04.12.21,1.27,2.22,1.44,2.5.16.27.25.39.36.47.11.08.3.05.42.02.07-.02.12-.02.15.01.02.03-.04.07-.09.1-.11.06-.29.13-.48.24-.18.11-.36.25-.41.28-.09.05-.11.04-.13.02-.02-.03.02-.07.08-.13.18-.19.22-.29.05-.66-.11-.25-1.2-2.21-1.49-2.7-.21-.36-.29-.37-.37-.38-.11-.01-.21,0-.36.06-.09.04-.13.04-.15.01-.01-.03,0-.06.1-.12"/>
    <path class="cls-2" d="M17.55,5.51c.07.14.19.3.35.5.87,1.1,1.53,1.9,2.25,2.72.3.34.38.38.56.37.09-.01.13,0,.13.02.01.03-.05.07-.11.09-.13.04-.24.06-.59.17-.25.08-.5.19-.66.24-.07.02-.12.02-.13-.01,0-.03.04-.07.11-.1.26-.13.26-.25.2-.4-.05-.11-.47-.64-.89-1.15-.04-.04-.09-.06-.11-.05-.25.1-1.1.37-1.25.42-.03.01-.05.1-.06.16-.01.17-.05.73-.04,1.09,0,.28.05.41.15.46.08.04.18.04.32.02.07,0,.12.01.12.03.01.03-.05.07-.12.09-.13.04-.42.1-.66.17-.17.05-.29.13-.45.18-.07.02-.12.02-.13-.01-.01-.03.05-.07.11-.1.29-.16.33-.24.41-.89.06-.48.18-2.14.25-3.27,0-.1,0-.15-.02-.2,0-.03-.01-.07,0-.08.06-.08.15-.26.13-.42,0-.04,0-.07.03-.08.02,0,.04.02.07.05M18.53,7.63c-.51-.67-.83-1.05-1.01-1.24-.04-.05-.05-.02-.05.03-.04.44-.07,1.3-.07,1.6,0,.02.01.06.04.05.13-.03.3-.09.53-.16.24-.08.51-.16.58-.22.01-.01,0-.04-.02-.07"/>
  </g>
</svg>